<svg width="85" height="67" viewBox="0 0 85 67" fill="none" xmlns="http://www.w3.org/2000/svg">
<path d="M0.0200043 5.89709L9.02 0.897095L9.02 10.8971L6.02 5.89709L0.0200043 5.89709Z" fill="#70591C"/>
<path d="M15.02 5.89709L24.02 0.897095V10.8971L21.02 5.89709L15.02 5.89709Z" fill="#344048"/>
<path d="M30.02 5.89709L39.02 0.897095V10.8971L36.02 5.89709L30.02 5.89709Z" fill="#70591C"/>
<path d="M60.02 5.89709L69.02 0.897095V10.8971L66.02 5.89709L60.02 5.89709Z" fill="#70591C"/>
<path d="M75.02 5.89709L84.02 0.897095V10.8971L81.02 5.89709L75.02 5.89709Z" fill="#344048"/>
<path d="M45.02 5.89709L54.02 0.897095V10.8971L51.02 5.89709L45.02 5.89709Z" fill="#344048"/>
<path d="M0.0200043 19.8971L9.02 14.8971L9.02 24.8971L6.02 19.8971H0.0200043Z" fill="#70591C"/>
<path d="M15.02 19.8971L24.02 14.8971V24.8971L21.02 19.8971H15.02Z" fill="#344048"/>
<path d="M30.02 19.8971L39.02 14.8971V24.8971L36.02 19.8971H30.02Z" fill="#70591C"/>
<path d="M60.02 19.8971L69.02 14.8971V24.8971L66.02 19.8971H60.02Z" fill="#70591C"/>
<path d="M75.02 19.8971L84.02 14.8971V24.8971L81.02 19.8971H75.02Z" fill="#344048"/>
<path d="M45.02 19.8971L54.02 14.8971V24.8971L51.02 19.8971H45.02Z" fill="#344048"/>
<path d="M0.0200043 33.8971L9.02 28.8971L9.02 38.8971L6.02 33.8971H0.0200043Z" fill="#70591C"/>
<path d="M15.02 33.8971L24.02 28.8971V38.8971L21.02 33.8971H15.02Z" fill="#344048"/>
<path d="M30.02 33.8971L39.02 28.8971V38.8971L36.02 33.8971H30.02Z" fill="#70591C"/>
<path d="M60.02 33.8971L69.02 28.8971V38.8971L66.02 33.8971H60.02Z" fill="#70591C"/>
<path d="M75.02 33.8971L84.02 28.8971V38.8971L81.02 33.8971H75.02Z" fill="#344048"/>
<path d="M45.02 33.8971L54.02 28.8971V38.8971L51.02 33.8971H45.02Z" fill="#344048"/>
<path d="M0.0200043 47.8971L9.02 42.8971L9.02 52.8971L6.02 47.8971H0.0200043Z" fill="#70591C"/>
<path d="M15.02 47.8971L24.02 42.8971V52.8971L21.02 47.8971H15.02Z" fill="#344048"/>
<path d="M30.02 47.8971L39.02 42.8971V52.8971L36.02 47.8971H30.02Z" fill="#70591C"/>
<path d="M60.02 47.8971L69.02 42.8971V52.8971L66.02 47.8971H60.02Z" fill="#70591C"/>
<path d="M75.02 47.8971L84.02 42.8971V52.8971L81.02 47.8971H75.02Z" fill="#344048"/>
<path d="M45.02 47.8971L54.02 42.8971V52.8971L51.02 47.8971H45.02Z" fill="#344048"/>
<path d="M0.0200043 61.8971L9.02 56.8971L9.02 66.8971L6.02 61.8971H0.0200043Z" fill="#70591C"/>
<path d="M15.02 61.8971L24.02 56.8971V66.8971L21.02 61.8971H15.02Z" fill="#344048"/>
<path d="M30.02 61.8971L39.02 56.8971V66.8971L36.02 61.8971H30.02Z" fill="#70591C"/>
<path d="M60.02 61.8971L69.02 56.8971V66.8971L66.02 61.8971H60.02Z" fill="#70591C"/>
<path d="M75.02 61.8971L84.02 56.8971V66.8971L81.02 61.8971H75.02Z" fill="#344048"/>
<path d="M45.02 61.8971L54.02 56.8971V66.8971L51.02 61.8971H45.02Z" fill="#344048"/>
</svg>
