<svg width="85" height="66" viewBox="0 0 85 66" fill="none" xmlns="http://www.w3.org/2000/svg">
<path d="M5 0.897125L10 9.89713H0L5 6.89713V0.897125Z" fill="#344048"/>
<path d="M20 0.897125L25 9.89713H15L20 6.89713V0.897125Z" fill="#70591C"/>
<path d="M35 0.897125L40 9.89713H30L35 6.89713V0.897125Z" fill="#344048"/>
<path d="M65 0.897125L70 9.89713H60L65 6.89713V0.897125Z" fill="#344048"/>
<path d="M80 0.897125L85 9.89713H75L80 6.89713V0.897125Z" fill="#70591C"/>
<path d="M50 0.897125L55 9.89713H45L50 6.89713V0.897125Z" fill="#70591C"/>
<path d="M5 14.8971L10 23.8971H0L5 20.8971V14.8971Z" fill="#70591C"/>
<path d="M20 14.8971L25 23.8971H15L20 20.8971V14.8971Z" fill="#70591C"/>
<path d="M35 14.8971L40 23.8971H30L35 20.8971V14.8971Z" fill="#70591C"/>
<path d="M65 14.8971L70 23.8971H60L65 20.8971V14.8971Z" fill="#70591C"/>
<path d="M80 14.8971L85 23.8971H75L80 20.8971V14.8971Z" fill="#70591C"/>
<path d="M50 14.8971L55 23.8971H45L50 20.8971V14.8971Z" fill="#70591C"/>
<path d="M5 28.8971L10 37.8971H0L5 34.8971V28.8971Z" fill="#70591C"/>
<path d="M20 28.8971L25 37.8971H15L20 34.8971V28.8971Z" fill="#344048"/>
<path d="M35 28.8971L40 37.8971H30L35 34.8971V28.8971Z" fill="#70591C"/>
<path d="M65 28.8971L70 37.8971H60L65 34.8971V28.8971Z" fill="#70591C"/>
<path d="M80 28.8971L85 37.8971H75L80 34.8971V28.8971Z" fill="#344048"/>
<path d="M50 28.8971L55 37.8971H45L50 34.8971V28.8971Z" fill="#344048"/>
<path d="M5 42.8971L10 51.8971H0L5 48.8971V42.8971Z" fill="#70591C"/>
<path d="M20 42.8971L25 51.8971H15L20 48.8971V42.8971Z" fill="#70591C"/>
<path d="M35 42.8971L40 51.8971H30L35 48.8971V42.8971Z" fill="#70591C"/>
<path d="M65 42.8971L70 51.8971H60L65 48.8971V42.8971Z" fill="#70591C"/>
<path d="M80 42.8971L85 51.8971H75L80 48.8971V42.8971Z" fill="#70591C"/>
<path d="M50 42.8971L55 51.8971H45L50 48.8971V42.8971Z" fill="#70591C"/>
<path d="M5 56.8971L10 65.8971H0L5 62.8971V56.8971Z" fill="#344048"/>
<path d="M20 56.8971L25 65.8971H15L20 62.8971V56.8971Z" fill="#70591C"/>
<path d="M35 56.8971L40 65.8971H30L35 62.8971V56.8971Z" fill="#344048"/>
<path d="M65 56.8971L70 65.8971H60L65 62.8971V56.8971Z" fill="#344048"/>
<path d="M80 56.8971L85 65.8971H75L80 62.8971V56.8971Z" fill="#70591C"/>
<path d="M50 56.8971L55 65.8971H45L50 62.8971V56.8971Z" fill="#70591C"/>
</svg>
