<svg width="60" height="56" viewBox="0 0 60 56" fill="none" xmlns="http://www.w3.org/2000/svg">
<path d="M29.0108 35.9386C27.0746 35.6974 25.2934 34.7568 24.0022 33.294C22.711 31.8312 21.999 29.9469 22 27.9958C22.001 26.0446 22.7151 24.1611 24.0078 22.6996C25.3006 21.2382 27.0828 20.2995 29.0192 20.0603L29.6103 24.845C28.8408 24.9401 28.1326 25.3131 27.6189 25.8938C27.1052 26.4745 26.8215 27.223 26.8211 27.9983C26.8207 28.7736 27.1036 29.5224 27.6167 30.1037C28.1297 30.6849 28.8376 31.0587 29.6069 31.1545L29.0108 35.9386Z" fill="#C4C4C4"/>
<path d="M31.0084 20.0638C32.9384 20.309 34.7128 21.2491 35.9997 22.7082C37.2866 24.1672 37.9977 26.0452 38 27.9907C38.0023 29.9361 37.2955 31.8158 36.0121 33.2778C34.7286 34.7398 32.9563 35.6841 31.027 35.9338L30.4081 31.1526C31.1747 31.0534 31.879 30.6782 32.389 30.0972C32.899 29.5163 33.1798 28.7694 33.1789 27.9963C33.178 27.2232 32.8955 26.477 32.3841 25.8972C31.8727 25.3174 31.1676 24.9439 30.4007 24.8464L31.0084 20.0638Z" fill="#C4C4C4"/>
<path d="M30 4L32.5981 5.5V8.5L30 10L27.4019 8.5V5.5L30 4Z" fill="#C4C4C4"/>
<path d="M30 46L32.5981 47.5V50.5L30 52L27.4019 50.5V47.5L30 46Z" fill="#C4C4C4"/>
<path d="M48 28L49.5 25.4019H52.5L54 28L52.5 30.5981H49.5L48 28Z" fill="#C4C4C4"/>
<path d="M6 28L7.5 25.4019H10.5L12 28L10.5 30.5981H7.5L6 28Z" fill="#C4C4C4"/>
</svg>
