<svg width="73" height="60" viewBox="0 0 73 60" fill="none" xmlns="http://www.w3.org/2000/svg">
<circle cx="4" cy="4" r="4" fill="#344048"/>
<circle cx="17" cy="4" r="4" fill="#C4C4C4"/>
<circle cx="30" cy="4" r="4" fill="#344048"/>
<circle cx="43" cy="4" r="4" fill="#C4C4C4"/>
<path d="M60 4C60 6.20914 58.2091 8 56 8C53.7909 8 52 6.20914 52 4C52 1.79086 53.7909 0 56 0C58.2091 0 60 1.79086 60 4Z" fill="#344048"/>
<circle cx="69" cy="4" r="4" fill="#C4C4C4"/>
<circle cx="4" cy="17" r="4" fill="#C4C4C4"/>
<circle cx="17" cy="17" r="4" fill="#344048"/>
<circle cx="30" cy="17" r="4" fill="#C4C4C4"/>
<circle cx="43" cy="17" r="4" fill="#344048"/>
<circle cx="56" cy="17" r="4" fill="#C4C4C4"/>
<circle cx="69" cy="17" r="4" fill="#344048"/>
<circle cx="4" cy="30" r="4" fill="#344048"/>
<circle cx="17" cy="30" r="4" fill="#C4C4C4"/>
<circle cx="30" cy="30" r="4" fill="#344048"/>
<circle cx="43" cy="30" r="4" fill="#C4C4C4"/>
<circle cx="56" cy="30" r="4" fill="#344048"/>
<circle cx="69" cy="30" r="4" fill="#C4C4C4"/>
<circle cx="4" cy="43" r="4" fill="#C4C4C4"/>
<circle cx="17" cy="43" r="4" fill="#344048"/>
<circle cx="30" cy="43" r="4" fill="#C4C4C4"/>
<circle cx="43" cy="43" r="4" fill="#344048"/>
<circle cx="56" cy="43" r="4" fill="#C4C4C4"/>
<circle cx="69" cy="43" r="4" fill="#344048"/>
<circle cx="4" cy="56" r="4" fill="#344048"/>
<circle cx="17" cy="56" r="4" fill="#C4C4C4"/>
<circle cx="30" cy="56" r="4" fill="#344048"/>
<circle cx="43" cy="56" r="4" fill="#C4C4C4"/>
<circle cx="56" cy="56" r="4" fill="#344048"/>
<circle cx="69" cy="56" r="4" fill="#C4C4C4"/>
</svg>
