<svg width="54" height="54" viewBox="0 0 54 54" fill="none" xmlns="http://www.w3.org/2000/svg">
<path d="M6 3C6 4.65685 4.65685 6 3 6C1.34315 6 0 4.65685 0 3C0 1.34315 1.34315 0 3 0C4.65685 0 6 1.34315 6 3ZM0.772261 3C0.772261 4.23035 1.76965 5.22774 3 5.22774C4.23035 5.22774 5.22774 4.23035 5.22774 3C5.22774 1.76965 4.23035 0.772261 3 0.772261C1.76965 0.772261 0.772261 1.76965 0.772261 3Z" fill="#C4C4C4"/>
<path d="M12 9C12 10.6569 10.6569 12 9 12C7.34315 12 6 10.6569 6 9C6 7.34315 7.34315 6 9 6C10.6569 6 12 7.34315 12 9ZM6.77226 9C6.77226 10.2303 7.76965 11.2277 9 11.2277C10.2303 11.2277 11.2277 10.2303 11.2277 9C11.2277 7.76965 10.2303 6.77226 9 6.77226C7.76965 6.77226 6.77226 7.76965 6.77226 9Z" fill="#C4C4C4"/>
<path d="M18 15C18 16.6569 16.6569 18 15 18C13.3431 18 12 16.6569 12 15C12 13.3431 13.3431 12 15 12C16.6569 12 18 13.3431 18 15ZM12.7723 15C12.7723 16.2303 13.7697 17.2277 15 17.2277C16.2303 17.2277 17.2277 16.2303 17.2277 15C17.2277 13.7697 16.2303 12.7723 15 12.7723C13.7697 12.7723 12.7723 13.7697 12.7723 15Z" fill="#C4C4C4"/>
<path d="M24 21C24 22.6569 22.6569 24 21 24C19.3431 24 18 22.6569 18 21C18 19.3431 19.3431 18 21 18C22.6569 18 24 19.3431 24 21ZM18.7723 21C18.7723 22.2303 19.7697 23.2277 21 23.2277C22.2303 23.2277 23.2277 22.2303 23.2277 21C23.2277 19.7697 22.2303 18.7723 21 18.7723C19.7697 18.7723 18.7723 19.7697 18.7723 21Z" fill="#C4C4C4"/>
<path d="M30 27C30 28.6569 28.6569 30 27 30C25.3431 30 24 28.6569 24 27C24 25.3431 25.3431 24 27 24C28.6569 24 30 25.3431 30 27ZM24.7723 27C24.7723 28.2303 25.7697 29.2277 27 29.2277C28.2303 29.2277 29.2277 28.2303 29.2277 27C29.2277 25.7697 28.2303 24.7723 27 24.7723C25.7697 24.7723 24.7723 25.7697 24.7723 27Z" fill="#C4C4C4"/>
<path d="M36 33C36 34.6569 34.6569 36 33 36C31.3431 36 30 34.6569 30 33C30 31.3431 31.3431 30 33 30C34.6569 30 36 31.3431 36 33ZM30.7723 33C30.7723 34.2303 31.7697 35.2277 33 35.2277C34.2303 35.2277 35.2277 34.2303 35.2277 33C35.2277 31.7697 34.2303 30.7723 33 30.7723C31.7697 30.7723 30.7723 31.7697 30.7723 33Z" fill="#C4C4C4"/>
<path d="M36 33C36 34.6569 34.6569 36 33 36C31.3431 36 30 34.6569 30 33C30 31.3431 31.3431 30 33 30C34.6569 30 36 31.3431 36 33ZM30.7723 33C30.7723 34.2303 31.7697 35.2277 33 35.2277C34.2303 35.2277 35.2277 34.2303 35.2277 33C35.2277 31.7697 34.2303 30.7723 33 30.7723C31.7697 30.7723 30.7723 31.7697 30.7723 33Z" fill="#C4C4C4"/>
<path d="M42 39C42 40.6569 40.6569 42 39 42C37.3431 42 36 40.6569 36 39C36 37.3431 37.3431 36 39 36C40.6569 36 42 37.3431 42 39ZM36.7723 39C36.7723 40.2303 37.7697 41.2277 39 41.2277C40.2303 41.2277 41.2277 40.2303 41.2277 39C41.2277 37.7697 40.2303 36.7723 39 36.7723C37.7697 36.7723 36.7723 37.7697 36.7723 39Z" fill="#C4C4C4"/>
<path d="M12 9C12 10.6569 10.6569 12 9 12C7.34315 12 6 10.6569 6 9C6 7.34315 7.34315 6 9 6C10.6569 6 12 7.34315 12 9ZM6.77226 9C6.77226 10.2303 7.76965 11.2277 9 11.2277C10.2303 11.2277 11.2277 10.2303 11.2277 9C11.2277 7.76965 10.2303 6.77226 9 6.77226C7.76965 6.77226 6.77226 7.76965 6.77226 9Z" fill="#C4C4C4"/>
<path d="M48 45C48 46.6569 46.6569 48 45 48C43.3431 48 42 46.6569 42 45C42 43.3431 43.3431 42 45 42C46.6569 42 48 43.3431 48 45ZM42.7723 45C42.7723 46.2303 43.7697 47.2277 45 47.2277C46.2303 47.2277 47.2277 46.2303 47.2277 45C47.2277 43.7697 46.2303 42.7723 45 42.7723C43.7697 42.7723 42.7723 43.7697 42.7723 45Z" fill="#C4C4C4"/>
<path d="M54 3C54 4.65685 52.6569 6 51 6C49.3431 6 48 4.65685 48 3C48 1.34315 49.3431 0 51 0C52.6569 0 54 1.34315 54 3ZM48.7723 3C48.7723 4.23035 49.7697 5.22774 51 5.22774C52.2303 5.22774 53.2277 4.23035 53.2277 3C53.2277 1.76965 52.2303 0.772261 51 0.772261C49.7697 0.772261 48.7723 1.76965 48.7723 3Z" fill="#C4C4C4"/>
<path d="M6 51C6 52.6569 4.65685 54 3 54C1.34315 54 0 52.6569 0 51C0 49.3431 1.34315 48 3 48C4.65685 48 6 49.3431 6 51ZM0.772261 51C0.772261 52.2303 1.76965 53.2277 3 53.2277C4.23035 53.2277 5.22774 52.2303 5.22774 51C5.22774 49.7697 4.23035 48.7723 3 48.7723C1.76965 48.7723 0.772261 49.7697 0.772261 51Z" fill="#C4C4C4"/>
<path d="M48 9C48 10.6569 46.6569 12 45 12C43.3431 12 42 10.6569 42 9C42 7.34315 43.3431 6 45 6C46.6569 6 48 7.34315 48 9ZM42.7723 9C42.7723 10.2303 43.7697 11.2277 45 11.2277C46.2303 11.2277 47.2277 10.2303 47.2277 9C47.2277 7.76965 46.2303 6.77226 45 6.77226C43.7697 6.77226 42.7723 7.76965 42.7723 9Z" fill="#C4C4C4"/>
<path d="M42 15C42 16.6569 40.6569 18 39 18C37.3431 18 36 16.6569 36 15C36 13.3431 37.3431 12 39 12C40.6569 12 42 13.3431 42 15ZM36.7723 15C36.7723 16.2303 37.7697 17.2277 39 17.2277C40.2303 17.2277 41.2277 16.2303 41.2277 15C41.2277 13.7697 40.2303 12.7723 39 12.7723C37.7697 12.7723 36.7723 13.7697 36.7723 15Z" fill="#C4C4C4"/>
<path d="M36 21C36 22.6569 34.6569 24 33 24C31.3431 24 30 22.6569 30 21C30 19.3431 31.3431 18 33 18C34.6569 18 36 19.3431 36 21ZM30.7723 21C30.7723 22.2303 31.7697 23.2277 33 23.2277C34.2303 23.2277 35.2277 22.2303 35.2277 21C35.2277 19.7697 34.2303 18.7723 33 18.7723C31.7697 18.7723 30.7723 19.7697 30.7723 21Z" fill="#C4C4C4"/>
<path d="M18 15C18 16.6569 16.6569 18 15 18C13.3431 18 12 16.6569 12 15C12 13.3431 13.3431 12 15 12C16.6569 12 18 13.3431 18 15ZM12.7723 15C12.7723 16.2303 13.7697 17.2277 15 17.2277C16.2303 17.2277 17.2277 16.2303 17.2277 15C17.2277 13.7697 16.2303 12.7723 15 12.7723C13.7697 12.7723 12.7723 13.7697 12.7723 15Z" fill="#C4C4C4"/>
<path d="M24 21C24 22.6569 22.6569 24 21 24C19.3431 24 18 22.6569 18 21C18 19.3431 19.3431 18 21 18C22.6569 18 24 19.3431 24 21ZM18.7723 21C18.7723 22.2303 19.7697 23.2277 21 23.2277C22.2303 23.2277 23.2277 22.2303 23.2277 21C23.2277 19.7697 22.2303 18.7723 21 18.7723C19.7697 18.7723 18.7723 19.7697 18.7723 21Z" fill="#C4C4C4"/>
<path d="M30 27C30 28.6569 28.6569 30 27 30C25.3431 30 24 28.6569 24 27C24 25.3431 25.3431 24 27 24C28.6569 24 30 25.3431 30 27ZM24.7723 27C24.7723 28.2303 25.7697 29.2277 27 29.2277C28.2303 29.2277 29.2277 28.2303 29.2277 27C29.2277 25.7697 28.2303 24.7723 27 24.7723C25.7697 24.7723 24.7723 25.7697 24.7723 27Z" fill="#C4C4C4"/>
<path d="M24 33C24 34.6569 22.6569 36 21 36C19.3431 36 18 34.6569 18 33C18 31.3431 19.3431 30 21 30C22.6569 30 24 31.3431 24 33ZM18.7723 33C18.7723 34.2303 19.7697 35.2277 21 35.2277C22.2303 35.2277 23.2277 34.2303 23.2277 33C23.2277 31.7697 22.2303 30.7723 21 30.7723C19.7697 30.7723 18.7723 31.7697 18.7723 33Z" fill="#C4C4C4"/>
<path d="M18 39C18 40.6569 16.6569 42 15 42C13.3431 42 12 40.6569 12 39C12 37.3431 13.3431 36 15 36C16.6569 36 18 37.3431 18 39ZM12.7723 39C12.7723 40.2303 13.7697 41.2277 15 41.2277C16.2303 41.2277 17.2277 40.2303 17.2277 39C17.2277 37.7697 16.2303 36.7723 15 36.7723C13.7697 36.7723 12.7723 37.7697 12.7723 39Z" fill="#C4C4C4"/>
<path d="M12 45C12 46.6569 10.6569 48 9 48C7.34315 48 6 46.6569 6 45C6 43.3431 7.34315 42 9 42C10.6569 42 12 43.3431 12 45ZM6.77226 45C6.77226 46.2303 7.76965 47.2277 9 47.2277C10.2303 47.2277 11.2277 46.2303 11.2277 45C11.2277 43.7697 10.2303 42.7723 9 42.7723C7.76965 42.7723 6.77226 43.7697 6.77226 45Z" fill="#C4C4C4"/>
<path d="M42 39C42 40.6569 40.6569 42 39 42C37.3431 42 36 40.6569 36 39C36 37.3431 37.3431 36 39 36C40.6569 36 42 37.3431 42 39ZM36.7723 39C36.7723 40.2303 37.7697 41.2277 39 41.2277C40.2303 41.2277 41.2277 40.2303 41.2277 39C41.2277 37.7697 40.2303 36.7723 39 36.7723C37.7697 36.7723 36.7723 37.7697 36.7723 39Z" fill="#C4C4C4"/>
<path d="M54 51C54 52.6569 52.6569 54 51 54C49.3431 54 48 52.6569 48 51C48 49.3431 49.3431 48 51 48C52.6569 48 54 49.3431 54 51ZM48.7723 51C48.7723 52.2303 49.7697 53.2277 51 53.2277C52.2303 53.2277 53.2277 52.2303 53.2277 51C53.2277 49.7697 52.2303 48.7723 51 48.7723C49.7697 48.7723 48.7723 49.7697 48.7723 51Z" fill="#C4C4C4"/>
</svg>
