<svg width="60" height="58" viewBox="0 0 60 58" fill="none" xmlns="http://www.w3.org/2000/svg">
<path d="M27.7071 9L30 6.70711L32.2929 9L30 11.2929L27.7071 9Z" fill="#C4C4C4" stroke="#C4C4C4"/>
<path d="M27.7071 49L30 46.7071L32.2929 49L30 51.2929L27.7071 49Z" fill="#C4C4C4" stroke="#C4C4C4"/>
<path d="M48 29L51 26L54 29L51 32L48 29Z" fill="#C4C4C4"/>
<path d="M9 31.2929L6.70711 29L9 26.7071L11.2929 29L9 31.2929Z" fill="#C4C4C4" stroke="#C4C4C4"/>
<path fill-rule="evenodd" clip-rule="evenodd" d="M30 37C34.4183 37 38 33.4183 38 29C38 24.5817 34.4183 21 30 21C25.5817 21 22 24.5817 22 29C22 33.4183 25.5817 37 30 37ZM30 26L27 29L30 32L33 29L30 26Z" fill="#C4C4C4"/>
</svg>
