<svg width="65" height="62" viewBox="0 0 65 62" fill="none" xmlns="http://www.w3.org/2000/svg">
<g clip-path="url(#clip0)">
<path d="M0.5 33.5L64.5 33.5" stroke="black" stroke-opacity="0.35"/>
<path d="M0.5 28.5L64.5 28.5" stroke="black" stroke-opacity="0.35"/>
<path d="M0.5 13.5L64.5 13.5" stroke="black" stroke-opacity="0.35"/>
<path d="M0.5 8.5L64.5 8.5" stroke="black" stroke-opacity="0.35"/>
<path d="M0.5 18.5L64.5 18.5" stroke="black" stroke-opacity="0.35"/>
<path d="M0.5 58.5L64.5 58.5" stroke="black" stroke-opacity="0.35"/>
<path d="M0.5 53.5L64.5 53.5" stroke="black" stroke-opacity="0.35"/>
<path d="M0.5 48.5L64.5 48.5" stroke="black" stroke-opacity="0.35"/>
<path d="M0.5 38.5L64.5 38.5" stroke="black" stroke-opacity="0.35"/>
<path d="M0.5 43.5L64.5 43.5" stroke="black" stroke-opacity="0.35" stroke-linejoin="bevel" stroke-dasharray="5 1 2 5 1 2"/>
<path d="M0.5 23.5L64.5 23.5" stroke="black" stroke-opacity="0.35" stroke-linejoin="bevel" stroke-dasharray="5 1 2 5 1 2"/>
<path d="M0.5 3.5L64.5 3.5" stroke="black" stroke-opacity="0.35" stroke-linejoin="bevel" stroke-dasharray="5 1 2 5 1 2"/>
<path d="M0.5 33.5L64.5 33.5" stroke="black" stroke-opacity="0.35"/>
<path d="M0.5 28.5L64.5 28.5" stroke="black" stroke-opacity="0.35"/>
<path d="M0.5 13.5L64.5 13.5" stroke="black" stroke-opacity="0.35"/>
<path d="M0.5 8.5L64.5 8.5" stroke="black" stroke-opacity="0.35"/>
<path d="M0.5 18.5L64.5 18.5" stroke="black" stroke-opacity="0.35"/>
<path d="M0.5 58.5L64.5 58.5" stroke="black" stroke-opacity="0.35"/>
<path d="M0.5 53.5L64.5 53.5" stroke="black" stroke-opacity="0.35"/>
<path d="M0.5 48.5L64.5 48.5" stroke="black" stroke-opacity="0.35"/>
<path d="M0.5 38.5L64.5 38.5" stroke="black" stroke-opacity="0.35"/>
<path d="M0.5 43.5L64.5 43.5" stroke="black" stroke-opacity="0.35" stroke-linejoin="bevel" stroke-dasharray="5 1 2 5 1 2"/>
<path d="M0.5 23.5L64.5 23.5" stroke="black" stroke-opacity="0.35" stroke-linejoin="bevel" stroke-dasharray="5 1 2 5 1 2"/>
<path d="M0.5 3.5L64.5 3.5" stroke="black" stroke-opacity="0.35" stroke-linejoin="bevel" stroke-dasharray="5 1 2 5 1 2"/>
</g>
<defs>
<clipPath id="clip0">
<rect width="61" height="64" fill="white" transform="translate(0.5 61.5) rotate(-90)"/>
</clipPath>
</defs>
</svg>
