<svg width="74" height="61" viewBox="0 0 74 61" fill="none" xmlns="http://www.w3.org/2000/svg">
<circle cx="4.52002" cy="4.5" r="4" fill="#C4C4C4"/>
<circle cx="17.52" cy="4.5" r="4" fill="#C4C4C4"/>
<circle cx="30.52" cy="4.5" r="4" fill="#C4C4C4"/>
<circle cx="43.52" cy="4.5" r="4" fill="#C4C4C4"/>
<circle cx="56.52" cy="4.5" r="4" fill="#C4C4C4"/>
<circle cx="69.52" cy="4.5" r="4" fill="#C4C4C4"/>
<circle cx="4.52002" cy="17.5" r="4" fill="#C4C4C4"/>
<circle cx="17.52" cy="17.5" r="4" fill="#C4C4C4"/>
<circle cx="30.52" cy="17.5" r="4" fill="#C4C4C4"/>
<circle cx="43.52" cy="17.5" r="4" fill="#C4C4C4"/>
<circle cx="56.52" cy="17.5" r="4" fill="#C4C4C4"/>
<circle cx="69.52" cy="17.5" r="4" fill="#C4C4C4"/>
<circle cx="4.52002" cy="30.5" r="4" fill="#C4C4C4"/>
<circle cx="17.52" cy="30.5" r="4" fill="#C4C4C4"/>
<circle cx="30.52" cy="30.5" r="4" fill="#C4C4C4"/>
<circle cx="43.52" cy="30.5" r="4" fill="#C4C4C4"/>
<circle cx="56.52" cy="30.5" r="4" fill="#C4C4C4"/>
<circle cx="69.52" cy="30.5" r="4" fill="#C4C4C4"/>
<circle cx="4.52002" cy="43.5" r="4" fill="#C4C4C4"/>
<circle cx="17.52" cy="43.5" r="4" fill="#C4C4C4"/>
<circle cx="30.52" cy="43.5" r="4" fill="#C4C4C4"/>
<circle cx="43.52" cy="43.5" r="4" fill="#C4C4C4"/>
<circle cx="56.52" cy="43.5" r="4" fill="#C4C4C4"/>
<circle cx="69.52" cy="43.5" r="4" fill="#C4C4C4"/>
<circle cx="4.52002" cy="56.5" r="4" fill="#C4C4C4"/>
<circle cx="17.52" cy="56.5" r="4" fill="#C4C4C4"/>
<circle cx="30.52" cy="56.5" r="4" fill="#C4C4C4"/>
<circle cx="43.52" cy="56.5" r="4" fill="#C4C4C4"/>
<circle cx="56.52" cy="56.5" r="4" fill="#C4C4C4"/>
<circle cx="69.52" cy="56.5" r="4" fill="#C4C4C4"/>
</svg>
