<svg width="54" height="54" viewBox="0 0 54 54" fill="none" xmlns="http://www.w3.org/2000/svg">
<path d="M6 3C6 4.65685 4.65685 6 3 6C1.34315 6 0 4.65685 0 3C0 1.34315 1.34315 0 3 0C4.65685 0 6 1.34315 6 3ZM0.772261 3C0.772261 4.23035 1.76965 5.22774 3 5.22774C4.23035 5.22774 5.22774 4.23035 5.22774 3C5.22774 1.76965 4.23035 0.772261 3 0.772261C1.76965 0.772261 0.772261 1.76965 0.772261 3Z" fill="#C4C4C4"/>
<path d="M12 9C12 10.6569 10.6569 12 9 12C7.34315 12 6 10.6569 6 9C6 7.34315 7.34315 6 9 6C10.6569 6 12 7.34315 12 9ZM6.77226 9C6.77226 10.2303 7.76965 11.2277 9 11.2277C10.2303 11.2277 11.2277 10.2303 11.2277 9C11.2277 7.76965 10.2303 6.77226 9 6.77226C7.76965 6.77226 6.77226 7.76965 6.77226 9Z" fill="#C4C4C4"/>
<path d="M18 15C18 16.6569 16.6569 18 15 18C13.3431 18 12 16.6569 12 15C12 13.3431 13.3431 12 15 12C16.6569 12 18 13.3431 18 15ZM12.7723 15C12.7723 16.2303 13.7697 17.2277 15 17.2277C16.2303 17.2277 17.2277 16.2303 17.2277 15C17.2277 13.7697 16.2303 12.7723 15 12.7723C13.7697 12.7723 12.7723 13.7697 12.7723 15Z" fill="#C4C4C4"/>
<path d="M24 21C24 22.6569 22.6569 24 21 24C19.3431 24 18 22.6569 18 21C18 19.3431 19.3431 18 21 18C22.6569 18 24 19.3431 24 21ZM18.7723 21C18.7723 22.2303 19.7697 23.2277 21 23.2277C22.2303 23.2277 23.2277 22.2303 23.2277 21C23.2277 19.7697 22.2303 18.7723 21 18.7723C19.7697 18.7723 18.7723 19.7697 18.7723 21Z" fill="#C4C4C4"/>
<path d="M30 27C30 28.6569 28.6569 30 27 30C25.3431 30 24 28.6569 24 27C24 25.3431 25.3431 24 27 24C28.6569 24 30 25.3431 30 27ZM24.7723 27C24.7723 28.2303 25.7697 29.2277 27 29.2277C28.2303 29.2277 29.2277 28.2303 29.2277 27C29.2277 25.7697 28.2303 24.7723 27 24.7723C25.7697 24.7723 24.7723 25.7697 24.7723 27Z" fill="#C4C4C4"/>
<path d="M36 33C36 34.6569 34.6569 36 33 36C31.3431 36 30 34.6569 30 33C30 31.3431 31.3431 30 33 30C34.6569 30 36 31.3431 36 33ZM30.7723 33C30.7723 34.2303 31.7697 35.2277 33 35.2277C34.2303 35.2277 35.2277 34.2303 35.2277 33C35.2277 31.7697 34.2303 30.7723 33 30.7723C31.7697 30.7723 30.7723 31.7697 30.7723 33Z" fill="#C4C4C4"/>
<path d="M36 33C36 34.6569 34.6569 36 33 36C31.3431 36 30 34.6569 30 33C30 31.3431 31.3431 30 33 30C34.6569 30 36 31.3431 36 33ZM30.7723 33C30.7723 34.2303 31.7697 35.2277 33 35.2277C34.2303 35.2277 35.2277 34.2303 35.2277 33C35.2277 31.7697 34.2303 30.7723 33 30.7723C31.7697 30.7723 30.7723 31.7697 30.7723 33Z" fill="#C4C4C4"/>
<path d="M42 39C42 40.6569 40.6569 42 39 42C37.3431 42 36 40.6569 36 39C36 37.3431 37.3431 36 39 36C40.6569 36 42 37.3431 42 39ZM36.7723 39C36.7723 40.2303 37.7697 41.2277 39 41.2277C40.2303 41.2277 41.2277 40.2303 41.2277 39C41.2277 37.7697 40.2303 36.7723 39 36.7723C37.7697 36.7723 36.7723 37.7697 36.7723 39Z" fill="#C4C4C4"/>
<path d="M12 9C12 10.6569 10.6569 12 9 12C7.34315 12 6 10.6569 6 9C6 7.34315 7.34315 6 9 6C10.6569 6 12 7.34315 12 9ZM6.77226 9C6.77226 10.2303 7.76965 11.2277 9 11.2277C10.2303 11.2277 11.2277 10.2303 11.2277 9C11.2277 7.76965 10.2303 6.77226 9 6.77226C7.76965 6.77226 6.77226 7.76965 6.77226 9Z" fill="#C4C4C4"/>
<path d="M18 3C18 4.65685 16.6569 6 15 6C13.3431 6 12 4.65685 12 3C12 1.34315 13.3431 0 15 0C16.6569 0 18 1.34315 18 3ZM12.7723 3C12.7723 4.23035 13.7697 5.22774 15 5.22774C16.2303 5.22774 17.2277 4.23035 17.2277 3C17.2277 1.76965 16.2303 0.772261 15 0.772261C13.7697 0.772261 12.7723 1.76965 12.7723 3Z" fill="#C4C4C4"/>
<path d="M24 9C24 10.6569 22.6569 12 21 12C19.3431 12 18 10.6569 18 9C18 7.34315 19.3431 6 21 6C22.6569 6 24 7.34315 24 9ZM18.7723 9C18.7723 10.2303 19.7697 11.2277 21 11.2277C22.2303 11.2277 23.2277 10.2303 23.2277 9C23.2277 7.76965 22.2303 6.77226 21 6.77226C19.7697 6.77226 18.7723 7.76965 18.7723 9Z" fill="#C4C4C4"/>
<path d="M30 3C30 4.65685 28.6569 6 27 6C25.3431 6 24 4.65685 24 3C24 1.34315 25.3431 0 27 0C28.6569 0 30 1.34315 30 3ZM24.7723 3C24.7723 4.23035 25.7697 5.22774 27 5.22774C28.2303 5.22774 29.2277 4.23035 29.2277 3C29.2277 1.76965 28.2303 0.772261 27 0.772261C25.7697 0.772261 24.7723 1.76965 24.7723 3Z" fill="#C4C4C4"/>
<path d="M42 3C42 4.65685 40.6569 6 39 6C37.3431 6 36 4.65685 36 3C36 1.34315 37.3431 0 39 0C40.6569 0 42 1.34315 42 3ZM36.7723 3C36.7723 4.23035 37.7697 5.22774 39 5.22774C40.2303 5.22774 41.2277 4.23035 41.2277 3C41.2277 1.76965 40.2303 0.772261 39 0.772261C37.7697 0.772261 36.7723 1.76965 36.7723 3Z" fill="#C4C4C4"/>
<path d="M18 51C18 52.6569 16.6569 54 15 54C13.3431 54 12 52.6569 12 51C12 49.3431 13.3431 48 15 48C16.6569 48 18 49.3431 18 51ZM12.7723 51C12.7723 52.2303 13.7697 53.2277 15 53.2277C16.2303 53.2277 17.2277 52.2303 17.2277 51C17.2277 49.7697 16.2303 48.7723 15 48.7723C13.7697 48.7723 12.7723 49.7697 12.7723 51Z" fill="#C4C4C4"/>
<path d="M30 51C30 52.6569 28.6569 54 27 54C25.3431 54 24 52.6569 24 51C24 49.3431 25.3431 48 27 48C28.6569 48 30 49.3431 30 51ZM24.7723 51C24.7723 52.2303 25.7697 53.2277 27 53.2277C28.2303 53.2277 29.2277 52.2303 29.2277 51C29.2277 49.7697 28.2303 48.7723 27 48.7723C25.7697 48.7723 24.7723 49.7697 24.7723 51Z" fill="#C4C4C4"/>
<path d="M42 51C42 52.6569 40.6569 54 39 54C37.3431 54 36 52.6569 36 51C36 49.3431 37.3431 48 39 48C40.6569 48 42 49.3431 42 51ZM36.7723 51C36.7723 52.2303 37.7697 53.2277 39 53.2277C40.2303 53.2277 41.2277 52.2303 41.2277 51C41.2277 49.7697 40.2303 48.7723 39 48.7723C37.7697 48.7723 36.7723 49.7697 36.7723 51Z" fill="#C4C4C4"/>
<path d="M54 3C54 4.65685 52.6569 6 51 6C49.3431 6 48 4.65685 48 3C48 1.34315 49.3431 0 51 0C52.6569 0 54 1.34315 54 3ZM48.7723 3C48.7723 4.23035 49.7697 5.22774 51 5.22774C52.2303 5.22774 53.2277 4.23035 53.2277 3C53.2277 1.76965 52.2303 0.772261 51 0.772261C49.7697 0.772261 48.7723 1.76965 48.7723 3Z" fill="#C4C4C4"/>
<path d="M6 51C6 52.6569 4.65685 54 3 54C1.34315 54 0 52.6569 0 51C0 49.3431 1.34315 48 3 48C4.65685 48 6 49.3431 6 51ZM0.772261 51C0.772261 52.2303 1.76965 53.2277 3 53.2277C4.23035 53.2277 5.22774 52.2303 5.22774 51C5.22774 49.7697 4.23035 48.7723 3 48.7723C1.76965 48.7723 0.772261 49.7697 0.772261 51Z" fill="#C4C4C4"/>
<path d="M30 15C30 16.6569 28.6569 18 27 18C25.3431 18 24 16.6569 24 15C24 13.3431 25.3431 12 27 12C28.6569 12 30 13.3431 30 15ZM24.7723 15C24.7723 16.2303 25.7697 17.2277 27 17.2277C28.2303 17.2277 29.2277 16.2303 29.2277 15C29.2277 13.7697 28.2303 12.7723 27 12.7723C25.7697 12.7723 24.7723 13.7697 24.7723 15Z" fill="#C4C4C4"/>
<path d="M30 37C30 38.6569 28.6569 40 27 40C25.3431 40 24 38.6569 24 37C24 35.3431 25.3431 34 27 34C28.6569 34 30 35.3431 30 37ZM24.7723 37C24.7723 38.2303 25.7697 39.2277 27 39.2277C28.2303 39.2277 29.2277 38.2303 29.2277 37C29.2277 35.7697 28.2303 34.7723 27 34.7723C25.7697 34.7723 24.7723 35.7697 24.7723 37Z" fill="#C4C4C4"/>
<path d="M18 26C18 27.6569 16.6569 29 15 29C13.3431 29 12 27.6569 12 26C12 24.3431 13.3431 23 15 23C16.6569 23 18 24.3431 18 26ZM12.7723 26C12.7723 27.2303 13.7697 28.2277 15 28.2277C16.2303 28.2277 17.2277 27.2303 17.2277 26C17.2277 24.7697 16.2303 23.7723 15 23.7723C13.7697 23.7723 12.7723 24.7697 12.7723 26Z" fill="#C4C4C4"/>
<path d="M12 21C12 22.6569 10.6569 24 9 24C7.34315 24 6 22.6569 6 21C6 19.3431 7.34315 18 9 18C10.6569 18 12 19.3431 12 21ZM6.77226 21C6.77226 22.2303 7.76965 23.2277 9 23.2277C10.2303 23.2277 11.2277 22.2303 11.2277 21C11.2277 19.7697 10.2303 18.7723 9 18.7723C7.76965 18.7723 6.77226 19.7697 6.77226 21Z" fill="#C4C4C4"/>
<path d="M12 33C12 34.6569 10.6569 36 9 36C7.34315 36 6 34.6569 6 33C6 31.3431 7.34315 30 9 30C10.6569 30 12 31.3431 12 33ZM6.77226 33C6.77226 34.2303 7.76965 35.2277 9 35.2277C10.2303 35.2277 11.2277 34.2303 11.2277 33C11.2277 31.7697 10.2303 30.7723 9 30.7723C7.76965 30.7723 6.77226 31.7697 6.77226 33Z" fill="#C4C4C4"/>
<path d="M6 27C6 28.6569 4.65685 30 3 30C1.34315 30 0 28.6569 0 27C0 25.3431 1.34315 24 3 24C4.65685 24 6 25.3431 6 27ZM0.772261 27C0.772261 28.2303 1.76965 29.2277 3 29.2277C4.23035 29.2277 5.22774 28.2303 5.22774 27C5.22774 25.7697 4.23035 24.7723 3 24.7723C1.76965 24.7723 0.772261 25.7697 0.772261 27Z" fill="#C4C4C4"/>
<path d="M6 15C6 16.6569 4.65685 18 3 18C1.34315 18 0 16.6569 0 15C0 13.3431 1.34315 12 3 12C4.65685 12 6 13.3431 6 15ZM0.772261 15C0.772261 16.2303 1.76965 17.2277 3 17.2277C4.23035 17.2277 5.22774 16.2303 5.22774 15C5.22774 13.7697 4.23035 12.7723 3 12.7723C1.76965 12.7723 0.772261 13.7697 0.772261 15Z" fill="#C4C4C4"/>
<path d="M6 39C6 40.6569 4.65685 42 3 42C1.34315 42 0 40.6569 0 39C0 37.3431 1.34315 36 3 36C4.65685 36 6 37.3431 6 39ZM0.772261 39C0.772261 40.2303 1.76965 41.2277 3 41.2277C4.23035 41.2277 5.22774 40.2303 5.22774 39C5.22774 37.7697 4.23035 36.7723 3 36.7723C1.76965 36.7723 0.772261 37.7697 0.772261 39Z" fill="#C4C4C4"/>
<path d="M36 9C36 10.6569 34.6569 12 33 12C31.3431 12 30 10.6569 30 9C30 7.34315 31.3431 6 33 6C34.6569 6 36 7.34315 36 9ZM30.7723 9C30.7723 10.2303 31.7697 11.2277 33 11.2277C34.2303 11.2277 35.2277 10.2303 35.2277 9C35.2277 7.76965 34.2303 6.77226 33 6.77226C31.7697 6.77226 30.7723 7.76965 30.7723 9Z" fill="#C4C4C4"/>
<path d="M24 44C24 45.6569 22.6569 47 21 47C19.3431 47 18 45.6569 18 44C18 42.3431 19.3431 41 21 41C22.6569 41 24 42.3431 24 44ZM18.7723 44C18.7723 45.2303 19.7697 46.2277 21 46.2277C22.2303 46.2277 23.2277 45.2303 23.2277 44C23.2277 42.7697 22.2303 41.7723 21 41.7723C19.7697 41.7723 18.7723 42.7697 18.7723 44Z" fill="#C4C4C4"/>
<path d="M36 44C36 45.6569 34.6569 47 33 47C31.3431 47 30 45.6569 30 44C30 42.3431 31.3431 41 33 41C34.6569 41 36 42.3431 36 44ZM30.7723 44C30.7723 45.2303 31.7697 46.2277 33 46.2277C34.2303 46.2277 35.2277 45.2303 35.2277 44C35.2277 42.7697 34.2303 41.7723 33 41.7723C31.7697 41.7723 30.7723 42.7697 30.7723 44Z" fill="#C4C4C4"/>
<path d="M48 9C48 10.6569 46.6569 12 45 12C43.3431 12 42 10.6569 42 9C42 7.34315 43.3431 6 45 6C46.6569 6 48 7.34315 48 9ZM42.7723 9C42.7723 10.2303 43.7697 11.2277 45 11.2277C46.2303 11.2277 47.2277 10.2303 47.2277 9C47.2277 7.76965 46.2303 6.77226 45 6.77226C43.7697 6.77226 42.7723 7.76965 42.7723 9Z" fill="#C4C4C4"/>
<path d="M42 15C42 16.6569 40.6569 18 39 18C37.3431 18 36 16.6569 36 15C36 13.3431 37.3431 12 39 12C40.6569 12 42 13.3431 42 15ZM36.7723 15C36.7723 16.2303 37.7697 17.2277 39 17.2277C40.2303 17.2277 41.2277 16.2303 41.2277 15C41.2277 13.7697 40.2303 12.7723 39 12.7723C37.7697 12.7723 36.7723 13.7697 36.7723 15Z" fill="#C4C4C4"/>
<path d="M48 21C48 22.6569 46.6569 24 45 24C43.3431 24 42 22.6569 42 21C42 19.3431 43.3431 18 45 18C46.6569 18 48 19.3431 48 21ZM42.7723 21C42.7723 22.2303 43.7697 23.2277 45 23.2277C46.2303 23.2277 47.2277 22.2303 47.2277 21C47.2277 19.7697 46.2303 18.7723 45 18.7723C43.7697 18.7723 42.7723 19.7697 42.7723 21Z" fill="#C4C4C4"/>
<path d="M54 15C54 16.6569 52.6569 18 51 18C49.3431 18 48 16.6569 48 15C48 13.3431 49.3431 12 51 12C52.6569 12 54 13.3431 54 15ZM48.7723 15C48.7723 16.2303 49.7697 17.2277 51 17.2277C52.2303 17.2277 53.2277 16.2303 53.2277 15C53.2277 13.7697 52.2303 12.7723 51 12.7723C49.7697 12.7723 48.7723 13.7697 48.7723 15Z" fill="#C4C4C4"/>
<path d="M54 27C54 28.6569 52.6569 30 51 30C49.3431 30 48 28.6569 48 27C48 25.3431 49.3431 24 51 24C52.6569 24 54 25.3431 54 27ZM48.7723 27C48.7723 28.2303 49.7697 29.2277 51 29.2277C52.2303 29.2277 53.2277 28.2303 53.2277 27C53.2277 25.7697 52.2303 24.7723 51 24.7723C49.7697 24.7723 48.7723 25.7697 48.7723 27Z" fill="#C4C4C4"/>
<path d="M36 21C36 22.6569 34.6569 24 33 24C31.3431 24 30 22.6569 30 21C30 19.3431 31.3431 18 33 18C34.6569 18 36 19.3431 36 21ZM30.7723 21C30.7723 22.2303 31.7697 23.2277 33 23.2277C34.2303 23.2277 35.2277 22.2303 35.2277 21C35.2277 19.7697 34.2303 18.7723 33 18.7723C31.7697 18.7723 30.7723 19.7697 30.7723 21Z" fill="#C4C4C4"/>
<path d="M42 27C42 28.6569 40.6569 30 39 30C37.3431 30 36 28.6569 36 27C36 25.3431 37.3431 24 39 24C40.6569 24 42 25.3431 42 27ZM36.7723 27C36.7723 28.2303 37.7697 29.2277 39 29.2277C40.2303 29.2277 41.2277 28.2303 41.2277 27C41.2277 25.7697 40.2303 24.7723 39 24.7723C37.7697 24.7723 36.7723 25.7697 36.7723 27Z" fill="#C4C4C4"/>
<path d="M48 33C48 34.6569 46.6569 36 45 36C43.3431 36 42 34.6569 42 33C42 31.3431 43.3431 30 45 30C46.6569 30 48 31.3431 48 33ZM42.7723 33C42.7723 34.2303 43.7697 35.2277 45 35.2277C46.2303 35.2277 47.2277 34.2303 47.2277 33C47.2277 31.7697 46.2303 30.7723 45 30.7723C43.7697 30.7723 42.7723 31.7697 42.7723 33Z" fill="#C4C4C4"/>
<path d="M54 39C54 40.6569 52.6569 42 51 42C49.3431 42 48 40.6569 48 39C48 37.3431 49.3431 36 51 36C52.6569 36 54 37.3431 54 39ZM48.7723 39C48.7723 40.2303 49.7697 41.2277 51 41.2277C52.2303 41.2277 53.2277 40.2303 53.2277 39C53.2277 37.7697 52.2303 36.7723 51 36.7723C49.7697 36.7723 48.7723 37.7697 48.7723 39Z" fill="#C4C4C4"/>
<path d="M18 15C18 16.6569 16.6569 18 15 18C13.3431 18 12 16.6569 12 15C12 13.3431 13.3431 12 15 12C16.6569 12 18 13.3431 18 15ZM12.7723 15C12.7723 16.2303 13.7697 17.2277 15 17.2277C16.2303 17.2277 17.2277 16.2303 17.2277 15C17.2277 13.7697 16.2303 12.7723 15 12.7723C13.7697 12.7723 12.7723 13.7697 12.7723 15Z" fill="#C4C4C4"/>
<path d="M24 21C24 22.6569 22.6569 24 21 24C19.3431 24 18 22.6569 18 21C18 19.3431 19.3431 18 21 18C22.6569 18 24 19.3431 24 21ZM18.7723 21C18.7723 22.2303 19.7697 23.2277 21 23.2277C22.2303 23.2277 23.2277 22.2303 23.2277 21C23.2277 19.7697 22.2303 18.7723 21 18.7723C19.7697 18.7723 18.7723 19.7697 18.7723 21Z" fill="#C4C4C4"/>
<path d="M30 27C30 28.6569 28.6569 30 27 30C25.3431 30 24 28.6569 24 27C24 25.3431 25.3431 24 27 24C28.6569 24 30 25.3431 30 27ZM24.7723 27C24.7723 28.2303 25.7697 29.2277 27 29.2277C28.2303 29.2277 29.2277 28.2303 29.2277 27C29.2277 25.7697 28.2303 24.7723 27 24.7723C25.7697 24.7723 24.7723 25.7697 24.7723 27Z" fill="#C4C4C4"/>
<path d="M24 33C24 34.6569 22.6569 36 21 36C19.3431 36 18 34.6569 18 33C18 31.3431 19.3431 30 21 30C22.6569 30 24 31.3431 24 33ZM18.7723 33C18.7723 34.2303 19.7697 35.2277 21 35.2277C22.2303 35.2277 23.2277 34.2303 23.2277 33C23.2277 31.7697 22.2303 30.7723 21 30.7723C19.7697 30.7723 18.7723 31.7697 18.7723 33Z" fill="#C4C4C4"/>
<path d="M18 39C18 40.6569 16.6569 42 15 42C13.3431 42 12 40.6569 12 39C12 37.3431 13.3431 36 15 36C16.6569 36 18 37.3431 18 39ZM12.7723 39C12.7723 40.2303 13.7697 41.2277 15 41.2277C16.2303 41.2277 17.2277 40.2303 17.2277 39C17.2277 37.7697 16.2303 36.7723 15 36.7723C13.7697 36.7723 12.7723 37.7697 12.7723 39Z" fill="#C4C4C4"/>
<path d="M12 45C12 46.6569 10.6569 48 9 48C7.34315 48 6 46.6569 6 45C6 43.3431 7.34315 42 9 42C10.6569 42 12 43.3431 12 45ZM6.77226 45C6.77226 46.2303 7.76965 47.2277 9 47.2277C10.2303 47.2277 11.2277 46.2303 11.2277 45C11.2277 43.7697 10.2303 42.7723 9 42.7723C7.76965 42.7723 6.77226 43.7697 6.77226 45Z" fill="#C4C4C4"/>
<path d="M36 33C36 34.6569 34.6569 36 33 36C31.3431 36 30 34.6569 30 33C30 31.3431 31.3431 30 33 30C34.6569 30 36 31.3431 36 33ZM30.7723 33C30.7723 34.2303 31.7697 35.2277 33 35.2277C34.2303 35.2277 35.2277 34.2303 35.2277 33C35.2277 31.7697 34.2303 30.7723 33 30.7723C31.7697 30.7723 30.7723 31.7697 30.7723 33Z" fill="#C4C4C4"/>
<path d="M42 39C42 40.6569 40.6569 42 39 42C37.3431 42 36 40.6569 36 39C36 37.3431 37.3431 36 39 36C40.6569 36 42 37.3431 42 39ZM36.7723 39C36.7723 40.2303 37.7697 41.2277 39 41.2277C40.2303 41.2277 41.2277 40.2303 41.2277 39C41.2277 37.7697 40.2303 36.7723 39 36.7723C37.7697 36.7723 36.7723 37.7697 36.7723 39Z" fill="#C4C4C4"/>
<path d="M48 45C48 46.6569 46.6569 48 45 48C43.3431 48 42 46.6569 42 45C42 43.3431 43.3431 42 45 42C46.6569 42 48 43.3431 48 45ZM42.7723 45C42.7723 46.2303 43.7697 47.2277 45 47.2277C46.2303 47.2277 47.2277 46.2303 47.2277 45C47.2277 43.7697 46.2303 42.7723 45 42.7723C43.7697 42.7723 42.7723 43.7697 42.7723 45Z" fill="#C4C4C4"/>
<path d="M54 51C54 52.6569 52.6569 54 51 54C49.3431 54 48 52.6569 48 51C48 49.3431 49.3431 48 51 48C52.6569 48 54 49.3431 54 51ZM48.7723 51C48.7723 52.2303 49.7697 53.2277 51 53.2277C52.2303 53.2277 53.2277 52.2303 53.2277 51C53.2277 49.7697 52.2303 48.7723 51 48.7723C49.7697 48.7723 48.7723 49.7697 48.7723 51Z" fill="#C4C4C4"/>
</svg>
