<svg width="70" height="65" viewBox="0 0 70 65" fill="none" xmlns="http://www.w3.org/2000/svg">
<rect width="10" height="5" fill="#C4C4C4"/>
<rect x="10" y="5" width="10" height="5" fill="#C4C4C4"/>
<rect x="20" y="10" width="10" height="5" fill="#C4C4C4"/>
<rect x="30" y="15" width="10" height="5" fill="#C4C4C4"/>
<rect x="40" y="20" width="10" height="5" fill="#C4C4C4"/>
<rect x="50" y="25" width="10" height="5" fill="#C4C4C4"/>
<rect x="60" y="30" width="10" height="5" fill="#C4C4C4"/>
<rect y="10" width="10" height="5" fill="#C4C4C4"/>
<rect x="10" y="15" width="10" height="5" fill="#C4C4C4"/>
<rect x="20" y="20" width="10" height="5" fill="#C4C4C4"/>
<rect x="30" y="25" width="10" height="5" fill="#C4C4C4"/>
<rect x="40" y="30" width="10" height="5" fill="#C4C4C4"/>
<rect x="50" y="35" width="10" height="5" fill="#C4C4C4"/>
<rect x="60" y="40" width="10" height="5" fill="#C4C4C4"/>
<rect y="20" width="10" height="5" fill="#C4C4C4"/>
<rect x="10" y="25" width="10" height="5" fill="#C4C4C4"/>
<rect x="20" y="30" width="10" height="5" fill="#C4C4C4"/>
<rect x="30" y="35" width="10" height="5" fill="#C4C4C4"/>
<rect x="40" y="40" width="10" height="5" fill="#C4C4C4"/>
<rect x="50" y="45" width="10" height="5" fill="#C4C4C4"/>
<rect x="60" y="50" width="10" height="5" fill="#C4C4C4"/>
<rect y="30" width="10" height="5" fill="#C4C4C4"/>
<rect x="10" y="35" width="10" height="5" fill="#C4C4C4"/>
<rect x="20" y="40" width="10" height="5" fill="#C4C4C4"/>
<rect x="30" y="45" width="10" height="5" fill="#C4C4C4"/>
<rect x="40" y="50" width="10" height="5" fill="#C4C4C4"/>
<rect x="50" y="55" width="10" height="5" fill="#C4C4C4"/>
<rect x="60" y="60" width="10" height="5" fill="#C4C4C4"/>
<rect y="50" width="10" height="5" fill="#C4C4C4"/>
<rect x="10" y="55" width="10" height="5" fill="#C4C4C4"/>
<rect x="20" y="60" width="10" height="5" fill="#C4C4C4"/>
<rect y="60" width="10" height="5" fill="#C4C4C4"/>
<rect x="60" width="10" height="5" fill="#C4C4C4"/>
<rect x="40" width="10" height="5" fill="#C4C4C4"/>
<rect x="50" y="5" width="10" height="5" fill="#C4C4C4"/>
<rect x="60" y="10" width="10" height="5" fill="#C4C4C4"/>
<rect x="20" width="10" height="5" fill="#C4C4C4"/>
<rect x="30" y="5" width="10" height="5" fill="#C4C4C4"/>
<rect x="40" y="10" width="10" height="5" fill="#C4C4C4"/>
<rect x="50" y="15" width="10" height="5" fill="#C4C4C4"/>
<rect x="60" y="20" width="10" height="5" fill="#C4C4C4"/>
<rect y="40" width="10" height="5" fill="#C4C4C4"/>
<rect x="10" y="45" width="10" height="5" fill="#C4C4C4"/>
<rect x="20" y="50" width="10" height="5" fill="#C4C4C4"/>
<rect x="30" y="55" width="10" height="5" fill="#C4C4C4"/>
<rect x="40" y="60" width="10" height="5" fill="#C4C4C4"/>
</svg>
