<svg width="80" height="65" viewBox="0 0 80 65" fill="none" xmlns="http://www.w3.org/2000/svg">
<path d="M37.0059 31.3969L28.003 31.3969" stroke="#70591C"/>
<path d="M37.0059 35.3969L28.003 35.3969" stroke="#70591C"/>
<line x1="30.5059" y1="28.8971" x2="30.5059" y2="37.8971" stroke="#70591C"/>
<path d="M34.5059 28.8971V37.8971" stroke="#70591C"/>
<path d="M37.0059 45.3969L28.003 45.3969" stroke="#70591C"/>
<path d="M37.0059 49.3969L28.003 49.3969" stroke="#70591C"/>
<line x1="30.5059" y1="42.8971" x2="30.5059" y2="51.8971" stroke="#70591C"/>
<path d="M34.5059 42.8971V51.8971" stroke="#70591C"/>
<path d="M9.00594 31.3969L0.00296884 31.3969" stroke="#70591C"/>
<path d="M9.00594 35.3969L0.0029717 35.3969" stroke="#70591C"/>
<line x1="2.50594" y1="28.8971" x2="2.50594" y2="37.8971" stroke="#70591C"/>
<path d="M6.50594 28.8971L6.50594 37.8971" stroke="#70591C"/>
<path d="M9.00594 45.3969L0.00296884 45.3969" stroke="#70591C"/>
<path d="M9.00594 49.3969L0.0029717 49.3969" stroke="#70591C"/>
<line x1="2.50594" y1="42.8971" x2="2.50594" y2="51.8971" stroke="#70591C"/>
<path d="M6.50594 42.8971L6.50594 51.8971" stroke="#70591C"/>
<path d="M23.0059 45.3969L14.003 45.3969" stroke="#70591C"/>
<path d="M23.0059 49.3969L14.003 49.3969" stroke="#70591C"/>
<line x1="16.5059" y1="42.8971" x2="16.5059" y2="51.8971" stroke="#70591C"/>
<path d="M20.5059 42.8971V51.8971" stroke="#70591C"/>
<path d="M23.0059 31.3969L14.003 31.3969" stroke="#344048"/>
<path d="M23.0059 35.3969L14.003 35.3969" stroke="#344048"/>
<line x1="16.5059" y1="28.8971" x2="16.5059" y2="37.8971" stroke="#344048"/>
<path d="M20.5059 28.8971V37.8971" stroke="#344048"/>
<path d="M79.0059 31.3969L70.0029 31.3969" stroke="#344048"/>
<path d="M79.0059 35.3969L70.0029 35.3969" stroke="#344048"/>
<line x1="72.506" y1="28.8971" x2="72.506" y2="37.8971" stroke="#344048"/>
<path d="M76.506 28.8971V37.8971" stroke="#344048"/>
<path d="M79.0059 45.3969L70.0029 45.3969" stroke="#70591C"/>
<path d="M79.0059 49.3969L70.0029 49.3969" stroke="#70591C"/>
<line x1="72.506" y1="42.8971" x2="72.506" y2="51.8971" stroke="#70591C"/>
<path d="M76.506 42.8971V51.8971" stroke="#70591C"/>
<path d="M51.0059 31.3969L42.003 31.3969" stroke="#344048"/>
<path d="M51.0059 35.3969L42.003 35.3969" stroke="#344048"/>
<line x1="44.5059" y1="28.8971" x2="44.5059" y2="37.8971" stroke="#344048"/>
<path d="M48.5059 28.8971V37.8971" stroke="#344048"/>
<path d="M51.0059 45.3969L42.003 45.3969" stroke="#70591C"/>
<path d="M51.0059 49.3969L42.003 49.3969" stroke="#70591C"/>
<line x1="44.5059" y1="42.8971" x2="44.5059" y2="51.8971" stroke="#70591C"/>
<path d="M48.5059 42.8971V51.8971" stroke="#70591C"/>
<path d="M65.0059 45.3969L56.003 45.3969" stroke="#70591C"/>
<path d="M65.0059 49.3969L56.003 49.3969" stroke="#70591C"/>
<line x1="58.5059" y1="42.8971" x2="58.5059" y2="51.8971" stroke="#70591C"/>
<path d="M62.5059 42.8971V51.8971" stroke="#70591C"/>
<path d="M37.003 17.3969L28 17.3969" stroke="#70591C"/>
<path d="M37.003 21.3969L28 21.3969" stroke="#70591C"/>
<line x1="30.503" y1="14.8971" x2="30.503" y2="23.8971" stroke="#70591C"/>
<path d="M34.503 14.8971V23.8971" stroke="#70591C"/>
<path d="M9.00298 17.3969L4.81658e-06 17.3969" stroke="#70591C"/>
<path d="M9.00298 21.3969L7.67756e-06 21.3969" stroke="#70591C"/>
<line x1="2.50297" y1="14.8971" x2="2.50297" y2="23.8971" stroke="#70591C"/>
<path d="M6.50297 14.8971L6.50297 23.8971" stroke="#70591C"/>
<path d="M23.003 17.3969L14 17.3969" stroke="#70591C"/>
<path d="M23.003 21.3969L14 21.3969" stroke="#70591C"/>
<line x1="16.503" y1="14.8971" x2="16.503" y2="23.8971" stroke="#70591C"/>
<path d="M20.503 14.8971V23.8971" stroke="#70591C"/>
<path d="M79.0029 17.3969L70 17.3969" stroke="#70591C"/>
<path d="M79.0029 21.3969L70 21.3969" stroke="#70591C"/>
<line x1="72.503" y1="14.8971" x2="72.503" y2="23.8971" stroke="#70591C"/>
<path d="M76.503 14.8971V23.8971" stroke="#70591C"/>
<path d="M51.003 17.3969L42 17.3969" stroke="#70591C"/>
<path d="M51.003 21.3969L42 21.3969" stroke="#70591C"/>
<line x1="44.503" y1="14.8971" x2="44.503" y2="23.8971" stroke="#70591C"/>
<path d="M48.503 14.8971V23.8971" stroke="#70591C"/>
<path d="M65.003 17.3969L56 17.3969" stroke="#70591C"/>
<path d="M65.003 21.3969L56 21.3969" stroke="#70591C"/>
<line x1="58.503" y1="14.8971" x2="58.503" y2="23.8971" stroke="#70591C"/>
<path d="M62.503 14.8971V23.8971" stroke="#70591C"/>
<path d="M65.0059 31.3969L56.003 31.3969" stroke="#70591C"/>
<path d="M65.0059 35.3969L56.003 35.3969" stroke="#70591C"/>
<line x1="58.5059" y1="28.8971" x2="58.5059" y2="37.8971" stroke="#70591C"/>
<path d="M62.5059 28.8971V37.8971" stroke="#70591C"/>
<path d="M23.003 58.3969L14 58.3969" stroke="#70591C"/>
<path d="M23.003 62.3969L14 62.3969" stroke="#70591C"/>
<line x1="16.503" y1="55.8971" x2="16.503" y2="64.8971" stroke="#70591C"/>
<path d="M20.503 55.8971V64.8971" stroke="#70591C"/>
<path d="M79.003 58.3969L70 58.3969" stroke="#70591C"/>
<path d="M79.003 62.3969L70 62.3969" stroke="#70591C"/>
<line x1="72.503" y1="55.8971" x2="72.503" y2="64.8971" stroke="#70591C"/>
<path d="M76.503 55.8971V64.8971" stroke="#70591C"/>
<path d="M9.00297 58.3969L1.00189e-06 58.3969" stroke="#344048"/>
<path d="M9.00297 62.3969L3.86286e-06 62.3969" stroke="#344048"/>
<line x1="2.50297" y1="55.8971" x2="2.50297" y2="64.8971" stroke="#344048"/>
<path d="M6.50297 55.8971L6.50297 64.8971" stroke="#344048"/>
<path d="M65.003 58.3969L56 58.3969" stroke="#344048"/>
<path d="M65.003 62.3969L56 62.3969" stroke="#344048"/>
<line x1="58.503" y1="55.8971" x2="58.503" y2="64.8971" stroke="#344048"/>
<path d="M62.503 55.8971V64.8971" stroke="#344048"/>
<path d="M37.003 58.3969L28 58.3969" stroke="#344048"/>
<path d="M37.003 62.3969L28 62.3969" stroke="#344048"/>
<line x1="30.503" y1="55.8971" x2="30.503" y2="64.8971" stroke="#344048"/>
<path d="M34.503 55.8971V64.8971" stroke="#344048"/>
<path d="M51.003 58.3969L42 58.3969" stroke="#70591C"/>
<path d="M51.003 62.3969L42 62.3969" stroke="#70591C"/>
<line x1="44.503" y1="55.8971" x2="44.503" y2="64.8971" stroke="#70591C"/>
<path d="M48.503 55.8971V64.8971" stroke="#70591C"/>
<path d="M9.00298 3.39688L4.81658e-06 3.3969" stroke="#344048"/>
<path d="M9.00298 7.39692L7.67756e-06 7.3969" stroke="#344048"/>
<line x1="2.50297" y1="0.897125" x2="2.50297" y2="9.89713" stroke="#344048"/>
<path d="M6.50297 0.897125L6.50297 9.89713" stroke="#344048"/>
<path d="M37.003 3.39688L28 3.3969" stroke="#344048"/>
<path d="M37.003 7.39692L28 7.3969" stroke="#344048"/>
<line x1="30.503" y1="0.897125" x2="30.503" y2="9.89713" stroke="#344048"/>
<path d="M34.503 0.897125V9.89713" stroke="#344048"/>
<path d="M23.003 3.39688L14 3.3969" stroke="#70591C"/>
<path d="M23.003 7.39692L14 7.3969" stroke="#70591C"/>
<line x1="16.503" y1="0.897125" x2="16.503" y2="9.89713" stroke="#70591C"/>
<path d="M20.503 0.897125V9.89713" stroke="#70591C"/>
<path d="M51.003 3.39688L42 3.3969" stroke="#70591C"/>
<path d="M51.003 7.39692L42 7.3969" stroke="#70591C"/>
<line x1="44.503" y1="0.897125" x2="44.503" y2="9.89713" stroke="#70591C"/>
<path d="M48.503 0.897125V9.89713" stroke="#70591C"/>
<path d="M79.003 3.39688L70 3.3969" stroke="#70591C"/>
<path d="M79.003 7.39692L70 7.3969" stroke="#70591C"/>
<line x1="72.503" y1="0.897125" x2="72.503" y2="9.89713" stroke="#70591C"/>
<path d="M76.503 0.897125V9.89713" stroke="#70591C"/>
<path d="M65.003 3.39688L56 3.3969" stroke="#344048"/>
<path d="M65.003 7.39692L56 7.3969" stroke="#344048"/>
<line x1="58.503" y1="0.897125" x2="58.503" y2="9.89713" stroke="#344048"/>
<path d="M62.503 0.897125V9.89713" stroke="#344048"/>
</svg>
