<svg width="55" height="51" viewBox="0 0 55 51" fill="none" xmlns="http://www.w3.org/2000/svg">
<path d="M24.1193 12.3646C24.3979 12.6432 24.7286 12.8642 25.0925 13.0149C25.4565 13.1657 25.8466 13.2433 26.2406 13.2433C26.6346 13.2433 27.0247 13.1657 27.3886 13.0149C27.7526 12.8642 28.0833 12.6432 28.3619 12.3646C28.6405 12.086 28.8615 11.7553 29.0122 11.3913C29.163 11.0274 29.2406 10.6373 29.2406 10.2433C29.2406 9.84932 29.163 9.45921 29.0122 9.09524C28.8615 8.73126 28.6405 8.40054 28.3619 8.12197L26.2406 10.2433L24.1193 12.3646Z" fill="#C4C4C4"/>
<path d="M34.3654 2.12554C34.087 1.84678 33.7564 1.62558 33.3925 1.47457C33.0287 1.32356 32.6386 1.2457 32.2446 1.24543C31.8507 1.24517 31.4605 1.3225 31.0964 1.47302C30.7324 1.62354 30.4015 1.8443 30.1227 2.12268C29.844 2.40107 29.6228 2.73164 29.4718 3.09552C29.3207 3.45939 29.2429 3.84945 29.2426 4.24341C29.2424 4.63738 29.3197 5.02754 29.4702 5.39162C29.6207 5.75569 29.8415 6.08656 30.1199 6.36532L32.2426 4.24543L34.3654 2.12554Z" fill="#344048"/>
<path d="M46.3654 2.12554C46.087 1.84678 45.7564 1.62558 45.3925 1.47457C45.0287 1.32356 44.6386 1.2457 44.2446 1.24543C43.8507 1.24517 43.4605 1.3225 43.0964 1.47302C42.7324 1.62354 42.4015 1.8443 42.1227 2.12268C41.844 2.40107 41.6228 2.73164 41.4718 3.09552C41.3207 3.45939 41.2429 3.84945 41.2426 4.24341C41.2424 4.63738 41.3197 5.02754 41.4702 5.39162C41.6207 5.75569 41.8415 6.08656 42.1199 6.36532L44.2426 4.24543L46.3654 2.12554Z" fill="#344048"/>
<path d="M22.3654 2.12554C22.087 1.84678 21.7564 1.62558 21.3925 1.47457C21.0287 1.32356 20.6386 1.2457 20.2446 1.24543C19.8507 1.24517 19.4605 1.3225 19.0964 1.47302C18.7324 1.62354 18.4015 1.8443 18.1227 2.12268C17.844 2.40107 17.6228 2.73164 17.4718 3.09552C17.3207 3.45939 17.2429 3.84945 17.2426 4.24341C17.2424 4.63738 17.3197 5.02754 17.4702 5.39162C17.6207 5.75569 17.8415 6.08656 18.1199 6.36532L20.2426 4.24543L22.3654 2.12554Z" fill="#344048"/>
<path d="M10.3654 2.12554C10.087 1.84678 9.75641 1.62558 9.39254 1.47457C9.02866 1.32356 8.63861 1.2457 8.24464 1.24543C7.85068 1.24517 7.46052 1.3225 7.09644 1.47302C6.73236 1.62354 6.40149 1.8443 6.12273 2.12268C5.84397 2.40107 5.62277 2.73164 5.47176 3.09552C5.32075 3.45939 5.24289 3.84945 5.24262 4.24341C5.24236 4.63738 5.31969 5.02754 5.47021 5.39162C5.62073 5.75569 5.84148 6.08656 6.11987 6.36532L8.24262 4.24543L10.3654 2.12554Z" fill="#344048"/>
<path d="M0.12132 12.3667C0.399896 12.6453 0.730613 12.8662 1.09459 13.017C1.45857 13.1678 1.84867 13.2454 2.24264 13.2454C2.63661 13.2454 3.02671 13.1678 3.39069 13.017C3.75467 12.8662 4.08539 12.6453 4.36396 12.3667C4.64254 12.0881 4.86352 11.7574 5.01428 11.3934C5.16504 11.0294 5.24264 10.6393 5.24264 10.2454C5.24264 9.8514 5.16504 9.46129 5.01428 9.09731C4.86352 8.73333 4.64254 8.40262 4.36396 8.12404L2.24264 10.2454L0.12132 12.3667Z" fill="#C4C4C4"/>
<path d="M12.1213 12.3667C12.3999 12.6453 12.7306 12.8662 13.0946 13.017C13.4586 13.1678 13.8487 13.2454 14.2426 13.2454C14.6366 13.2454 15.0267 13.1678 15.3907 13.017C15.7547 12.8662 16.0854 12.6453 16.364 12.3667C16.6425 12.0881 16.8635 11.7574 17.0143 11.3934C17.165 11.0294 17.2426 10.6393 17.2426 10.2454C17.2426 9.8514 17.165 9.46129 17.0143 9.09731C16.8635 8.73333 16.6425 8.40262 16.364 8.12404L14.2426 10.2454L12.1213 12.3667Z" fill="#C4C4C4"/>
<path d="M48.1213 12.3668C48.3999 12.6454 48.7306 12.8664 49.0946 13.0171C49.4586 13.1679 49.8487 13.2455 50.2426 13.2455C50.6366 13.2455 51.0267 13.1679 51.3907 13.0171C51.7547 12.8664 52.0854 12.6454 52.364 12.3668C52.6425 12.0882 52.8635 11.7575 53.0143 11.3935C53.165 11.0296 53.2426 10.6394 53.2426 10.2455C53.2426 9.85152 53.165 9.46141 53.0143 9.09743C52.8635 8.73346 52.6425 8.40274 52.364 8.12416L50.2426 10.2455L48.1213 12.3668Z" fill="#C4C4C4"/>
<path d="M52.3654 8.12554C52.087 7.84678 51.7564 7.62558 51.3925 7.47457C51.0287 7.32356 50.6386 7.2457 50.2446 7.24543C49.8507 7.24517 49.4605 7.3225 49.0964 7.47302C48.7324 7.62354 48.4015 7.8443 48.1227 8.12268C47.844 8.40107 47.6228 8.73164 47.4718 9.09552C47.3207 9.45939 47.2429 9.84945 47.2426 10.2434C47.2424 10.6374 47.3197 11.0275 47.4702 11.3916C47.6207 11.7557 47.8415 12.0866 48.1199 12.3653L50.2426 10.2454L52.3654 8.12554Z" fill="#344048"/>
<path d="M36.1213 12.3667C36.3999 12.6453 36.7306 12.8662 37.0946 13.017C37.4586 13.1678 37.8487 13.2454 38.2426 13.2454C38.6366 13.2454 39.0267 13.1678 39.3907 13.017C39.7547 12.8662 40.0854 12.6453 40.364 12.3667C40.6425 12.0881 40.8635 11.7574 41.0143 11.3934C41.165 11.0294 41.2426 10.6393 41.2426 10.2454C41.2426 9.8514 41.165 9.46129 41.0143 9.09731C40.8635 8.73333 40.6425 8.40262 40.364 8.12404L38.2426 10.2454L36.1213 12.3667Z" fill="#C4C4C4"/>
<path d="M24.1193 12.3647C24.3979 12.6433 24.7286 12.8643 25.0925 13.015C25.4565 13.1658 25.8466 13.2434 26.2406 13.2434C26.6346 13.2434 27.0247 13.1658 27.3886 13.015C27.7526 12.8643 28.0833 12.6433 28.3619 12.3647C28.6405 12.0862 28.8615 11.7554 29.0122 11.3915C29.163 11.0275 29.2406 10.6374 29.2406 10.2434C29.2406 9.84944 29.163 9.45933 29.0122 9.09536C28.8615 8.73138 28.6405 8.40066 28.3619 8.12209L26.2406 10.2434L24.1193 12.3647Z" fill="#C4C4C4"/>
<path d="M12.1213 12.3667C12.3999 12.6453 12.7306 12.8662 13.0946 13.017C13.4586 13.1678 13.8487 13.2454 14.2426 13.2454C14.6366 13.2454 15.0267 13.1678 15.3907 13.017C15.7547 12.8662 16.0854 12.6453 16.364 12.3667C16.6425 12.0881 16.8635 11.7574 17.0143 11.3934C17.165 11.0294 17.2426 10.6393 17.2426 10.2454C17.2426 9.8514 17.165 9.46129 17.0143 9.09731C16.8635 8.73333 16.6425 8.40262 16.364 8.12404L14.2426 10.2454L12.1213 12.3667Z" fill="#C4C4C4"/>
<path d="M48.1213 12.3667C48.3999 12.6453 48.7306 12.8662 49.0946 13.017C49.4586 13.1678 49.8487 13.2454 50.2426 13.2454C50.6366 13.2454 51.0267 13.1678 51.3907 13.017C51.7547 12.8662 52.0854 12.6453 52.364 12.3667C52.6425 12.0881 52.8635 11.7574 53.0143 11.3934C53.165 11.0294 53.2426 10.6393 53.2426 10.2454C53.2426 9.8514 53.165 9.46129 53.0143 9.09731C52.8635 8.73333 52.6425 8.40262 52.364 8.12404L50.2426 10.2454L48.1213 12.3667Z" fill="#C4C4C4"/>
<path d="M24.3648 24.6102C24.6434 24.8888 24.9741 25.1098 25.3381 25.2605C25.702 25.4113 26.0922 25.4889 26.4861 25.4889C26.8801 25.4889 27.2702 25.4113 27.6342 25.2605C27.9981 25.1098 28.3289 24.8888 28.6074 24.6102C28.886 24.3316 29.107 24.0009 29.2578 23.6369C29.4085 23.273 29.4861 22.8829 29.4861 22.4889C29.4861 22.0949 29.4085 21.7048 29.2578 21.3408C29.107 20.9769 28.886 20.6461 28.6074 20.3676L26.4861 22.4889L24.3648 24.6102Z" fill="#C4C4C4"/>
<path d="M48.3648 24.6102C48.6434 24.8888 48.9741 25.1098 49.3381 25.2605C49.702 25.4113 50.0922 25.4889 50.4861 25.4889C50.8801 25.4889 51.2702 25.4113 51.6342 25.2605C51.9981 25.1098 52.3289 24.8888 52.6074 24.6102C52.886 24.3316 53.107 24.0009 53.2578 23.6369C53.4085 23.273 53.4861 22.8829 53.4861 22.4889C53.4861 22.0949 53.4085 21.7048 53.2578 21.3408C53.107 20.9769 52.886 20.6461 52.6074 20.3676L50.4861 22.4889L48.3648 24.6102Z" fill="#C4C4C4"/>
<path d="M0.364797 24.6102C0.643373 24.8888 0.97409 25.1098 1.33807 25.2605C1.70204 25.4113 2.09215 25.4889 2.48612 25.4889C2.88008 25.4889 3.27019 25.4113 3.63417 25.2605C3.99814 25.1098 4.32886 24.8888 4.60744 24.6102C4.88601 24.3316 5.10699 24.0009 5.25776 23.6369C5.40852 23.273 5.48612 22.8829 5.48612 22.4889C5.48612 22.0949 5.40852 21.7048 5.25776 21.3408C5.10699 20.9769 4.88601 20.6461 4.60744 20.3676L2.48612 22.4889L0.364797 24.6102Z" fill="#C4C4C4"/>
<path d="M36.3648 24.6102C36.6434 24.8888 36.9741 25.1098 37.3381 25.2605C37.702 25.4113 38.0922 25.4889 38.4861 25.4889C38.8801 25.4889 39.2702 25.4113 39.6342 25.2605C39.9981 25.1098 40.3289 24.8888 40.6074 24.6102C40.886 24.3316 41.107 24.0009 41.2578 23.6369C41.4085 23.273 41.4861 22.8829 41.4861 22.4889C41.4861 22.0949 41.4085 21.7048 41.2578 21.3408C41.107 20.9769 40.886 20.6461 40.6074 20.3676L38.4861 22.4889L36.3648 24.6102Z" fill="#C4C4C4"/>
<path d="M12.3648 24.6102C12.6434 24.8888 12.9741 25.1098 13.3381 25.2605C13.702 25.4113 14.0922 25.4889 14.4861 25.4889C14.8801 25.4889 15.2702 25.4113 15.6342 25.2605C15.9981 25.1098 16.3289 24.8888 16.6074 24.6102C16.886 24.3316 17.107 24.0009 17.2578 23.6369C17.4085 23.273 17.4861 22.8829 17.4861 22.4889C17.4861 22.0949 17.4085 21.7048 17.2578 21.3408C17.107 20.9769 16.886 20.6461 16.6074 20.3676L14.4861 22.4889L12.3648 24.6102Z" fill="#C4C4C4"/>
<path d="M22.6088 26.369C22.3305 26.0902 21.9999 25.869 21.636 25.718C21.2721 25.567 20.8821 25.4891 20.4881 25.4888C20.0942 25.4886 19.704 25.5659 19.3399 25.7164C18.9758 25.8669 18.645 26.0877 18.3662 26.3661C18.0874 26.6445 17.8662 26.975 17.7152 27.3389C17.5642 27.7028 17.4864 28.0929 17.4861 28.4868C17.4858 28.8808 17.5632 29.2709 17.7137 29.635C17.8642 29.9991 18.085 30.33 18.3633 30.6087L20.4861 28.4888L22.6088 26.369Z" fill="#344048"/>
<path d="M46.6088 26.369C46.3305 26.0902 45.9999 25.869 45.636 25.718C45.2721 25.567 44.8821 25.4891 44.4881 25.4888C44.0942 25.4886 43.704 25.5659 43.3399 25.7164C42.9758 25.8669 42.645 26.0877 42.3662 26.3661C42.0874 26.6445 41.8662 26.975 41.7152 27.3389C41.5642 27.7028 41.4864 28.0929 41.4861 28.4868C41.4858 28.8808 41.5632 29.2709 41.7137 29.635C41.8642 29.9991 42.085 30.33 42.3633 30.6087L44.4861 28.4888L46.6088 26.369Z" fill="#344048"/>
<path d="M34.6088 26.369C34.3305 26.0902 33.9999 25.869 33.636 25.718C33.2721 25.567 32.8821 25.4891 32.4881 25.4888C32.0942 25.4886 31.704 25.5659 31.3399 25.7164C30.9758 25.8669 30.645 26.0877 30.3662 26.3661C30.0874 26.6445 29.8662 26.975 29.7152 27.3389C29.5642 27.7028 29.4864 28.0929 29.4861 28.4868C29.4858 28.8808 29.5632 29.2709 29.7137 29.635C29.8642 29.9991 30.085 30.33 30.3633 30.6087L32.4861 28.4888L34.6088 26.369Z" fill="#344048"/>
<path d="M10.6088 26.369C10.3305 26.0902 9.99989 25.869 9.63601 25.718C9.27214 25.567 8.88208 25.4891 8.48812 25.4888C8.09415 25.4886 7.70399 25.5659 7.33991 25.7164C6.97584 25.8669 6.64497 26.0877 6.36621 26.3661C6.08744 26.6445 5.86624 26.975 5.71523 27.3389C5.56422 27.7028 5.48636 28.0929 5.4861 28.4868C5.48583 28.8808 5.56317 29.2709 5.71369 29.635C5.8642 29.9991 6.08496 30.33 6.36335 30.6087L8.4861 28.4888L10.6088 26.369Z" fill="#344048"/>
<path d="M24.3648 36.6102C24.6434 36.8888 24.9741 37.1098 25.3381 37.2605C25.702 37.4113 26.0922 37.4889 26.4861 37.4889C26.8801 37.4889 27.2702 37.4113 27.6342 37.2605C27.9981 37.1098 28.3289 36.8888 28.6074 36.6102C28.886 36.3316 29.107 36.0009 29.2578 35.6369C29.4085 35.273 29.4861 34.8829 29.4861 34.4889C29.4861 34.0949 29.4085 33.7048 29.2578 33.3408C29.107 32.9769 28.886 32.6461 28.6074 32.3676L26.4861 34.4889L24.3648 36.6102Z" fill="#C4C4C4"/>
<path d="M48.3648 36.6102C48.6434 36.8888 48.9741 37.1098 49.3381 37.2605C49.702 37.4113 50.0922 37.4889 50.4861 37.4889C50.8801 37.4889 51.2702 37.4113 51.6342 37.2605C51.9981 37.1098 52.3289 36.8888 52.6074 36.6102C52.886 36.3316 53.107 36.0009 53.2578 35.6369C53.4085 35.273 53.4861 34.8829 53.4861 34.4889C53.4861 34.0949 53.4085 33.7048 53.2578 33.3408C53.107 32.9769 52.886 32.6461 52.6074 32.3676L50.4861 34.4889L48.3648 36.6102Z" fill="#C4C4C4"/>
<path d="M0.364797 36.6102C0.643373 36.8888 0.97409 37.1098 1.33807 37.2605C1.70204 37.4113 2.09215 37.4889 2.48612 37.4889C2.88008 37.4889 3.27019 37.4113 3.63417 37.2605C3.99814 37.1098 4.32886 36.8888 4.60744 36.6102C4.88601 36.3316 5.10699 36.0009 5.25776 35.6369C5.40852 35.273 5.48612 34.8829 5.48612 34.4889C5.48612 34.0949 5.40852 33.7048 5.25776 33.3408C5.10699 32.9769 4.88601 32.6461 4.60744 32.3676L2.48612 34.4889L0.364797 36.6102Z" fill="#C4C4C4"/>
<path d="M36.3648 36.6102C36.6434 36.8888 36.9741 37.1098 37.3381 37.2605C37.702 37.4113 38.0922 37.4889 38.4861 37.4889C38.8801 37.4889 39.2702 37.4113 39.6342 37.2605C39.9981 37.1098 40.3289 36.8888 40.6074 36.6102C40.886 36.3316 41.107 36.0009 41.2578 35.6369C41.4085 35.273 41.4861 34.8829 41.4861 34.4889C41.4861 34.0949 41.4085 33.7048 41.2578 33.3408C41.107 32.9769 40.886 32.6461 40.6074 32.3676L38.4861 34.4889L36.3648 36.6102Z" fill="#C4C4C4"/>
<path d="M12.3648 36.6102C12.6434 36.8888 12.9741 37.1098 13.3381 37.2605C13.702 37.4113 14.0922 37.4889 14.4861 37.4889C14.8801 37.4889 15.2702 37.4113 15.6342 37.2605C15.9981 37.1098 16.3289 36.8888 16.6074 36.6102C16.886 36.3316 17.107 36.0009 17.2578 35.6369C17.4085 35.273 17.4861 34.8829 17.4861 34.4889C17.4861 34.0949 17.4085 33.7048 17.2578 33.3408C17.107 32.9769 16.886 32.6461 16.6074 32.3676L14.4861 34.4889L12.3648 36.6102Z" fill="#C4C4C4"/>
<path d="M24.3648 48.6102C24.6434 48.8888 24.9741 49.1098 25.3381 49.2605C25.702 49.4113 26.0922 49.4889 26.4861 49.4889C26.8801 49.4889 27.2702 49.4113 27.6342 49.2605C27.9981 49.1098 28.3289 48.8888 28.6074 48.6102C28.886 48.3316 29.107 48.0009 29.2578 47.6369C29.4085 47.273 29.4861 46.8829 29.4861 46.4889C29.4861 46.0949 29.4085 45.7048 29.2578 45.3408C29.107 44.9769 28.886 44.6461 28.6074 44.3676L26.4861 46.4889L24.3648 48.6102Z" fill="#C4C4C4"/>
<path d="M48.3648 48.6102C48.6434 48.8888 48.9741 49.1098 49.3381 49.2605C49.702 49.4113 50.0922 49.4889 50.4861 49.4889C50.8801 49.4889 51.2702 49.4113 51.6342 49.2605C51.9981 49.1098 52.3289 48.8888 52.6074 48.6102C52.886 48.3316 53.107 48.0009 53.2578 47.6369C53.4085 47.273 53.4861 46.8829 53.4861 46.4889C53.4861 46.0949 53.4085 45.7048 53.2578 45.3408C53.107 44.9769 52.886 44.6461 52.6074 44.3676L50.4861 46.4889L48.3648 48.6102Z" fill="#C4C4C4"/>
<path d="M0.364797 48.6102C0.643373 48.8888 0.97409 49.1098 1.33807 49.2605C1.70204 49.4113 2.09215 49.4889 2.48612 49.4889C2.88008 49.4889 3.27019 49.4113 3.63417 49.2605C3.99814 49.1098 4.32886 48.8888 4.60744 48.6102C4.88601 48.3316 5.10699 48.0009 5.25776 47.6369C5.40852 47.273 5.48612 46.8829 5.48612 46.4889C5.48612 46.0949 5.40852 45.7048 5.25776 45.3408C5.10699 44.9769 4.88601 44.6461 4.60744 44.3676L2.48612 46.4889L0.364797 48.6102Z" fill="#C4C4C4"/>
<path d="M36.3648 48.6102C36.6434 48.8888 36.9741 49.1098 37.3381 49.2605C37.702 49.4113 38.0922 49.4889 38.4861 49.4889C38.8801 49.4889 39.2702 49.4113 39.6342 49.2605C39.9981 49.1098 40.3289 48.8888 40.6074 48.6102C40.886 48.3316 41.107 48.0009 41.2578 47.6369C41.4085 47.273 41.4861 46.8829 41.4861 46.4889C41.4861 46.0949 41.4085 45.7048 41.2578 45.3408C41.107 44.9769 40.886 44.6461 40.6074 44.3676L38.4861 46.4889L36.3648 48.6102Z" fill="#C4C4C4"/>
<path d="M12.3648 48.6102C12.6434 48.8888 12.9741 49.1098 13.3381 49.2605C13.702 49.4113 14.0922 49.4889 14.4861 49.4889C14.8801 49.4889 15.2702 49.4113 15.6342 49.2605C15.9981 49.1098 16.3289 48.8888 16.6074 48.6102C16.886 48.3316 17.107 48.0009 17.2578 47.6369C17.4085 47.273 17.4861 46.8829 17.4861 46.4889C17.4861 46.0949 17.4085 45.7048 17.2578 45.3408C17.107 44.9769 16.886 44.6461 16.6074 44.3676L14.4861 46.4889L12.3648 48.6102Z" fill="#C4C4C4"/>
<path d="M22.6088 38.369C22.3305 38.0902 21.9999 37.869 21.636 37.718C21.2721 37.567 20.8821 37.4891 20.4881 37.4888C20.0942 37.4886 19.704 37.5659 19.3399 37.7164C18.9758 37.8669 18.645 38.0877 18.3662 38.3661C18.0874 38.6445 17.8662 38.975 17.7152 39.3389C17.5642 39.7028 17.4864 40.0929 17.4861 40.4868C17.4858 40.8808 17.5632 41.2709 17.7137 41.635C17.8642 41.9991 18.085 42.33 18.3633 42.6087L20.4861 40.4888L22.6088 38.369Z" fill="#344048"/>
<path d="M46.6088 38.369C46.3305 38.0902 45.9999 37.869 45.636 37.718C45.2721 37.567 44.8821 37.4891 44.4881 37.4888C44.0942 37.4886 43.704 37.5659 43.3399 37.7164C42.9758 37.8669 42.645 38.0877 42.3662 38.3661C42.0874 38.6445 41.8662 38.975 41.7152 39.3389C41.5642 39.7028 41.4864 40.0929 41.4861 40.4868C41.4858 40.8808 41.5632 41.2709 41.7137 41.635C41.8642 41.9991 42.085 42.33 42.3633 42.6087L44.4861 40.4888L46.6088 38.369Z" fill="#344048"/>
<path d="M34.6088 38.369C34.3305 38.0902 33.9999 37.869 33.636 37.718C33.2721 37.567 32.8821 37.4891 32.4881 37.4888C32.0942 37.4886 31.704 37.5659 31.3399 37.7164C30.9758 37.8669 30.645 38.0877 30.3662 38.3661C30.0874 38.6445 29.8662 38.975 29.7152 39.3389C29.5642 39.7028 29.4864 40.0929 29.4861 40.4868C29.4858 40.8808 29.5632 41.2709 29.7137 41.635C29.8642 41.9991 30.085 42.33 30.3633 42.6087L32.4861 40.4888L34.6088 38.369Z" fill="#344048"/>
<path d="M10.6088 38.369C10.3305 38.0902 9.99989 37.869 9.63601 37.718C9.27214 37.567 8.88208 37.4891 8.48812 37.4888C8.09415 37.4886 7.70399 37.5659 7.33991 37.7164C6.97584 37.8669 6.64497 38.0877 6.36621 38.3661C6.08744 38.6445 5.86624 38.975 5.71523 39.3389C5.56422 39.7028 5.48636 40.0929 5.4861 40.4868C5.48583 40.8808 5.56317 41.2709 5.71369 41.635C5.8642 41.9991 6.08496 42.33 6.36335 42.6087L8.4861 40.4888L10.6088 38.369Z" fill="#344048"/>
<path d="M22.3654 14.1255C22.087 13.8468 21.7564 13.6256 21.3925 13.4746C21.0287 13.3236 20.6386 13.2457 20.2446 13.2454C19.8507 13.2452 19.4605 13.3225 19.0964 13.473C18.7324 13.6235 18.4015 13.8443 18.1227 14.1227C17.844 14.4011 17.6228 14.7316 17.4718 15.0955C17.3207 15.4594 17.2429 15.8494 17.2426 16.2434C17.2424 16.6374 17.3197 17.0275 17.4702 17.3916C17.6207 17.7557 17.8415 18.0866 18.1199 18.3653L20.2426 16.2454L22.3654 14.1255Z" fill="#344048"/>
<path d="M46.3654 14.1255C46.087 13.8468 45.7564 13.6256 45.3925 13.4746C45.0287 13.3236 44.6386 13.2457 44.2446 13.2454C43.8507 13.2452 43.4605 13.3225 43.0964 13.473C42.7324 13.6235 42.4015 13.8443 42.1227 14.1227C41.844 14.4011 41.6228 14.7316 41.4718 15.0955C41.3207 15.4594 41.2429 15.8494 41.2426 16.2434C41.2424 16.6374 41.3197 17.0275 41.4702 17.3916C41.6207 17.7557 41.8415 18.0866 42.1199 18.3653L44.2426 16.2454L46.3654 14.1255Z" fill="#344048"/>
<path d="M34.3654 14.1255C34.087 13.8468 33.7564 13.6256 33.3925 13.4746C33.0287 13.3236 32.6386 13.2457 32.2446 13.2454C31.8507 13.2452 31.4605 13.3225 31.0964 13.473C30.7324 13.6235 30.4015 13.8443 30.1227 14.1227C29.844 14.4011 29.6228 14.7316 29.4718 15.0955C29.3207 15.4594 29.2429 15.8494 29.2426 16.2434C29.2424 16.6374 29.3197 17.0275 29.4702 17.3916C29.6207 17.7557 29.8415 18.0866 30.1199 18.3653L32.2426 16.2454L34.3654 14.1255Z" fill="#344048"/>
<path d="M10.3654 14.1255C10.087 13.8468 9.75641 13.6256 9.39254 13.4746C9.02866 13.3236 8.63861 13.2457 8.24464 13.2454C7.85068 13.2452 7.46052 13.3225 7.09644 13.473C6.73236 13.6235 6.40149 13.8443 6.12273 14.1227C5.84397 14.4011 5.62277 14.7316 5.47176 15.0955C5.32075 15.4594 5.24289 15.8494 5.24262 16.2434C5.24236 16.6374 5.31969 17.0275 5.47021 17.3916C5.62073 17.7557 5.84148 18.0866 6.11987 18.3653L8.24262 16.2454L10.3654 14.1255Z" fill="#344048"/>
</svg>
