<svg width="55" height="55" viewBox="0 0 55 55" fill="none" xmlns="http://www.w3.org/2000/svg">
<path d="M24 15C24 15.394 24.0776 15.7841 24.2284 16.1481C24.3791 16.512 24.6001 16.8427 24.8787 17.1213C25.1573 17.3999 25.488 17.6209 25.8519 17.7716C26.2159 17.9224 26.606 18 27 18C27.394 18 27.7841 17.9224 28.1481 17.7716C28.512 17.6209 28.8427 17.3999 29.1213 17.1213C29.3999 16.8427 29.6209 16.512 29.7716 16.1481C29.9224 15.7841 30 15.394 30 15H27L24 15Z" fill="#C4C4C4"/>
<path d="M30 15.002C30.0002 14.608 29.9229 14.2179 29.7724 13.8538C29.6219 13.4897 29.4011 13.1589 29.1227 12.8801C28.8443 12.6013 28.5138 12.3801 28.1499 12.2291C27.786 12.0781 27.396 12.0003 27.002 12C26.608 11.9997 26.2179 12.0771 25.8538 12.2276C25.4897 12.3781 25.1588 12.5989 24.8801 12.8772C24.6013 13.1556 24.3801 13.4862 24.2291 13.8501C24.0781 14.214 24.0002 14.604 24 14.998L27 15L30 15.002Z" fill="#344048"/>
<path d="M30.002 9.00201C30.002 9.39598 30.0796 9.78609 30.2304 10.1501C30.3812 10.514 30.6021 10.8448 30.8807 11.1233C31.1593 11.4019 31.49 11.6229 31.854 11.7737C32.218 11.9244 32.6081 12.002 33.002 12.002C33.396 12.002 33.7861 11.9244 34.1501 11.7737C34.5141 11.6229 34.8448 11.4019 35.1234 11.1233C35.4019 10.8448 35.6229 10.514 35.7737 10.1501C35.9244 9.78609 36.002 9.39598 36.002 9.00201H33.002L30.002 9.00201Z" fill="#C4C4C4"/>
<path d="M36.002 9.00403C36.0023 8.61006 35.925 8.2199 35.7744 7.85583C35.6239 7.49175 35.4032 7.16088 35.1248 6.88212C34.8464 6.60335 34.5158 6.38215 34.1519 6.23114C33.7881 6.08013 33.398 6.00227 33.004 6.00201C32.6101 6.00174 32.2199 6.07908 31.8558 6.2296C31.4918 6.38012 31.1609 6.60087 30.8821 6.87926C30.6034 7.15765 30.3822 7.48822 30.2312 7.85209C30.0801 8.21597 30.0023 8.60602 30.002 8.99999L33.002 9.00201L36.002 9.00403Z" fill="#344048"/>
<path d="M42.002 9.00201C42.002 9.39598 42.0796 9.78609 42.2304 10.1501C42.3812 10.514 42.6021 10.8448 42.8807 11.1233C43.1593 11.4019 43.49 11.6229 43.854 11.7737C44.218 11.9244 44.6081 12.002 45.002 12.002C45.396 12.002 45.7861 11.9244 46.1501 11.7737C46.5141 11.6229 46.8448 11.4019 47.1234 11.1233C47.4019 10.8448 47.6229 10.514 47.7737 10.1501C47.9244 9.78609 48.002 9.39598 48.002 9.00201H45.002L42.002 9.00201Z" fill="#C4C4C4"/>
<path d="M48.002 9.00403C48.0023 8.61006 47.925 8.2199 47.7744 7.85583C47.6239 7.49175 47.4032 7.16088 47.1248 6.88212C46.8464 6.60335 46.5158 6.38215 46.1519 6.23114C45.7881 6.08013 45.398 6.00227 45.004 6.00201C44.6101 6.00174 44.2199 6.07908 43.8558 6.2296C43.4918 6.38012 43.1609 6.60087 42.8821 6.87926C42.6034 7.15765 42.3822 7.48822 42.2312 7.85209C42.0801 8.21597 42.0023 8.60602 42.002 8.99999L45.002 9.00201L48.002 9.00403Z" fill="#344048"/>
<path d="M18.002 9.00201C18.002 9.39598 18.0796 9.78609 18.2304 10.1501C18.3812 10.514 18.6021 10.8448 18.8807 11.1233C19.1593 11.4019 19.49 11.6229 19.854 11.7737C20.218 11.9244 20.6081 12.002 21.002 12.002C21.396 12.002 21.7861 11.9244 22.1501 11.7737C22.5141 11.6229 22.8448 11.4019 23.1234 11.1233C23.4019 10.8448 23.6229 10.514 23.7737 10.1501C23.9244 9.78609 24.002 9.39598 24.002 9.00201H21.002L18.002 9.00201Z" fill="#C4C4C4"/>
<path d="M24.002 9.00403C24.0023 8.61006 23.925 8.2199 23.7744 7.85583C23.6239 7.49175 23.4032 7.16088 23.1248 6.88212C22.8464 6.60335 22.5158 6.38215 22.1519 6.23114C21.7881 6.08013 21.398 6.00227 21.004 6.00201C20.6101 6.00174 20.2199 6.07908 19.8558 6.2296C19.4918 6.38012 19.1609 6.60087 18.8821 6.87926C18.6034 7.15765 18.3822 7.48822 18.2312 7.85209C18.0801 8.21597 18.0023 8.60602 18.002 8.99999L21.002 9.00201L24.002 9.00403Z" fill="#344048"/>
<path d="M6.00204 9.00201C6.00204 9.39598 6.07964 9.78609 6.23041 10.1501C6.38117 10.514 6.60215 10.8448 6.88072 11.1233C7.1593 11.4019 7.49002 11.6229 7.85399 11.7737C8.21797 11.9244 8.60808 12.002 9.00204 12.002C9.39601 12.002 9.78612 11.9244 10.1501 11.7737C10.5141 11.6229 10.8448 11.4019 11.1234 11.1233C11.4019 10.8448 11.6229 10.514 11.7737 10.1501C11.9244 9.78609 12.002 9.39598 12.002 9.00201H9.00204L6.00204 9.00201Z" fill="#C4C4C4"/>
<path d="M12.002 9.00403C12.0023 8.61006 11.925 8.2199 11.7744 7.85583C11.6239 7.49175 11.4032 7.16088 11.1248 6.88212C10.8464 6.60335 10.5158 6.38215 10.1519 6.23114C9.78806 6.08013 9.39801 6.00227 9.00404 6.00201C8.61008 6.00174 8.21992 6.07908 7.85584 6.2296C7.49176 6.38012 7.16089 6.60087 6.88213 6.87926C6.60337 7.15765 6.38217 7.48822 6.23116 7.85209C6.08015 8.21597 6.00229 8.60602 6.00202 8.99999L9.00202 9.00201L12.002 9.00403Z" fill="#344048"/>
<path d="M0.00204468 15.002C0.00204464 15.396 0.0796419 15.7861 0.230406 16.1501C0.38117 16.514 0.602148 16.8448 0.880724 17.1233C1.1593 17.4019 1.49002 17.6229 1.85399 17.7737C2.21797 17.9244 2.60808 18.002 3.00204 18.002C3.39601 18.002 3.78612 17.9244 4.15009 17.7737C4.51407 17.6229 4.84479 17.4019 5.12336 17.1233C5.40194 16.8448 5.62292 16.514 5.77368 16.1501C5.92445 15.7861 6.00204 15.396 6.00204 15.002H3.00204L0.00204468 15.002Z" fill="#C4C4C4"/>
<path d="M6.00202 15.004C6.00229 14.6101 5.92495 14.2199 5.77443 13.8558C5.62391 13.4917 5.40316 13.1609 5.12477 12.8821C4.84638 12.6034 4.51581 12.3822 4.15194 12.2311C3.78806 12.0801 3.39801 12.0023 3.00404 12.002C2.61008 12.0017 2.21992 12.0791 1.85584 12.2296C1.49176 12.3801 1.16089 12.6009 0.882131 12.8793C0.603368 13.1576 0.382166 13.4882 0.231157 13.8521C0.0801479 14.216 0.00228782 14.606 0.00202242 15L3.00202 15.002L6.00202 15.004Z" fill="#344048"/>
<path d="M6.00204 9.00201C6.00204 9.39598 6.07964 9.78609 6.23041 10.1501C6.38117 10.514 6.60215 10.8448 6.88072 11.1233C7.1593 11.4019 7.49002 11.6229 7.85399 11.7737C8.21797 11.9244 8.60808 12.002 9.00204 12.002C9.39601 12.002 9.78612 11.9244 10.1501 11.7737C10.5141 11.6229 10.8448 11.4019 11.1234 11.1233C11.4019 10.8448 11.6229 10.514 11.7737 10.1501C11.9244 9.78609 12.002 9.39598 12.002 9.00201H9.00204L6.00204 9.00201Z" fill="#C4C4C4"/>
<path d="M12.002 9.00403C12.0023 8.61006 11.925 8.2199 11.7744 7.85583C11.6239 7.49175 11.4032 7.16088 11.1248 6.88212C10.8464 6.60335 10.5158 6.38215 10.1519 6.23114C9.78806 6.08013 9.39801 6.00227 9.00404 6.00201C8.61008 6.00174 8.21992 6.07908 7.85584 6.2296C7.49176 6.38012 7.16089 6.60087 6.88213 6.87926C6.60337 7.15765 6.38217 7.48822 6.23116 7.85209C6.08015 8.21597 6.00229 8.60602 6.00202 8.99999L9.00202 9.00201L12.002 9.00403Z" fill="#344048"/>
<path d="M12.002 15.002C12.002 15.396 12.0796 15.7861 12.2304 16.1501C12.3812 16.514 12.6021 16.8448 12.8807 17.1233C13.1593 17.4019 13.49 17.6229 13.854 17.7737C14.218 17.9244 14.6081 18.002 15.002 18.002C15.396 18.002 15.7861 17.9244 16.1501 17.7737C16.5141 17.6229 16.8448 17.4019 17.1234 17.1233C17.4019 16.8448 17.6229 16.514 17.7737 16.1501C17.9244 15.7861 18.002 15.396 18.002 15.002H15.002L12.002 15.002Z" fill="#C4C4C4"/>
<path d="M18.002 15.004C18.0023 14.6101 17.925 14.2199 17.7744 13.8558C17.6239 13.4917 17.4032 13.1609 17.1248 12.8821C16.8464 12.6034 16.5158 12.3822 16.1519 12.2311C15.7881 12.0801 15.398 12.0023 15.004 12.002C14.6101 12.0017 14.2199 12.0791 13.8558 12.2296C13.4918 12.3801 13.1609 12.6009 12.8821 12.8793C12.6034 13.1576 12.3822 13.4882 12.2312 13.8521C12.0801 14.216 12.0023 14.606 12.002 15L15.002 15.002L18.002 15.004Z" fill="#344048"/>
<path d="M48.002 15.002C48.002 15.396 48.0796 15.7861 48.2304 16.1501C48.3812 16.514 48.6021 16.8448 48.8807 17.1233C49.1593 17.4019 49.49 17.6229 49.854 17.7737C50.218 17.9244 50.6081 18.002 51.002 18.002C51.396 18.002 51.7861 17.9244 52.1501 17.7737C52.5141 17.6229 52.8448 17.4019 53.1234 17.1233C53.4019 16.8448 53.6229 16.514 53.7737 16.1501C53.9244 15.7861 54.002 15.396 54.002 15.002H51.002L48.002 15.002Z" fill="#C4C4C4"/>
<path d="M54.002 15.004C54.0023 14.6101 53.925 14.2199 53.7744 13.8558C53.6239 13.4917 53.4032 13.1609 53.1248 12.8821C52.8464 12.6034 52.5158 12.3822 52.1519 12.2311C51.7881 12.0801 51.398 12.0023 51.004 12.002C50.6101 12.0017 50.2199 12.0791 49.8558 12.2296C49.4918 12.3801 49.1609 12.6009 48.8821 12.8793C48.6034 13.1576 48.3822 13.4882 48.2312 13.8521C48.0801 14.216 48.0023 14.606 48.002 15L51.002 15.002L54.002 15.004Z" fill="#344048"/>
<path d="M36.002 15.002C36.002 15.396 36.0796 15.7861 36.2304 16.1501C36.3812 16.514 36.6021 16.8448 36.8807 17.1233C37.1593 17.4019 37.49 17.6229 37.854 17.7737C38.218 17.9244 38.6081 18.002 39.002 18.002C39.396 18.002 39.7861 17.9244 40.1501 17.7737C40.5141 17.6229 40.8448 17.4019 41.1234 17.1233C41.4019 16.8448 41.6229 16.514 41.7737 16.1501C41.9244 15.7861 42.002 15.396 42.002 15.002H39.002L36.002 15.002Z" fill="#C4C4C4"/>
<path d="M42.002 15.004C42.0023 14.6101 41.925 14.2199 41.7744 13.8558C41.6239 13.4917 41.4032 13.1609 41.1248 12.8821C40.8464 12.6034 40.5158 12.3822 40.1519 12.2311C39.7881 12.0801 39.398 12.0023 39.004 12.002C38.6101 12.0017 38.2199 12.0791 37.8558 12.2296C37.4918 12.3801 37.1609 12.6009 36.8821 12.8793C36.6034 13.1576 36.3822 13.4882 36.2312 13.8521C36.0801 14.216 36.0023 14.606 36.002 15L39.002 15.002L42.002 15.004Z" fill="#344048"/>
<path d="M18 15C18 16.6569 16.6569 18 15 18C13.3431 18 12 16.6569 12 15C12 13.3431 13.3431 12 15 12C16.6569 12 18 13.3431 18 15ZM12.7723 15C12.7723 16.2303 13.7697 17.2277 15 17.2277C16.2303 17.2277 17.2277 16.2303 17.2277 15C17.2277 13.7697 16.2303 12.7723 15 12.7723C13.7697 12.7723 12.7723 13.7697 12.7723 15Z" fill="#C4C4C4"/>
<path d="M24 15C24 15.394 24.0776 15.7841 24.2284 16.1481C24.3791 16.512 24.6001 16.8427 24.8787 17.1213C25.1573 17.3999 25.488 17.6209 25.8519 17.7716C26.2159 17.9224 26.606 18 27 18C27.394 18 27.7841 17.9224 28.1481 17.7716C28.512 17.6209 28.8427 17.3999 29.1213 17.1213C29.3999 16.8427 29.6209 16.512 29.7716 16.1481C29.9224 15.7841 30 15.394 30 15H27L24 15Z" fill="#C4C4C4"/>
<path d="M30 15.002C30.0002 14.608 29.9229 14.2179 29.7724 13.8538C29.6219 13.4897 29.4011 13.1589 29.1227 12.8801C28.8443 12.6013 28.5138 12.3801 28.1499 12.2291C27.786 12.0781 27.396 12.0003 27.002 12C26.608 11.9997 26.2179 12.0771 25.8538 12.2276C25.4897 12.3781 25.1588 12.5989 24.8801 12.8772C24.6013 13.1556 24.3801 13.4862 24.2291 13.8501C24.0781 14.214 24.0002 14.604 24 14.998L27 15L30 15.002Z" fill="#344048"/>
<path d="M0.00204468 15.002C0.00204464 15.396 0.0796419 15.7861 0.230406 16.1501C0.38117 16.514 0.602148 16.8448 0.880724 17.1233C1.1593 17.4019 1.49002 17.6229 1.85399 17.7737C2.21797 17.9244 2.60808 18.002 3.00204 18.002C3.39601 18.002 3.78612 17.9244 4.15009 17.7737C4.51407 17.6229 4.84479 17.4019 5.12336 17.1233C5.40194 16.8448 5.62292 16.514 5.77368 16.1501C5.92445 15.7861 6.00204 15.396 6.00204 15.002H3.00204L0.00204468 15.002Z" fill="#C4C4C4"/>
<path d="M6.00202 15.004C6.00229 14.6101 5.92495 14.2199 5.77443 13.8558C5.62391 13.4917 5.40316 13.1609 5.12477 12.8821C4.84638 12.6034 4.51581 12.3822 4.15194 12.2311C3.78806 12.0801 3.39801 12.0023 3.00404 12.002C2.61008 12.0017 2.21992 12.0791 1.85584 12.2296C1.49176 12.3801 1.16089 12.6009 0.882131 12.8793C0.603368 13.1576 0.382166 13.4882 0.231157 13.8521C0.0801479 14.216 0.00228782 14.606 0.00202242 15L3.00202 15.002L6.00202 15.004Z" fill="#344048"/>
<path d="M12.002 15.002C12.002 15.396 12.0796 15.7861 12.2304 16.1501C12.3812 16.514 12.6021 16.8448 12.8807 17.1233C13.1593 17.4019 13.49 17.6229 13.854 17.7737C14.218 17.9244 14.6081 18.002 15.002 18.002C15.396 18.002 15.7861 17.9244 16.1501 17.7737C16.5141 17.6229 16.8448 17.4019 17.1234 17.1233C17.4019 16.8448 17.6229 16.514 17.7737 16.1501C17.9244 15.7861 18.002 15.396 18.002 15.002H15.002L12.002 15.002Z" fill="#C4C4C4"/>
<path d="M18.002 15.004C18.0023 14.6101 17.925 14.2199 17.7744 13.8558C17.6239 13.4917 17.4032 13.1609 17.1248 12.8821C16.8464 12.6034 16.5158 12.3822 16.1519 12.2311C15.7881 12.0801 15.398 12.0023 15.004 12.002C14.6101 12.0017 14.2199 12.0791 13.8558 12.2296C13.4918 12.3801 13.1609 12.6009 12.8821 12.8793C12.6034 13.1576 12.3822 13.4882 12.2312 13.8521C12.0801 14.216 12.0023 14.606 12.002 15L15.002 15.002L18.002 15.004Z" fill="#344048"/>
<path d="M48.002 15.002C48.002 15.396 48.0796 15.7861 48.2304 16.1501C48.3812 16.514 48.6021 16.8448 48.8807 17.1233C49.1593 17.4019 49.49 17.6229 49.854 17.7737C50.218 17.9244 50.6081 18.002 51.002 18.002C51.396 18.002 51.7861 17.9244 52.1501 17.7737C52.5141 17.6229 52.8448 17.4019 53.1234 17.1233C53.4019 16.8448 53.6229 16.514 53.7737 16.1501C53.9244 15.7861 54.002 15.396 54.002 15.002H51.002L48.002 15.002Z" fill="#C4C4C4"/>
<path d="M54.002 15.004C54.0023 14.6101 53.925 14.2199 53.7744 13.8558C53.6239 13.4917 53.4032 13.1609 53.1248 12.8821C52.8464 12.6034 52.5158 12.3822 52.1519 12.2311C51.7881 12.0801 51.398 12.0023 51.004 12.002C50.6101 12.0017 50.2199 12.0791 49.8558 12.2296C49.4918 12.3801 49.1609 12.6009 48.8821 12.8793C48.6034 13.1576 48.3822 13.4882 48.2312 13.8521C48.0801 14.216 48.0023 14.606 48.002 15L51.002 15.002L54.002 15.004Z" fill="#344048"/>
<path d="M36.002 15.002C36.002 15.396 36.0796 15.7861 36.2304 16.1501C36.3812 16.514 36.6021 16.8448 36.8807 17.1233C37.1593 17.4019 37.49 17.6229 37.854 17.7737C38.218 17.9244 38.6081 18.002 39.002 18.002C39.396 18.002 39.7861 17.9244 40.1501 17.7737C40.5141 17.6229 40.8448 17.4019 41.1234 17.1233C41.4019 16.8448 41.6229 16.514 41.7737 16.1501C41.9244 15.7861 42.002 15.396 42.002 15.002H39.002L36.002 15.002Z" fill="#C4C4C4"/>
<path d="M42.002 15.004C42.0023 14.6101 41.925 14.2199 41.7744 13.8558C41.6239 13.4917 41.4032 13.1609 41.1248 12.8821C40.8464 12.6034 40.5158 12.3822 40.1519 12.2311C39.7881 12.0801 39.398 12.0023 39.004 12.002C38.6101 12.0017 38.2199 12.0791 37.8558 12.2296C37.4918 12.3801 37.1609 12.6009 36.8821 12.8793C36.6034 13.1576 36.3822 13.4882 36.2312 13.8521C36.0801 14.216 36.0023 14.606 36.002 15L39.002 15.002L42.002 15.004Z" fill="#344048"/>
<path d="M24.002 3.00201C24.002 3.39598 24.0796 3.78609 24.2304 4.15006C24.3812 4.51404 24.6021 4.84476 24.8807 5.12333C25.1593 5.40191 25.49 5.62289 25.854 5.77365C26.218 5.92442 26.6081 6.00201 27.002 6.00201C27.396 6.00201 27.7861 5.92442 28.1501 5.77365C28.5141 5.62289 28.8448 5.40191 29.1234 5.12333C29.4019 4.84476 29.6229 4.51404 29.7737 4.15006C29.9244 3.78609 30.002 3.39598 30.002 3.00201H27.002L24.002 3.00201Z" fill="#C4C4C4"/>
<path d="M30.002 3.00403C30.0023 2.61006 29.925 2.2199 29.7744 1.85583C29.6239 1.49175 29.4032 1.16088 29.1248 0.882117C28.8464 0.603354 28.5158 0.382153 28.1519 0.231144C27.7881 0.0801343 27.398 0.00227418 27.004 0.00200876C26.6101 0.00174334 26.2199 0.0790778 25.8558 0.229597C25.4918 0.380116 25.1609 0.600871 24.8821 0.879259C24.6034 1.15765 24.3822 1.48822 24.2312 1.85209C24.0801 2.21597 24.0023 2.60602 24.002 2.99999L27.002 3.00201L30.002 3.00403Z" fill="#344048"/>
<path d="M48.002 3.00201C48.002 3.39598 48.0796 3.78609 48.2304 4.15006C48.3812 4.51404 48.6021 4.84476 48.8807 5.12333C49.1593 5.40191 49.49 5.62289 49.854 5.77365C50.218 5.92442 50.6081 6.00201 51.002 6.00201C51.396 6.00201 51.7861 5.92442 52.1501 5.77365C52.5141 5.62289 52.8448 5.40191 53.1234 5.12333C53.4019 4.84476 53.6229 4.51404 53.7737 4.15006C53.9244 3.78609 54.002 3.39598 54.002 3.00201H51.002L48.002 3.00201Z" fill="#C4C4C4"/>
<path d="M54.002 3.00403C54.0023 2.61006 53.925 2.2199 53.7744 1.85583C53.6239 1.49175 53.4032 1.16088 53.1248 0.882117C52.8464 0.603354 52.5158 0.382153 52.1519 0.231144C51.7881 0.0801343 51.398 0.00227418 51.004 0.00200876C50.6101 0.00174334 50.2199 0.0790778 49.8558 0.229597C49.4918 0.380116 49.1609 0.600871 48.8821 0.879259C48.6034 1.15765 48.3822 1.48822 48.2312 1.85209C48.0801 2.21597 48.0023 2.60602 48.002 2.99999L51.002 3.00201L54.002 3.00403Z" fill="#344048"/>
<path d="M0.00204468 3.00201C0.00204464 3.39598 0.0796419 3.78609 0.230406 4.15006C0.38117 4.51404 0.602148 4.84476 0.880724 5.12333C1.1593 5.40191 1.49002 5.62289 1.85399 5.77365C2.21797 5.92442 2.60808 6.00201 3.00204 6.00201C3.39601 6.00201 3.78612 5.92442 4.15009 5.77365C4.51407 5.62289 4.84479 5.40191 5.12336 5.12333C5.40194 4.84476 5.62292 4.51404 5.77368 4.15006C5.92445 3.78609 6.00204 3.39598 6.00204 3.00201H3.00204L0.00204468 3.00201Z" fill="#C4C4C4"/>
<path d="M6.00202 3.00403C6.00229 2.61006 5.92495 2.2199 5.77443 1.85583C5.62391 1.49175 5.40316 1.16088 5.12477 0.882117C4.84638 0.603354 4.51581 0.382153 4.15194 0.231144C3.78806 0.0801343 3.39801 0.00227418 3.00404 0.00200876C2.61008 0.00174334 2.21992 0.0790778 1.85584 0.229597C1.49176 0.380116 1.16089 0.600871 0.882131 0.879259C0.603368 1.15765 0.382166 1.48822 0.231157 1.85209C0.0801479 2.21597 0.00228782 2.60602 0.00202242 2.99999L3.00202 3.00201L6.00202 3.00403Z" fill="#344048"/>
<path d="M36.002 3.00201C36.002 3.39598 36.0796 3.78609 36.2304 4.15006C36.3812 4.51404 36.6021 4.84476 36.8807 5.12333C37.1593 5.40191 37.49 5.62289 37.854 5.77365C38.218 5.92442 38.6081 6.00201 39.002 6.00201C39.396 6.00201 39.7861 5.92442 40.1501 5.77365C40.5141 5.62289 40.8448 5.40191 41.1234 5.12333C41.4019 4.84476 41.6229 4.51404 41.7737 4.15006C41.9244 3.78609 42.002 3.39598 42.002 3.00201H39.002L36.002 3.00201Z" fill="#C4C4C4"/>
<path d="M42.002 3.00403C42.0023 2.61006 41.925 2.2199 41.7744 1.85583C41.6239 1.49175 41.4032 1.16088 41.1248 0.882117C40.8464 0.603354 40.5158 0.382153 40.1519 0.231144C39.7881 0.0801343 39.398 0.00227418 39.004 0.00200876C38.6101 0.00174334 38.2199 0.0790778 37.8558 0.229597C37.4918 0.380116 37.1609 0.600871 36.8821 0.879259C36.6034 1.15765 36.3822 1.48822 36.2312 1.85209C36.0801 2.21597 36.0023 2.60602 36.002 2.99999L39.002 3.00201L42.002 3.00403Z" fill="#344048"/>
<path d="M12.002 3.00201C12.002 3.39598 12.0796 3.78609 12.2304 4.15006C12.3812 4.51404 12.6021 4.84476 12.8807 5.12333C13.1593 5.40191 13.49 5.62289 13.854 5.77365C14.218 5.92442 14.6081 6.00201 15.002 6.00201C15.396 6.00201 15.7861 5.92442 16.1501 5.77365C16.5141 5.62289 16.8448 5.40191 17.1234 5.12333C17.4019 4.84476 17.6229 4.51404 17.7737 4.15006C17.9244 3.78609 18.002 3.39598 18.002 3.00201H15.002L12.002 3.00201Z" fill="#C4C4C4"/>
<path d="M18.002 3.00403C18.0023 2.61006 17.925 2.2199 17.7744 1.85583C17.6239 1.49175 17.4032 1.16088 17.1248 0.882117C16.8464 0.603354 16.5158 0.382153 16.1519 0.231144C15.7881 0.0801343 15.398 0.00227418 15.004 0.00200876C14.6101 0.00174334 14.2199 0.0790778 13.8558 0.229597C13.4918 0.380116 13.1609 0.600871 12.8821 0.879259C12.6034 1.15765 12.3822 1.48822 12.2312 1.85209C12.0801 2.21597 12.0023 2.60602 12.002 2.99999L15.002 3.00201L18.002 3.00403Z" fill="#344048"/>
<path d="M24.002 27.002C24.002 27.396 24.0796 27.7861 24.2304 28.1501C24.3812 28.514 24.6021 28.8448 24.8807 29.1233C25.1593 29.4019 25.49 29.6229 25.854 29.7737C26.218 29.9244 26.6081 30.002 27.002 30.002C27.396 30.002 27.7861 29.9244 28.1501 29.7737C28.5141 29.6229 28.8448 29.4019 29.1234 29.1233C29.4019 28.8448 29.6229 28.514 29.7737 28.1501C29.9244 27.7861 30.002 27.396 30.002 27.002H27.002L24.002 27.002Z" fill="#C4C4C4"/>
<path d="M30.002 27.004C30.0023 26.6101 29.925 26.2199 29.7744 25.8558C29.6239 25.4917 29.4032 25.1609 29.1248 24.8821C28.8464 24.6034 28.5158 24.3822 28.1519 24.2311C27.7881 24.0801 27.398 24.0023 27.004 24.002C26.6101 24.0017 26.2199 24.0791 25.8558 24.2296C25.4918 24.3801 25.1609 24.6009 24.8821 24.8793C24.6034 25.1576 24.3822 25.4882 24.2312 25.8521C24.0801 26.216 24.0023 26.606 24.002 27L27.002 27.002L30.002 27.004Z" fill="#344048"/>
<path d="M48.002 27.002C48.002 27.396 48.0796 27.7861 48.2304 28.1501C48.3812 28.514 48.6021 28.8448 48.8807 29.1233C49.1593 29.4019 49.49 29.6229 49.854 29.7737C50.218 29.9244 50.6081 30.002 51.002 30.002C51.396 30.002 51.7861 29.9244 52.1501 29.7737C52.5141 29.6229 52.8448 29.4019 53.1234 29.1233C53.4019 28.8448 53.6229 28.514 53.7737 28.1501C53.9244 27.7861 54.002 27.396 54.002 27.002H51.002L48.002 27.002Z" fill="#C4C4C4"/>
<path d="M54.002 27.004C54.0023 26.6101 53.925 26.2199 53.7744 25.8558C53.6239 25.4917 53.4032 25.1609 53.1248 24.8821C52.8464 24.6034 52.5158 24.3822 52.1519 24.2311C51.7881 24.0801 51.398 24.0023 51.004 24.002C50.6101 24.0017 50.2199 24.0791 49.8558 24.2296C49.4918 24.3801 49.1609 24.6009 48.8821 24.8793C48.6034 25.1576 48.3822 25.4882 48.2312 25.8521C48.0801 26.216 48.0023 26.606 48.002 27L51.002 27.002L54.002 27.004Z" fill="#344048"/>
<path d="M0.00204468 27.002C0.00204464 27.396 0.0796419 27.7861 0.230406 28.1501C0.38117 28.514 0.602148 28.8448 0.880724 29.1233C1.1593 29.4019 1.49002 29.6229 1.85399 29.7737C2.21797 29.9244 2.60808 30.002 3.00204 30.002C3.39601 30.002 3.78612 29.9244 4.15009 29.7737C4.51407 29.6229 4.84479 29.4019 5.12336 29.1233C5.40194 28.8448 5.62292 28.514 5.77368 28.1501C5.92445 27.7861 6.00204 27.396 6.00204 27.002H3.00204L0.00204468 27.002Z" fill="#C4C4C4"/>
<path d="M6.00202 27.004C6.00229 26.6101 5.92495 26.2199 5.77443 25.8558C5.62391 25.4917 5.40316 25.1609 5.12477 24.8821C4.84638 24.6034 4.51581 24.3822 4.15194 24.2311C3.78806 24.0801 3.39801 24.0023 3.00404 24.002C2.61008 24.0017 2.21992 24.0791 1.85584 24.2296C1.49176 24.3801 1.16089 24.6009 0.882131 24.8793C0.603368 25.1576 0.382166 25.4882 0.231157 25.8521C0.0801479 26.216 0.00228782 26.606 0.00202242 27L3.00202 27.002L6.00202 27.004Z" fill="#344048"/>
<path d="M36.002 27.002C36.002 27.396 36.0796 27.7861 36.2304 28.1501C36.3812 28.514 36.6021 28.8448 36.8807 29.1233C37.1593 29.4019 37.49 29.6229 37.854 29.7737C38.218 29.9244 38.6081 30.002 39.002 30.002C39.396 30.002 39.7861 29.9244 40.1501 29.7737C40.5141 29.6229 40.8448 29.4019 41.1234 29.1233C41.4019 28.8448 41.6229 28.514 41.7737 28.1501C41.9244 27.7861 42.002 27.396 42.002 27.002H39.002L36.002 27.002Z" fill="#C4C4C4"/>
<path d="M42.002 27.004C42.0023 26.6101 41.925 26.2199 41.7744 25.8558C41.6239 25.4917 41.4032 25.1609 41.1248 24.8821C40.8464 24.6034 40.5158 24.3822 40.1519 24.2311C39.7881 24.0801 39.398 24.0023 39.004 24.002C38.6101 24.0017 38.2199 24.0791 37.8558 24.2296C37.4918 24.3801 37.1609 24.6009 36.8821 24.8793C36.6034 25.1576 36.3822 25.4882 36.2312 25.8521C36.0801 26.216 36.0023 26.606 36.002 27L39.002 27.002L42.002 27.004Z" fill="#344048"/>
<path d="M12.002 27.002C12.002 27.396 12.0796 27.7861 12.2304 28.1501C12.3812 28.514 12.6021 28.8448 12.8807 29.1233C13.1593 29.4019 13.49 29.6229 13.854 29.7737C14.218 29.9244 14.6081 30.002 15.002 30.002C15.396 30.002 15.7861 29.9244 16.1501 29.7737C16.5141 29.6229 16.8448 29.4019 17.1234 29.1233C17.4019 28.8448 17.6229 28.514 17.7737 28.1501C17.9244 27.7861 18.002 27.396 18.002 27.002H15.002L12.002 27.002Z" fill="#C4C4C4"/>
<path d="M18.002 27.004C18.0023 26.6101 17.925 26.2199 17.7744 25.8558C17.6239 25.4917 17.4032 25.1609 17.1248 24.8821C16.8464 24.6034 16.5158 24.3822 16.1519 24.2311C15.7881 24.0801 15.398 24.0023 15.004 24.002C14.6101 24.0017 14.2199 24.0791 13.8558 24.2296C13.4918 24.3801 13.1609 24.6009 12.8821 24.8793C12.6034 25.1576 12.3822 25.4882 12.2312 25.8521C12.0801 26.216 12.0023 26.606 12.002 27L15.002 27.002L18.002 27.004Z" fill="#344048"/>
<path d="M18.002 33.002C18.002 33.396 18.0796 33.7861 18.2304 34.1501C18.3812 34.514 18.6021 34.8448 18.8807 35.1233C19.1593 35.4019 19.49 35.6229 19.854 35.7737C20.218 35.9244 20.6081 36.002 21.002 36.002C21.396 36.002 21.7861 35.9244 22.1501 35.7737C22.5141 35.6229 22.8448 35.4019 23.1234 35.1233C23.4019 34.8448 23.6229 34.514 23.7737 34.1501C23.9244 33.7861 24.002 33.396 24.002 33.002H21.002L18.002 33.002Z" fill="#C4C4C4"/>
<path d="M24.002 33.004C24.0023 32.6101 23.925 32.2199 23.7744 31.8558C23.6239 31.4917 23.4032 31.1609 23.1248 30.8821C22.8464 30.6034 22.5158 30.3822 22.1519 30.2311C21.7881 30.0801 21.398 30.0023 21.004 30.002C20.6101 30.0017 20.2199 30.0791 19.8558 30.2296C19.4918 30.3801 19.1609 30.6009 18.8821 30.8793C18.6034 31.1576 18.3822 31.4882 18.2312 31.8521C18.0801 32.216 18.0023 32.606 18.002 33L21.002 33.002L24.002 33.004Z" fill="#344048"/>
<path d="M42.002 33.002C42.002 33.396 42.0796 33.7861 42.2304 34.1501C42.3812 34.514 42.6021 34.8448 42.8807 35.1233C43.1593 35.4019 43.49 35.6229 43.854 35.7737C44.218 35.9244 44.6081 36.002 45.002 36.002C45.396 36.002 45.7861 35.9244 46.1501 35.7737C46.5141 35.6229 46.8448 35.4019 47.1234 35.1233C47.4019 34.8448 47.6229 34.514 47.7737 34.1501C47.9244 33.7861 48.002 33.396 48.002 33.002H45.002L42.002 33.002Z" fill="#C4C4C4"/>
<path d="M48.002 33.004C48.0023 32.6101 47.925 32.2199 47.7744 31.8558C47.6239 31.4917 47.4032 31.1609 47.1248 30.8821C46.8464 30.6034 46.5158 30.3822 46.1519 30.2311C45.7881 30.0801 45.398 30.0023 45.004 30.002C44.6101 30.0017 44.2199 30.0791 43.8558 30.2296C43.4918 30.3801 43.1609 30.6009 42.8821 30.8793C42.6034 31.1576 42.3822 31.4882 42.2312 31.8521C42.0801 32.216 42.0023 32.606 42.002 33L45.002 33.002L48.002 33.004Z" fill="#344048"/>
<path d="M30.002 33.002C30.002 33.396 30.0796 33.7861 30.2304 34.1501C30.3812 34.514 30.6021 34.8448 30.8807 35.1233C31.1593 35.4019 31.49 35.6229 31.854 35.7737C32.218 35.9244 32.6081 36.002 33.002 36.002C33.396 36.002 33.7861 35.9244 34.1501 35.7737C34.5141 35.6229 34.8448 35.4019 35.1234 35.1233C35.4019 34.8448 35.6229 34.514 35.7737 34.1501C35.9244 33.7861 36.002 33.396 36.002 33.002H33.002L30.002 33.002Z" fill="#C4C4C4"/>
<path d="M36.002 33.004C36.0023 32.6101 35.925 32.2199 35.7744 31.8558C35.6239 31.4917 35.4032 31.1609 35.1248 30.8821C34.8464 30.6034 34.5158 30.3822 34.1519 30.2311C33.7881 30.0801 33.398 30.0023 33.004 30.002C32.6101 30.0017 32.2199 30.0791 31.8558 30.2296C31.4918 30.3801 31.1609 30.6009 30.8821 30.8793C30.6034 31.1576 30.3822 31.4882 30.2312 31.8521C30.0801 32.216 30.0023 32.606 30.002 33L33.002 33.002L36.002 33.004Z" fill="#344048"/>
<path d="M6.00204 33.002C6.00204 33.396 6.07964 33.7861 6.23041 34.1501C6.38117 34.514 6.60215 34.8448 6.88072 35.1233C7.1593 35.4019 7.49002 35.6229 7.85399 35.7737C8.21797 35.9244 8.60808 36.002 9.00204 36.002C9.39601 36.002 9.78612 35.9244 10.1501 35.7737C10.5141 35.6229 10.8448 35.4019 11.1234 35.1233C11.4019 34.8448 11.6229 34.514 11.7737 34.1501C11.9244 33.7861 12.002 33.396 12.002 33.002H9.00204L6.00204 33.002Z" fill="#C4C4C4"/>
<path d="M12.002 33.004C12.0023 32.6101 11.925 32.2199 11.7744 31.8558C11.6239 31.4917 11.4032 31.1609 11.1248 30.8821C10.8464 30.6034 10.5158 30.3822 10.1519 30.2311C9.78806 30.0801 9.39801 30.0023 9.00404 30.002C8.61008 30.0017 8.21992 30.0791 7.85584 30.2296C7.49176 30.3801 7.16089 30.6009 6.88213 30.8793C6.60337 31.1576 6.38217 31.4882 6.23116 31.8521C6.08015 32.216 6.00229 32.606 6.00202 33L9.00202 33.002L12.002 33.004Z" fill="#344048"/>
<path d="M24.002 39.002C24.002 39.396 24.0796 39.7861 24.2304 40.1501C24.3812 40.514 24.6021 40.8448 24.8807 41.1233C25.1593 41.4019 25.49 41.6229 25.854 41.7737C26.218 41.9244 26.6081 42.002 27.002 42.002C27.396 42.002 27.7861 41.9244 28.1501 41.7737C28.5141 41.6229 28.8448 41.4019 29.1234 41.1233C29.4019 40.8448 29.6229 40.514 29.7737 40.1501C29.9244 39.7861 30.002 39.396 30.002 39.002H27.002L24.002 39.002Z" fill="#C4C4C4"/>
<path d="M30.002 39.004C30.0023 38.6101 29.925 38.2199 29.7744 37.8558C29.6239 37.4917 29.4032 37.1609 29.1248 36.8821C28.8464 36.6034 28.5158 36.3822 28.1519 36.2311C27.7881 36.0801 27.398 36.0023 27.004 36.002C26.6101 36.0017 26.2199 36.0791 25.8558 36.2296C25.4918 36.3801 25.1609 36.6009 24.8821 36.8793C24.6034 37.1576 24.3822 37.4882 24.2312 37.8521C24.0801 38.216 24.0023 38.606 24.002 39L27.002 39.002L30.002 39.004Z" fill="#344048"/>
<path d="M48.002 39.002C48.002 39.396 48.0796 39.7861 48.2304 40.1501C48.3812 40.514 48.6021 40.8448 48.8807 41.1233C49.1593 41.4019 49.49 41.6229 49.854 41.7737C50.218 41.9244 50.6081 42.002 51.002 42.002C51.396 42.002 51.7861 41.9244 52.1501 41.7737C52.5141 41.6229 52.8448 41.4019 53.1234 41.1233C53.4019 40.8448 53.6229 40.514 53.7737 40.1501C53.9244 39.7861 54.002 39.396 54.002 39.002H51.002L48.002 39.002Z" fill="#C4C4C4"/>
<path d="M54.002 39.004C54.0023 38.6101 53.925 38.2199 53.7744 37.8558C53.6239 37.4917 53.4032 37.1609 53.1248 36.8821C52.8464 36.6034 52.5158 36.3822 52.1519 36.2311C51.7881 36.0801 51.398 36.0023 51.004 36.002C50.6101 36.0017 50.2199 36.0791 49.8558 36.2296C49.4918 36.3801 49.1609 36.6009 48.8821 36.8793C48.6034 37.1576 48.3822 37.4882 48.2312 37.8521C48.0801 38.216 48.0023 38.606 48.002 39L51.002 39.002L54.002 39.004Z" fill="#344048"/>
<path d="M0.00204468 39.002C0.00204464 39.396 0.0796419 39.7861 0.230406 40.1501C0.38117 40.514 0.602148 40.8448 0.880724 41.1233C1.1593 41.4019 1.49002 41.6229 1.85399 41.7737C2.21797 41.9244 2.60808 42.002 3.00204 42.002C3.39601 42.002 3.78612 41.9244 4.15009 41.7737C4.51407 41.6229 4.84479 41.4019 5.12336 41.1233C5.40194 40.8448 5.62292 40.514 5.77368 40.1501C5.92445 39.7861 6.00204 39.396 6.00204 39.002H3.00204L0.00204468 39.002Z" fill="#C4C4C4"/>
<path d="M6.00202 39.004C6.00229 38.6101 5.92495 38.2199 5.77443 37.8558C5.62391 37.4917 5.40316 37.1609 5.12477 36.8821C4.84638 36.6034 4.51581 36.3822 4.15194 36.2311C3.78806 36.0801 3.39801 36.0023 3.00404 36.002C2.61008 36.0017 2.21992 36.0791 1.85584 36.2296C1.49176 36.3801 1.16089 36.6009 0.882131 36.8793C0.603368 37.1576 0.382166 37.4882 0.231157 37.8521C0.0801479 38.216 0.00228782 38.606 0.00202242 39L3.00202 39.002L6.00202 39.004Z" fill="#344048"/>
<path d="M36.002 39.002C36.002 39.396 36.0796 39.7861 36.2304 40.1501C36.3812 40.514 36.6021 40.8448 36.8807 41.1233C37.1593 41.4019 37.49 41.6229 37.854 41.7737C38.218 41.9244 38.6081 42.002 39.002 42.002C39.396 42.002 39.7861 41.9244 40.1501 41.7737C40.5141 41.6229 40.8448 41.4019 41.1234 41.1233C41.4019 40.8448 41.6229 40.514 41.7737 40.1501C41.9244 39.7861 42.002 39.396 42.002 39.002H39.002L36.002 39.002Z" fill="#C4C4C4"/>
<path d="M42.002 39.004C42.0023 38.6101 41.925 38.2199 41.7744 37.8558C41.6239 37.4917 41.4032 37.1609 41.1248 36.8821C40.8464 36.6034 40.5158 36.3822 40.1519 36.2311C39.7881 36.0801 39.398 36.0023 39.004 36.002C38.6101 36.0017 38.2199 36.0791 37.8558 36.2296C37.4918 36.3801 37.1609 36.6009 36.8821 36.8793C36.6034 37.1576 36.3822 37.4882 36.2312 37.8521C36.0801 38.216 36.0023 38.606 36.002 39L39.002 39.002L42.002 39.004Z" fill="#344048"/>
<path d="M12.002 39.002C12.002 39.396 12.0796 39.7861 12.2304 40.1501C12.3812 40.514 12.6021 40.8448 12.8807 41.1233C13.1593 41.4019 13.49 41.6229 13.854 41.7737C14.218 41.9244 14.6081 42.002 15.002 42.002C15.396 42.002 15.7861 41.9244 16.1501 41.7737C16.5141 41.6229 16.8448 41.4019 17.1234 41.1233C17.4019 40.8448 17.6229 40.514 17.7737 40.1501C17.9244 39.7861 18.002 39.396 18.002 39.002H15.002L12.002 39.002Z" fill="#C4C4C4"/>
<path d="M18.002 39.004C18.0023 38.6101 17.925 38.2199 17.7744 37.8558C17.6239 37.4917 17.4032 37.1609 17.1248 36.8821C16.8464 36.6034 16.5158 36.3822 16.1519 36.2311C15.7881 36.0801 15.398 36.0023 15.004 36.002C14.6101 36.0017 14.2199 36.0791 13.8558 36.2296C13.4918 36.3801 13.1609 36.6009 12.8821 36.8793C12.6034 37.1576 12.3822 37.4882 12.2312 37.8521C12.0801 38.216 12.0023 38.606 12.002 39L15.002 39.002L18.002 39.004Z" fill="#344048"/>
<path d="M24.002 51.002C24.002 51.396 24.0796 51.7861 24.2304 52.1501C24.3812 52.514 24.6021 52.8448 24.8807 53.1233C25.1593 53.4019 25.49 53.6229 25.854 53.7737C26.218 53.9244 26.6081 54.002 27.002 54.002C27.396 54.002 27.7861 53.9244 28.1501 53.7737C28.5141 53.6229 28.8448 53.4019 29.1234 53.1233C29.4019 52.8448 29.6229 52.514 29.7737 52.1501C29.9244 51.7861 30.002 51.396 30.002 51.002H27.002L24.002 51.002Z" fill="#C4C4C4"/>
<path d="M30.002 51.004C30.0023 50.6101 29.925 50.2199 29.7744 49.8558C29.6239 49.4917 29.4032 49.1609 29.1248 48.8821C28.8464 48.6034 28.5158 48.3822 28.1519 48.2311C27.7881 48.0801 27.398 48.0023 27.004 48.002C26.6101 48.0017 26.2199 48.0791 25.8558 48.2296C25.4918 48.3801 25.1609 48.6009 24.8821 48.8793C24.6034 49.1576 24.3822 49.4882 24.2312 49.8521C24.0801 50.216 24.0023 50.606 24.002 51L27.002 51.002L30.002 51.004Z" fill="#344048"/>
<path d="M48.002 51.002C48.002 51.396 48.0796 51.7861 48.2304 52.1501C48.3812 52.514 48.6021 52.8448 48.8807 53.1233C49.1593 53.4019 49.49 53.6229 49.854 53.7737C50.218 53.9244 50.6081 54.002 51.002 54.002C51.396 54.002 51.7861 53.9244 52.1501 53.7737C52.5141 53.6229 52.8448 53.4019 53.1234 53.1233C53.4019 52.8448 53.6229 52.514 53.7737 52.1501C53.9244 51.7861 54.002 51.396 54.002 51.002H51.002L48.002 51.002Z" fill="#C4C4C4"/>
<path d="M54.002 51.004C54.0023 50.6101 53.925 50.2199 53.7744 49.8558C53.6239 49.4917 53.4032 49.1609 53.1248 48.8821C52.8464 48.6034 52.5158 48.3822 52.1519 48.2311C51.7881 48.0801 51.398 48.0023 51.004 48.002C50.6101 48.0017 50.2199 48.0791 49.8558 48.2296C49.4918 48.3801 49.1609 48.6009 48.8821 48.8793C48.6034 49.1576 48.3822 49.4882 48.2312 49.8521C48.0801 50.216 48.0023 50.606 48.002 51L51.002 51.002L54.002 51.004Z" fill="#344048"/>
<path d="M0.00204468 51.002C0.00204464 51.396 0.0796419 51.7861 0.230406 52.1501C0.38117 52.514 0.602148 52.8448 0.880724 53.1233C1.1593 53.4019 1.49002 53.6229 1.85399 53.7737C2.21797 53.9244 2.60808 54.002 3.00204 54.002C3.39601 54.002 3.78612 53.9244 4.15009 53.7737C4.51407 53.6229 4.84479 53.4019 5.12336 53.1233C5.40194 52.8448 5.62292 52.514 5.77368 52.1501C5.92445 51.7861 6.00204 51.396 6.00204 51.002H3.00204L0.00204468 51.002Z" fill="#C4C4C4"/>
<path d="M6.00202 51.004C6.00229 50.6101 5.92495 50.2199 5.77443 49.8558C5.62391 49.4917 5.40316 49.1609 5.12477 48.8821C4.84638 48.6034 4.51581 48.3822 4.15194 48.2311C3.78806 48.0801 3.39801 48.0023 3.00404 48.002C2.61008 48.0017 2.21992 48.0791 1.85584 48.2296C1.49176 48.3801 1.16089 48.6009 0.882131 48.8793C0.603368 49.1576 0.382166 49.4882 0.231157 49.8521C0.0801479 50.216 0.00228782 50.606 0.00202242 51L3.00202 51.002L6.00202 51.004Z" fill="#344048"/>
<path d="M36.002 51.002C36.002 51.396 36.0796 51.7861 36.2304 52.1501C36.3812 52.514 36.6021 52.8448 36.8807 53.1233C37.1593 53.4019 37.49 53.6229 37.854 53.7737C38.218 53.9244 38.6081 54.002 39.002 54.002C39.396 54.002 39.7861 53.9244 40.1501 53.7737C40.5141 53.6229 40.8448 53.4019 41.1234 53.1233C41.4019 52.8448 41.6229 52.514 41.7737 52.1501C41.9244 51.7861 42.002 51.396 42.002 51.002H39.002L36.002 51.002Z" fill="#C4C4C4"/>
<path d="M42.002 51.004C42.0023 50.6101 41.925 50.2199 41.7744 49.8558C41.6239 49.4917 41.4032 49.1609 41.1248 48.8821C40.8464 48.6034 40.5158 48.3822 40.1519 48.2311C39.7881 48.0801 39.398 48.0023 39.004 48.002C38.6101 48.0017 38.2199 48.0791 37.8558 48.2296C37.4918 48.3801 37.1609 48.6009 36.8821 48.8793C36.6034 49.1576 36.3822 49.4882 36.2312 49.8521C36.0801 50.216 36.0023 50.606 36.002 51L39.002 51.002L42.002 51.004Z" fill="#344048"/>
<path d="M12.002 51.002C12.002 51.396 12.0796 51.7861 12.2304 52.1501C12.3812 52.514 12.6021 52.8448 12.8807 53.1233C13.1593 53.4019 13.49 53.6229 13.854 53.7737C14.218 53.9244 14.6081 54.002 15.002 54.002C15.396 54.002 15.7861 53.9244 16.1501 53.7737C16.5141 53.6229 16.8448 53.4019 17.1234 53.1233C17.4019 52.8448 17.6229 52.514 17.7737 52.1501C17.9244 51.7861 18.002 51.396 18.002 51.002H15.002L12.002 51.002Z" fill="#C4C4C4"/>
<path d="M18.002 51.004C18.0023 50.6101 17.925 50.2199 17.7744 49.8558C17.6239 49.4917 17.4032 49.1609 17.1248 48.8821C16.8464 48.6034 16.5158 48.3822 16.1519 48.2311C15.7881 48.0801 15.398 48.0023 15.004 48.002C14.6101 48.0017 14.2199 48.0791 13.8558 48.2296C13.4918 48.3801 13.1609 48.6009 12.8821 48.8793C12.6034 49.1576 12.3822 49.4882 12.2312 49.8521C12.0801 50.216 12.0023 50.606 12.002 51L15.002 51.002L18.002 51.004Z" fill="#344048"/>
<path d="M18.002 45.002C18.002 45.396 18.0796 45.7861 18.2304 46.1501C18.3812 46.514 18.6021 46.8448 18.8807 47.1233C19.1593 47.4019 19.49 47.6229 19.854 47.7737C20.218 47.9244 20.6081 48.002 21.002 48.002C21.396 48.002 21.7861 47.9244 22.1501 47.7737C22.5141 47.6229 22.8448 47.4019 23.1234 47.1233C23.4019 46.8448 23.6229 46.514 23.7737 46.1501C23.9244 45.7861 24.002 45.396 24.002 45.002H21.002L18.002 45.002Z" fill="#C4C4C4"/>
<path d="M24.002 45.004C24.0023 44.6101 23.925 44.2199 23.7744 43.8558C23.6239 43.4917 23.4032 43.1609 23.1248 42.8821C22.8464 42.6034 22.5158 42.3822 22.1519 42.2311C21.7881 42.0801 21.398 42.0023 21.004 42.002C20.6101 42.0017 20.2199 42.0791 19.8558 42.2296C19.4918 42.3801 19.1609 42.6009 18.8821 42.8793C18.6034 43.1576 18.3822 43.4882 18.2312 43.8521C18.0801 44.216 18.0023 44.606 18.002 45L21.002 45.002L24.002 45.004Z" fill="#344048"/>
<path d="M42.002 45.002C42.002 45.396 42.0796 45.7861 42.2304 46.1501C42.3812 46.514 42.6021 46.8448 42.8807 47.1233C43.1593 47.4019 43.49 47.6229 43.854 47.7737C44.218 47.9244 44.6081 48.002 45.002 48.002C45.396 48.002 45.7861 47.9244 46.1501 47.7737C46.5141 47.6229 46.8448 47.4019 47.1234 47.1233C47.4019 46.8448 47.6229 46.514 47.7737 46.1501C47.9244 45.7861 48.002 45.396 48.002 45.002H45.002L42.002 45.002Z" fill="#C4C4C4"/>
<path d="M48.002 45.004C48.0023 44.6101 47.925 44.2199 47.7744 43.8558C47.6239 43.4917 47.4032 43.1609 47.1248 42.8821C46.8464 42.6034 46.5158 42.3822 46.1519 42.2311C45.7881 42.0801 45.398 42.0023 45.004 42.002C44.6101 42.0017 44.2199 42.0791 43.8558 42.2296C43.4918 42.3801 43.1609 42.6009 42.8821 42.8793C42.6034 43.1576 42.3822 43.4882 42.2312 43.8521C42.0801 44.216 42.0023 44.606 42.002 45L45.002 45.002L48.002 45.004Z" fill="#344048"/>
<path d="M30.002 45.002C30.002 45.396 30.0796 45.7861 30.2304 46.1501C30.3812 46.514 30.6021 46.8448 30.8807 47.1233C31.1593 47.4019 31.49 47.6229 31.854 47.7737C32.218 47.9244 32.6081 48.002 33.002 48.002C33.396 48.002 33.7861 47.9244 34.1501 47.7737C34.5141 47.6229 34.8448 47.4019 35.1234 47.1233C35.4019 46.8448 35.6229 46.514 35.7737 46.1501C35.9244 45.7861 36.002 45.396 36.002 45.002H33.002L30.002 45.002Z" fill="#C4C4C4"/>
<path d="M36.002 45.004C36.0023 44.6101 35.925 44.2199 35.7744 43.8558C35.6239 43.4917 35.4032 43.1609 35.1248 42.8821C34.8464 42.6034 34.5158 42.3822 34.1519 42.2311C33.7881 42.0801 33.398 42.0023 33.004 42.002C32.6101 42.0017 32.2199 42.0791 31.8558 42.2296C31.4918 42.3801 31.1609 42.6009 30.8821 42.8793C30.6034 43.1576 30.3822 43.4882 30.2312 43.8521C30.0801 44.216 30.0023 44.606 30.002 45L33.002 45.002L36.002 45.004Z" fill="#344048"/>
<path d="M6.00204 45.002C6.00204 45.396 6.07964 45.7861 6.23041 46.1501C6.38117 46.514 6.60215 46.8448 6.88072 47.1233C7.1593 47.4019 7.49002 47.6229 7.85399 47.7737C8.21797 47.9244 8.60808 48.002 9.00204 48.002C9.39601 48.002 9.78612 47.9244 10.1501 47.7737C10.5141 47.6229 10.8448 47.4019 11.1234 47.1233C11.4019 46.8448 11.6229 46.514 11.7737 46.1501C11.9244 45.7861 12.002 45.396 12.002 45.002H9.00204L6.00204 45.002Z" fill="#C4C4C4"/>
<path d="M12.002 45.004C12.0023 44.6101 11.925 44.2199 11.7744 43.8558C11.6239 43.4917 11.4032 43.1609 11.1248 42.8821C10.8464 42.6034 10.5158 42.3822 10.1519 42.2311C9.78806 42.0801 9.39801 42.0023 9.00404 42.002C8.61008 42.0017 8.21992 42.0791 7.85584 42.2296C7.49176 42.3801 7.16089 42.6009 6.88213 42.8793C6.60337 43.1576 6.38217 43.4882 6.23116 43.8521C6.08015 44.216 6.00229 44.606 6.00202 45L9.00202 45.002L12.002 45.004Z" fill="#344048"/>
<path d="M18.002 21.002C18.002 21.396 18.0796 21.7861 18.2304 22.1501C18.3812 22.514 18.6021 22.8448 18.8807 23.1233C19.1593 23.4019 19.49 23.6229 19.854 23.7737C20.218 23.9244 20.6081 24.002 21.002 24.002C21.396 24.002 21.7861 23.9244 22.1501 23.7737C22.5141 23.6229 22.8448 23.4019 23.1234 23.1233C23.4019 22.8448 23.6229 22.514 23.7737 22.1501C23.9244 21.7861 24.002 21.396 24.002 21.002H21.002L18.002 21.002Z" fill="#C4C4C4"/>
<path d="M24.002 21.004C24.0023 20.6101 23.925 20.2199 23.7744 19.8558C23.6239 19.4917 23.4032 19.1609 23.1248 18.8821C22.8464 18.6034 22.5158 18.3822 22.1519 18.2311C21.7881 18.0801 21.398 18.0023 21.004 18.002C20.6101 18.0017 20.2199 18.0791 19.8558 18.2296C19.4918 18.3801 19.1609 18.6009 18.8821 18.8793C18.6034 19.1576 18.3822 19.4882 18.2312 19.8521C18.0801 20.216 18.0023 20.606 18.002 21L21.002 21.002L24.002 21.004Z" fill="#344048"/>
<path d="M42.002 21.002C42.002 21.396 42.0796 21.7861 42.2304 22.1501C42.3812 22.514 42.6021 22.8448 42.8807 23.1233C43.1593 23.4019 43.49 23.6229 43.854 23.7737C44.218 23.9244 44.6081 24.002 45.002 24.002C45.396 24.002 45.7861 23.9244 46.1501 23.7737C46.5141 23.6229 46.8448 23.4019 47.1234 23.1233C47.4019 22.8448 47.6229 22.514 47.7737 22.1501C47.9244 21.7861 48.002 21.396 48.002 21.002H45.002L42.002 21.002Z" fill="#C4C4C4"/>
<path d="M48.002 21.004C48.0023 20.6101 47.925 20.2199 47.7744 19.8558C47.6239 19.4917 47.4032 19.1609 47.1248 18.8821C46.8464 18.6034 46.5158 18.3822 46.1519 18.2311C45.7881 18.0801 45.398 18.0023 45.004 18.002C44.6101 18.0017 44.2199 18.0791 43.8558 18.2296C43.4918 18.3801 43.1609 18.6009 42.8821 18.8793C42.6034 19.1576 42.3822 19.4882 42.2312 19.8521C42.0801 20.216 42.0023 20.606 42.002 21L45.002 21.002L48.002 21.004Z" fill="#344048"/>
<path d="M30.002 21.002C30.002 21.396 30.0796 21.7861 30.2304 22.1501C30.3812 22.514 30.6021 22.8448 30.8807 23.1233C31.1593 23.4019 31.49 23.6229 31.854 23.7737C32.218 23.9244 32.6081 24.002 33.002 24.002C33.396 24.002 33.7861 23.9244 34.1501 23.7737C34.5141 23.6229 34.8448 23.4019 35.1234 23.1233C35.4019 22.8448 35.6229 22.514 35.7737 22.1501C35.9244 21.7861 36.002 21.396 36.002 21.002H33.002L30.002 21.002Z" fill="#C4C4C4"/>
<path d="M36.002 21.004C36.0023 20.6101 35.925 20.2199 35.7744 19.8558C35.6239 19.4917 35.4032 19.1609 35.1248 18.8821C34.8464 18.6034 34.5158 18.3822 34.1519 18.2311C33.7881 18.0801 33.398 18.0023 33.004 18.002C32.6101 18.0017 32.2199 18.0791 31.8558 18.2296C31.4918 18.3801 31.1609 18.6009 30.8821 18.8793C30.6034 19.1576 30.3822 19.4882 30.2312 19.8521C30.0801 20.216 30.0023 20.606 30.002 21L33.002 21.002L36.002 21.004Z" fill="#344048"/>
<path d="M6.00204 21.002C6.00204 21.396 6.07964 21.7861 6.23041 22.1501C6.38117 22.514 6.60215 22.8448 6.88072 23.1233C7.1593 23.4019 7.49002 23.6229 7.85399 23.7737C8.21797 23.9244 8.60808 24.002 9.00204 24.002C9.39601 24.002 9.78612 23.9244 10.1501 23.7737C10.5141 23.6229 10.8448 23.4019 11.1234 23.1233C11.4019 22.8448 11.6229 22.514 11.7737 22.1501C11.9244 21.7861 12.002 21.396 12.002 21.002H9.00204L6.00204 21.002Z" fill="#C4C4C4"/>
<path d="M12.002 21.004C12.0023 20.6101 11.925 20.2199 11.7744 19.8558C11.6239 19.4917 11.4032 19.1609 11.1248 18.8821C10.8464 18.6034 10.5158 18.3822 10.1519 18.2311C9.78806 18.0801 9.39801 18.0023 9.00404 18.002C8.61008 18.0017 8.21992 18.0791 7.85584 18.2296C7.49176 18.3801 7.16089 18.6009 6.88213 18.8793C6.60337 19.1576 6.38217 19.4882 6.23116 19.8521C6.08015 20.216 6.00229 20.606 6.00202 21L9.00202 21.002L12.002 21.004Z" fill="#344048"/>
</svg>
