<svg width="58" height="58" viewBox="0 0 58 58" fill="none" xmlns="http://www.w3.org/2000/svg">
<path d="M26.8787 19.1213C27.1573 19.3999 27.488 19.6209 27.8519 19.7716C28.2159 19.9224 28.606 20 29 20C29.394 20 29.7841 19.9224 30.148 19.7716C30.512 19.6209 30.8427 19.3999 31.1213 19.1213C31.3999 18.8427 31.6209 18.512 31.7716 18.1481C31.9224 17.7841 32 17.394 32 17C32 16.606 31.9224 16.2159 31.7716 15.8519C31.6209 15.488 31.3999 15.1573 31.1213 14.8787L29 17L26.8787 19.1213Z" fill="#C4C4C4"/>
<path d="M31.1227 14.8801C30.8443 14.6013 30.5138 14.3801 30.1499 14.2291C29.786 14.0781 29.396 14.0002 29.002 14C28.608 13.9997 28.2179 14.077 27.8538 14.2275C27.4897 14.3781 27.1588 14.5988 26.8801 14.8772C26.6013 15.1556 26.3801 15.4862 26.2291 15.85C26.0781 16.2139 26.0002 16.604 26 16.9979C25.9997 17.3919 26.077 17.7821 26.2276 18.1461C26.3781 18.5102 26.5988 18.8411 26.8772 19.1198L29 16.9999L31.1227 14.8801Z" fill="#344048"/>
<path d="M32.8807 13.1234C33.1593 13.402 33.49 13.6229 33.854 13.7737C34.218 13.9245 34.6081 14.0021 35.002 14.0021C35.396 14.0021 35.7861 13.9245 36.1501 13.7737C36.5141 13.6229 36.8448 13.402 37.1234 13.1234C37.4019 12.8448 37.6229 12.5141 37.7737 12.1501C37.9244 11.7861 38.002 11.396 38.002 11.0021C38.002 10.6081 37.9244 10.218 37.7737 9.85402C37.6229 9.49005 37.4019 9.15933 37.1234 8.88075L35.002 11.0021L32.8807 13.1234Z" fill="#C4C4C4"/>
<path d="M37.1248 8.88213C36.8464 8.60337 36.5158 8.38217 36.1519 8.23116C35.7881 8.08015 35.398 8.00229 35.004 8.00203C34.6101 8.00176 34.2199 8.07909 33.8558 8.22961C33.4918 8.38013 33.1609 8.60089 32.8821 8.87928C32.6034 9.15766 32.3822 9.48823 32.2312 9.85211C32.0801 10.216 32.0023 10.606 32.002 11C32.0018 11.394 32.0791 11.7841 32.2296 12.1482C32.3801 12.5123 32.6009 12.8432 32.8793 13.1219L35.002 11.002L37.1248 8.88213Z" fill="#344048"/>
<path d="M44.8807 13.1234C45.1593 13.402 45.49 13.6229 45.854 13.7737C46.218 13.9245 46.6081 14.0021 47.002 14.0021C47.396 14.0021 47.7861 13.9245 48.1501 13.7737C48.5141 13.6229 48.8448 13.402 49.1234 13.1234C49.4019 12.8448 49.6229 12.5141 49.7737 12.1501C49.9244 11.7861 50.002 11.396 50.002 11.0021C50.002 10.6081 49.9244 10.218 49.7737 9.85402C49.6229 9.49005 49.4019 9.15933 49.1234 8.88075L47.002 11.0021L44.8807 13.1234Z" fill="#C4C4C4"/>
<path d="M49.1248 8.88213C48.8464 8.60337 48.5158 8.38217 48.1519 8.23116C47.7881 8.08015 47.398 8.00229 47.004 8.00203C46.6101 8.00176 46.2199 8.07909 45.8558 8.22961C45.4918 8.38013 45.1609 8.60089 44.8821 8.87928C44.6034 9.15766 44.3822 9.48823 44.2312 9.85211C44.0801 10.216 44.0023 10.606 44.002 11C44.0018 11.394 44.0791 11.7841 44.2296 12.1482C44.3801 12.5123 44.6009 12.8432 44.8793 13.1219L47.002 11.002L49.1248 8.88213Z" fill="#344048"/>
<path d="M20.8807 13.1234C21.1593 13.402 21.49 13.6229 21.854 13.7737C22.218 13.9245 22.6081 14.0021 23.002 14.0021C23.396 14.0021 23.7861 13.9245 24.1501 13.7737C24.5141 13.6229 24.8448 13.402 25.1234 13.1234C25.4019 12.8448 25.6229 12.5141 25.7737 12.1501C25.9244 11.7861 26.002 11.396 26.002 11.0021C26.002 10.6081 25.9244 10.218 25.7737 9.85402C25.6229 9.49005 25.4019 9.15933 25.1234 8.88075L23.002 11.0021L20.8807 13.1234Z" fill="#C4C4C4"/>
<path d="M25.1248 8.88213C24.8464 8.60337 24.5158 8.38217 24.1519 8.23116C23.7881 8.08015 23.398 8.00229 23.004 8.00203C22.6101 8.00176 22.2199 8.07909 21.8558 8.22961C21.4918 8.38013 21.1609 8.60089 20.8821 8.87928C20.6034 9.15766 20.3822 9.48823 20.2312 9.85211C20.0801 10.216 20.0023 10.606 20.002 11C20.0018 11.394 20.0791 11.7841 20.2296 12.1482C20.3801 12.5123 20.6009 12.8432 20.8793 13.1219L23.002 11.002L25.1248 8.88213Z" fill="#344048"/>
<path d="M8.88072 13.1234C9.1593 13.402 9.49001 13.6229 9.85399 13.7737C10.218 13.9245 10.6081 14.0021 11.002 14.0021C11.396 14.0021 11.7861 13.9245 12.1501 13.7737C12.5141 13.6229 12.8448 13.402 13.1234 13.1234C13.4019 12.8448 13.6229 12.5141 13.7737 12.1501C13.9244 11.7861 14.002 11.396 14.002 11.0021C14.002 10.6081 13.9244 10.218 13.7737 9.85402C13.6229 9.49005 13.4019 9.15933 13.1234 8.88075L11.002 11.0021L8.88072 13.1234Z" fill="#C4C4C4"/>
<path d="M13.1248 8.88213C12.8464 8.60337 12.5158 8.38217 12.1519 8.23116C11.7881 8.08015 11.398 8.00229 11.004 8.00203C10.6101 8.00176 10.2199 8.07909 9.85584 8.22961C9.49176 8.38013 9.16089 8.60089 8.88213 8.87928C8.60337 9.15766 8.38216 9.48823 8.23116 9.85211C8.08015 10.216 8.00229 10.606 8.00202 11C8.00176 11.394 8.07909 11.7841 8.22961 12.1482C8.38013 12.5123 8.60088 12.8432 8.87927 13.1219L11.002 11.002L13.1248 8.88213Z" fill="#344048"/>
<path d="M2.88072 19.1234C3.1593 19.402 3.49001 19.6229 3.85399 19.7737C4.21797 19.9245 4.60807 20.0021 5.00204 20.0021C5.39601 20.0021 5.78611 19.9245 6.15009 19.7737C6.51407 19.6229 6.84478 19.402 7.12336 19.1234C7.40194 18.8448 7.62291 18.5141 7.77368 18.1501C7.92444 17.7861 8.00204 17.396 8.00204 17.0021C8.00204 16.6081 7.92444 16.218 7.77368 15.854C7.62291 15.49 7.40194 15.1593 7.12336 14.8808L5.00204 17.0021L2.88072 19.1234Z" fill="#C4C4C4"/>
<path d="M7.12477 14.8821C6.84638 14.6034 6.51581 14.3822 6.15194 14.2312C5.78806 14.0802 5.39801 14.0023 5.00404 14.002C4.61008 14.0018 4.21992 14.0791 3.85584 14.2296C3.49176 14.3801 3.16089 14.6009 2.88213 14.8793C2.60337 15.1577 2.38216 15.4882 2.23116 15.8521C2.08015 16.216 2.00229 16.606 2.00202 17C2.00176 17.394 2.07909 17.7841 2.22961 18.1482C2.38013 18.5123 2.60088 18.8432 2.87927 19.1219L5.00202 17.002L7.12477 14.8821Z" fill="#344048"/>
<path d="M8.88072 13.1234C9.1593 13.402 9.49001 13.6229 9.85399 13.7737C10.218 13.9245 10.6081 14.0021 11.002 14.0021C11.396 14.0021 11.7861 13.9245 12.1501 13.7737C12.5141 13.6229 12.8448 13.402 13.1234 13.1234C13.4019 12.8448 13.6229 12.5141 13.7737 12.1501C13.9244 11.7861 14.002 11.396 14.002 11.0021C14.002 10.6081 13.9244 10.218 13.7737 9.85402C13.6229 9.49005 13.4019 9.15933 13.1234 8.88075L11.002 11.0021L8.88072 13.1234Z" fill="#C4C4C4"/>
<path d="M13.1248 8.88213C12.8464 8.60337 12.5158 8.38217 12.1519 8.23116C11.7881 8.08015 11.398 8.00229 11.004 8.00203C10.6101 8.00176 10.2199 8.07909 9.85584 8.22961C9.49176 8.38013 9.16089 8.60089 8.88213 8.87928C8.60337 9.15766 8.38216 9.48823 8.23116 9.85211C8.08015 10.216 8.00229 10.606 8.00202 11C8.00176 11.394 8.07909 11.7841 8.22961 12.1482C8.38013 12.5123 8.60088 12.8432 8.87927 13.1219L11.002 11.002L13.1248 8.88213Z" fill="#344048"/>
<path d="M14.8807 19.1234C15.1593 19.402 15.49 19.6229 15.854 19.7737C16.218 19.9245 16.6081 20.0021 17.002 20.0021C17.396 20.0021 17.7861 19.9245 18.1501 19.7737C18.5141 19.6229 18.8448 19.402 19.1234 19.1234C19.4019 18.8448 19.6229 18.5141 19.7737 18.1501C19.9244 17.7861 20.002 17.396 20.002 17.0021C20.002 16.6081 19.9244 16.218 19.7737 15.854C19.6229 15.49 19.4019 15.1593 19.1234 14.8808L17.002 17.0021L14.8807 19.1234Z" fill="#C4C4C4"/>
<path d="M19.1248 14.8821C18.8464 14.6034 18.5158 14.3822 18.1519 14.2312C17.7881 14.0802 17.398 14.0023 17.004 14.002C16.6101 14.0018 16.2199 14.0791 15.8558 14.2296C15.4918 14.3801 15.1609 14.6009 14.8821 14.8793C14.6034 15.1577 14.3822 15.4882 14.2312 15.8521C14.0801 16.216 14.0023 16.606 14.002 17C14.0018 17.394 14.0791 17.7841 14.2296 18.1482C14.3801 18.5123 14.6009 18.8432 14.8793 19.1219L17.002 17.002L19.1248 14.8821Z" fill="#344048"/>
<path d="M50.8807 19.1234C51.1593 19.402 51.49 19.6229 51.854 19.7737C52.218 19.9245 52.6081 20.0021 53.002 20.0021C53.396 20.0021 53.7861 19.9245 54.1501 19.7737C54.5141 19.6229 54.8448 19.402 55.1234 19.1234C55.4019 18.8448 55.6229 18.5141 55.7737 18.1501C55.9244 17.7861 56.002 17.396 56.002 17.0021C56.002 16.6081 55.9244 16.218 55.7737 15.854C55.6229 15.49 55.4019 15.1593 55.1234 14.8808L53.002 17.0021L50.8807 19.1234Z" fill="#C4C4C4"/>
<path d="M55.1248 14.8821C54.8464 14.6034 54.5158 14.3822 54.1519 14.2312C53.7881 14.0802 53.398 14.0023 53.004 14.002C52.6101 14.0018 52.2199 14.0791 51.8558 14.2296C51.4918 14.3801 51.1609 14.6009 50.8821 14.8793C50.6034 15.1577 50.3822 15.4882 50.2312 15.8521C50.0801 16.216 50.0023 16.606 50.002 17C50.0018 17.394 50.0791 17.7841 50.2296 18.1482C50.3801 18.5123 50.6009 18.8432 50.8793 19.1219L53.002 17.002L55.1248 14.8821Z" fill="#344048"/>
<path d="M38.8807 19.1234C39.1593 19.402 39.49 19.6229 39.854 19.7737C40.218 19.9245 40.6081 20.0021 41.002 20.0021C41.396 20.0021 41.7861 19.9245 42.1501 19.7737C42.5141 19.6229 42.8448 19.402 43.1234 19.1234C43.4019 18.8448 43.6229 18.5141 43.7737 18.1501C43.9244 17.7861 44.002 17.396 44.002 17.0021C44.002 16.6081 43.9244 16.218 43.7737 15.854C43.6229 15.49 43.4019 15.1593 43.1234 14.8808L41.002 17.0021L38.8807 19.1234Z" fill="#C4C4C4"/>
<path d="M43.1248 14.8821C42.8464 14.6034 42.5158 14.3822 42.1519 14.2312C41.7881 14.0802 41.398 14.0023 41.004 14.002C40.6101 14.0018 40.2199 14.0791 39.8558 14.2296C39.4918 14.3801 39.1609 14.6009 38.8821 14.8793C38.6034 15.1577 38.3822 15.4882 38.2312 15.8521C38.0801 16.216 38.0023 16.606 38.002 17C38.0018 17.394 38.0791 17.7841 38.2296 18.1482C38.3801 18.5123 38.6009 18.8432 38.8793 19.1219L41.002 17.002L43.1248 14.8821Z" fill="#344048"/>
<path d="M19.1213 14.8787C20.2929 16.0503 20.2929 17.9497 19.1213 19.1213C17.9498 20.2929 16.0503 20.2929 14.8787 19.1213C13.7071 17.9497 13.7071 16.0503 14.8787 14.8787C16.0503 13.7071 17.9498 13.7071 19.1213 14.8787ZM15.4248 18.5752C16.2947 19.4452 17.7053 19.4452 18.5753 18.5752C19.4452 17.7053 19.4452 16.2947 18.5753 15.4248C17.7053 14.5548 16.2947 14.5548 15.4248 15.4248C14.5548 16.2947 14.5548 17.7053 15.4248 18.5752Z" fill="#C4C4C4"/>
<path d="M26.8787 19.1214C27.1573 19.4 27.488 19.621 27.8519 19.7718C28.2159 19.9225 28.606 20.0001 29 20.0001C29.394 20.0001 29.7841 19.9225 30.148 19.7718C30.512 19.621 30.8427 19.4 31.1213 19.1214C31.3999 18.8429 31.6209 18.5121 31.7716 18.1482C31.9224 17.7842 32 17.3941 32 17.0001C32 16.6062 31.9224 16.216 31.7716 15.8521C31.6209 15.4881 31.3999 15.1574 31.1213 14.8788L29 17.0001L26.8787 19.1214Z" fill="#C4C4C4"/>
<path d="M31.1227 14.8802C30.8443 14.6014 30.5138 14.3802 30.1499 14.2292C29.786 14.0782 29.396 14.0003 29.002 14.0001C28.608 13.9998 28.2179 14.0771 27.8538 14.2277C27.4897 14.3782 27.1588 14.5989 26.8801 14.8773C26.6013 15.1557 26.3801 15.4863 26.2291 15.8502C26.0781 16.214 26.0002 16.6041 26 16.9981C25.9997 17.392 26.077 17.7822 26.2276 18.1463C26.3781 18.5103 26.5988 18.8412 26.8772 19.12L29 17.0001L31.1227 14.8802Z" fill="#344048"/>
<path d="M2.88072 19.1234C3.1593 19.402 3.49001 19.6229 3.85399 19.7737C4.21797 19.9245 4.60807 20.0021 5.00204 20.0021C5.39601 20.0021 5.78611 19.9245 6.15009 19.7737C6.51407 19.6229 6.84478 19.402 7.12336 19.1234C7.40194 18.8448 7.62291 18.5141 7.77368 18.1501C7.92444 17.7861 8.00204 17.396 8.00204 17.0021C8.00204 16.6081 7.92444 16.218 7.77368 15.854C7.62291 15.49 7.40194 15.1593 7.12336 14.8808L5.00204 17.0021L2.88072 19.1234Z" fill="#C4C4C4"/>
<path d="M7.12477 14.8821C6.84638 14.6034 6.51581 14.3822 6.15194 14.2312C5.78806 14.0802 5.39801 14.0023 5.00404 14.002C4.61008 14.0018 4.21992 14.0791 3.85584 14.2296C3.49176 14.3801 3.16089 14.6009 2.88213 14.8793C2.60337 15.1577 2.38216 15.4882 2.23116 15.8521C2.08015 16.216 2.00229 16.606 2.00202 17C2.00176 17.394 2.07909 17.7841 2.22961 18.1482C2.38013 18.5123 2.60088 18.8432 2.87927 19.1219L5.00202 17.002L7.12477 14.8821Z" fill="#344048"/>
<path d="M14.8807 19.1234C15.1593 19.402 15.49 19.6229 15.854 19.7737C16.218 19.9245 16.6081 20.0021 17.002 20.0021C17.396 20.0021 17.7861 19.9245 18.1501 19.7737C18.5141 19.6229 18.8448 19.402 19.1234 19.1234C19.4019 18.8448 19.6229 18.5141 19.7737 18.1501C19.9244 17.7861 20.002 17.396 20.002 17.0021C20.002 16.6081 19.9244 16.218 19.7737 15.854C19.6229 15.49 19.4019 15.1593 19.1234 14.8808L17.002 17.0021L14.8807 19.1234Z" fill="#C4C4C4"/>
<path d="M19.1248 14.8821C18.8464 14.6034 18.5158 14.3822 18.1519 14.2312C17.7881 14.0802 17.398 14.0023 17.004 14.002C16.6101 14.0018 16.2199 14.0791 15.8558 14.2296C15.4918 14.3801 15.1609 14.6009 14.8821 14.8793C14.6034 15.1577 14.3822 15.4882 14.2312 15.8521C14.0801 16.216 14.0023 16.606 14.002 17C14.0018 17.394 14.0791 17.7841 14.2296 18.1482C14.3801 18.5123 14.6009 18.8432 14.8793 19.1219L17.002 17.002L19.1248 14.8821Z" fill="#344048"/>
<path d="M50.8807 19.1234C51.1593 19.402 51.49 19.6229 51.854 19.7737C52.218 19.9245 52.6081 20.0021 53.002 20.0021C53.396 20.0021 53.7861 19.9245 54.1501 19.7737C54.5141 19.6229 54.8448 19.402 55.1234 19.1234C55.4019 18.8448 55.6229 18.5141 55.7737 18.1501C55.9244 17.7861 56.002 17.396 56.002 17.0021C56.002 16.6081 55.9244 16.218 55.7737 15.854C55.6229 15.49 55.4019 15.1593 55.1234 14.8808L53.002 17.0021L50.8807 19.1234Z" fill="#C4C4C4"/>
<path d="M55.1248 14.8821C54.8464 14.6034 54.5158 14.3822 54.1519 14.2312C53.7881 14.0802 53.398 14.0023 53.004 14.002C52.6101 14.0018 52.2199 14.0791 51.8558 14.2296C51.4918 14.3801 51.1609 14.6009 50.8821 14.8793C50.6034 15.1577 50.3822 15.4882 50.2312 15.8521C50.0801 16.216 50.0023 16.606 50.002 17C50.0018 17.394 50.0791 17.7841 50.2296 18.1482C50.3801 18.5123 50.6009 18.8432 50.8793 19.1219L53.002 17.002L55.1248 14.8821Z" fill="#344048"/>
<path d="M38.8807 19.1234C39.1593 19.402 39.49 19.6229 39.854 19.7737C40.218 19.9245 40.6081 20.0021 41.002 20.0021C41.396 20.0021 41.7861 19.9245 42.1501 19.7737C42.5141 19.6229 42.8448 19.402 43.1234 19.1234C43.4019 18.8448 43.6229 18.5141 43.7737 18.1501C43.9244 17.7861 44.002 17.396 44.002 17.0021C44.002 16.6081 43.9244 16.218 43.7737 15.854C43.6229 15.49 43.4019 15.1593 43.1234 14.8808L41.002 17.0021L38.8807 19.1234Z" fill="#C4C4C4"/>
<path d="M43.1248 14.8821C42.8464 14.6034 42.5158 14.3822 42.1519 14.2312C41.7881 14.0802 41.398 14.0023 41.004 14.002C40.6101 14.0018 40.2199 14.0791 39.8558 14.2296C39.4918 14.3801 39.1609 14.6009 38.8821 14.8793C38.6034 15.1577 38.3822 15.4882 38.2312 15.8521C38.0801 16.216 38.0023 16.606 38.002 17C38.0018 17.394 38.0791 17.7841 38.2296 18.1482C38.3801 18.5123 38.6009 18.8432 38.8793 19.1219L41.002 17.002L43.1248 14.8821Z" fill="#344048"/>
<path d="M26.8807 7.1234C27.1593 7.40197 27.49 7.62295 27.854 7.77371C28.218 7.92448 28.6081 8.00208 29.002 8.00208C29.396 8.00208 29.7861 7.92448 30.1501 7.77371C30.5141 7.62295 30.8448 7.40197 31.1234 7.1234C31.4019 6.84482 31.6229 6.5141 31.7737 6.15013C31.9244 5.78615 32.002 5.39604 32.002 5.00208C32.002 4.60811 31.9244 4.218 31.7737 3.85402C31.6229 3.49005 31.4019 3.15933 31.1234 2.88075L29.002 5.00208L26.8807 7.1234Z" fill="#C4C4C4"/>
<path d="M31.1248 2.88213C30.8464 2.60337 30.5158 2.38217 30.1519 2.23116C29.7881 2.08015 29.398 2.00229 29.004 2.00203C28.6101 2.00176 28.2199 2.07909 27.8558 2.22961C27.4918 2.38013 27.1609 2.60089 26.8821 2.87928C26.6034 3.15766 26.3822 3.48823 26.2312 3.85211C26.0801 4.21598 26.0023 4.60604 26.002 5C26.0018 5.39397 26.0791 5.78413 26.2296 6.14821C26.3801 6.51229 26.6009 6.84315 26.8793 7.12192L29.002 5.00202L31.1248 2.88213Z" fill="#344048"/>
<path d="M50.8807 7.1234C51.1593 7.40197 51.49 7.62295 51.854 7.77371C52.218 7.92448 52.6081 8.00208 53.002 8.00208C53.396 8.00208 53.7861 7.92448 54.1501 7.77371C54.5141 7.62295 54.8448 7.40197 55.1234 7.1234C55.4019 6.84482 55.6229 6.5141 55.7737 6.15013C55.9244 5.78615 56.002 5.39604 56.002 5.00208C56.002 4.60811 55.9244 4.218 55.7737 3.85402C55.6229 3.49005 55.4019 3.15933 55.1234 2.88075L53.002 5.00208L50.8807 7.1234Z" fill="#C4C4C4"/>
<path d="M55.1248 2.88213C54.8464 2.60337 54.5158 2.38217 54.1519 2.23116C53.7881 2.08015 53.398 2.00229 53.004 2.00203C52.6101 2.00176 52.2199 2.07909 51.8558 2.22961C51.4918 2.38013 51.1609 2.60089 50.8821 2.87928C50.6034 3.15766 50.3822 3.48823 50.2312 3.85211C50.0801 4.21598 50.0023 4.60604 50.002 5C50.0018 5.39397 50.0791 5.78413 50.2296 6.14821C50.3801 6.51229 50.6009 6.84315 50.8793 7.12192L53.002 5.00202L55.1248 2.88213Z" fill="#344048"/>
<path d="M2.88072 7.1234C3.1593 7.40197 3.49001 7.62295 3.85399 7.77371C4.21797 7.92448 4.60807 8.00208 5.00204 8.00208C5.39601 8.00208 5.78611 7.92448 6.15009 7.77371C6.51407 7.62295 6.84478 7.40197 7.12336 7.1234C7.40194 6.84482 7.62291 6.5141 7.77368 6.15013C7.92444 5.78615 8.00204 5.39604 8.00204 5.00208C8.00204 4.60811 7.92444 4.218 7.77368 3.85402C7.62291 3.49005 7.40194 3.15933 7.12336 2.88075L5.00204 5.00208L2.88072 7.1234Z" fill="#C4C4C4"/>
<path d="M7.12477 2.88213C6.84638 2.60337 6.51581 2.38217 6.15194 2.23116C5.78806 2.08015 5.39801 2.00229 5.00404 2.00203C4.61008 2.00176 4.21992 2.07909 3.85584 2.22961C3.49176 2.38013 3.16089 2.60089 2.88213 2.87928C2.60337 3.15766 2.38216 3.48823 2.23116 3.85211C2.08015 4.21598 2.00229 4.60604 2.00202 5C2.00176 5.39397 2.07909 5.78413 2.22961 6.14821C2.38013 6.51229 2.60088 6.84315 2.87927 7.12192L5.00202 5.00202L7.12477 2.88213Z" fill="#344048"/>
<path d="M38.8807 7.1234C39.1593 7.40197 39.49 7.62295 39.854 7.77371C40.218 7.92448 40.6081 8.00208 41.002 8.00208C41.396 8.00208 41.7861 7.92448 42.1501 7.77371C42.5141 7.62295 42.8448 7.40197 43.1234 7.1234C43.4019 6.84482 43.6229 6.5141 43.7737 6.15013C43.9244 5.78615 44.002 5.39604 44.002 5.00208C44.002 4.60811 43.9244 4.218 43.7737 3.85402C43.6229 3.49005 43.4019 3.15933 43.1234 2.88075L41.002 5.00208L38.8807 7.1234Z" fill="#C4C4C4"/>
<path d="M43.1248 2.88213C42.8464 2.60337 42.5158 2.38217 42.1519 2.23116C41.7881 2.08015 41.398 2.00229 41.004 2.00203C40.6101 2.00176 40.2199 2.07909 39.8558 2.22961C39.4918 2.38013 39.1609 2.60089 38.8821 2.87928C38.6034 3.15766 38.3822 3.48823 38.2312 3.85211C38.0801 4.21598 38.0023 4.60604 38.002 5C38.0018 5.39397 38.0791 5.78413 38.2296 6.14821C38.3801 6.51229 38.6009 6.84315 38.8793 7.12192L41.002 5.00202L43.1248 2.88213Z" fill="#344048"/>
<path d="M14.8807 7.1234C15.1593 7.40197 15.49 7.62295 15.854 7.77371C16.218 7.92448 16.6081 8.00208 17.002 8.00208C17.396 8.00208 17.7861 7.92448 18.1501 7.77371C18.5141 7.62295 18.8448 7.40197 19.1234 7.1234C19.4019 6.84482 19.6229 6.5141 19.7737 6.15013C19.9244 5.78615 20.002 5.39604 20.002 5.00208C20.002 4.60811 19.9244 4.218 19.7737 3.85402C19.6229 3.49005 19.4019 3.15933 19.1234 2.88075L17.002 5.00208L14.8807 7.1234Z" fill="#C4C4C4"/>
<path d="M19.1248 2.88213C18.8464 2.60337 18.5158 2.38217 18.1519 2.23116C17.7881 2.08015 17.398 2.00229 17.004 2.00203C16.6101 2.00176 16.2199 2.07909 15.8558 2.22961C15.4918 2.38013 15.1609 2.60089 14.8821 2.87928C14.6034 3.15766 14.3822 3.48823 14.2312 3.85211C14.0801 4.21598 14.0023 4.60604 14.002 5C14.0018 5.39397 14.0791 5.78413 14.2296 6.14821C14.3801 6.51229 14.6009 6.84315 14.8793 7.12192L17.002 5.00202L19.1248 2.88213Z" fill="#344048"/>
<path d="M27.1242 31.3668C27.4028 31.6454 27.7335 31.8664 28.0975 32.0171C28.4614 32.1679 28.8516 32.2455 29.2455 32.2455C29.6395 32.2455 30.0296 32.1679 30.3936 32.0171C30.7575 31.8664 31.0883 31.6454 31.3668 31.3668C31.6454 31.0882 31.8664 30.7575 32.0172 30.3935C32.1679 30.0296 32.2455 29.6394 32.2455 29.2455C32.2455 28.8515 32.1679 28.4614 32.0172 28.0974C31.8664 27.7335 31.6454 27.4027 31.3668 27.1242L29.2455 29.2455L27.1242 31.3668Z" fill="#C4C4C4"/>
<path d="M31.3682 27.1255C31.0899 26.8468 30.7593 26.6256 30.3954 26.4746C30.0315 26.3236 29.6415 26.2457 29.2475 26.2454C28.8536 26.2452 28.4634 26.3225 28.0993 26.473C27.7352 26.6235 27.4044 26.8443 27.1256 27.1227C26.8468 27.4011 26.6256 27.7316 26.4746 28.0955C26.3236 28.4594 26.2458 28.8494 26.2455 29.2434C26.2452 29.6374 26.3226 30.0275 26.4731 30.3916C26.6236 30.7557 26.8444 31.0866 27.1227 31.3653L29.2455 29.2454L31.3682 27.1255Z" fill="#344048"/>
<path d="M51.1242 31.3668C51.4028 31.6454 51.7335 31.8664 52.0975 32.0171C52.4614 32.1679 52.8516 32.2455 53.2455 32.2455C53.6395 32.2455 54.0296 32.1679 54.3936 32.0171C54.7575 31.8664 55.0883 31.6454 55.3668 31.3668C55.6454 31.0882 55.8664 30.7575 56.0172 30.3935C56.1679 30.0296 56.2455 29.6394 56.2455 29.2455C56.2455 28.8515 56.1679 28.4614 56.0172 28.0974C55.8664 27.7335 55.6454 27.4027 55.3668 27.1242L53.2455 29.2455L51.1242 31.3668Z" fill="#C4C4C4"/>
<path d="M55.3682 27.1255C55.0899 26.8468 54.7593 26.6256 54.3954 26.4746C54.0315 26.3236 53.6415 26.2457 53.2475 26.2454C52.8536 26.2452 52.4634 26.3225 52.0993 26.473C51.7352 26.6235 51.4044 26.8443 51.1256 27.1227C50.8468 27.4011 50.6256 27.7316 50.4746 28.0955C50.3236 28.4594 50.2458 28.8494 50.2455 29.2434C50.2452 29.6374 50.3226 30.0275 50.4731 30.3916C50.6236 30.7557 50.8444 31.0866 51.1227 31.3653L53.2455 29.2454L55.3682 27.1255Z" fill="#344048"/>
<path d="M3.1242 31.3668C3.40277 31.6454 3.73349 31.8664 4.09747 32.0171C4.46144 32.1679 4.85155 32.2455 5.24552 32.2455C5.63948 32.2455 6.02959 32.1679 6.39357 32.0171C6.75754 31.8664 7.08826 31.6454 7.36684 31.3668C7.64541 31.0882 7.86639 30.7575 8.01716 30.3935C8.16792 30.0296 8.24552 29.6394 8.24552 29.2455C8.24552 28.8515 8.16792 28.4614 8.01716 28.0974C7.86639 27.7335 7.64541 27.4027 7.36684 27.1242L5.24552 29.2455L3.1242 31.3668Z" fill="#C4C4C4"/>
<path d="M7.36825 27.1255C7.08986 26.8468 6.75929 26.6256 6.39541 26.4746C6.03154 26.3236 5.64148 26.2457 5.24752 26.2454C4.85355 26.2452 4.46339 26.3225 4.09931 26.473C3.73524 26.6235 3.40437 26.8443 3.12561 27.1227C2.84684 27.4011 2.62564 27.7316 2.47463 28.0955C2.32362 28.4594 2.24576 28.8494 2.2455 29.2434C2.24523 29.6374 2.32257 30.0275 2.47309 30.3916C2.6236 30.7557 2.84436 31.0866 3.12275 31.3653L5.2455 29.2454L7.36825 27.1255Z" fill="#344048"/>
<path d="M39.1242 31.3668C39.4028 31.6454 39.7335 31.8664 40.0975 32.0171C40.4614 32.1679 40.8516 32.2455 41.2455 32.2455C41.6395 32.2455 42.0296 32.1679 42.3936 32.0171C42.7575 31.8664 43.0883 31.6454 43.3668 31.3668C43.6454 31.0882 43.8664 30.7575 44.0172 30.3935C44.1679 30.0296 44.2455 29.6394 44.2455 29.2455C44.2455 28.8515 44.1679 28.4614 44.0172 28.0974C43.8664 27.7335 43.6454 27.4027 43.3668 27.1242L41.2455 29.2455L39.1242 31.3668Z" fill="#C4C4C4"/>
<path d="M43.3682 27.1255C43.0899 26.8468 42.7593 26.6256 42.3954 26.4746C42.0315 26.3236 41.6415 26.2457 41.2475 26.2454C40.8536 26.2452 40.4634 26.3225 40.0993 26.473C39.7352 26.6235 39.4044 26.8443 39.1256 27.1227C38.8468 27.4011 38.6256 27.7316 38.4746 28.0955C38.3236 28.4594 38.2458 28.8494 38.2455 29.2434C38.2452 29.6374 38.3226 30.0275 38.4731 30.3916C38.6236 30.7557 38.8444 31.0866 39.1227 31.3653L41.2455 29.2454L43.3682 27.1255Z" fill="#344048"/>
<path d="M15.1242 31.3668C15.4028 31.6454 15.7335 31.8664 16.0975 32.0171C16.4614 32.1679 16.8516 32.2455 17.2455 32.2455C17.6395 32.2455 18.0296 32.1679 18.3936 32.0171C18.7575 31.8664 19.0883 31.6454 19.3668 31.3668C19.6454 31.0882 19.8664 30.7575 20.0172 30.3935C20.1679 30.0296 20.2455 29.6394 20.2455 29.2455C20.2455 28.8515 20.1679 28.4614 20.0172 28.0974C19.8664 27.7335 19.6454 27.4027 19.3668 27.1242L17.2455 29.2455L15.1242 31.3668Z" fill="#C4C4C4"/>
<path d="M19.3682 27.1255C19.0899 26.8468 18.7593 26.6256 18.3954 26.4746C18.0315 26.3236 17.6415 26.2457 17.2475 26.2454C16.8536 26.2452 16.4634 26.3225 16.0993 26.473C15.7352 26.6235 15.4044 26.8443 15.1256 27.1227C14.8468 27.4011 14.6256 27.7316 14.4746 28.0955C14.3236 28.4594 14.2458 28.8494 14.2455 29.2434C14.2452 29.6374 14.3226 30.0275 14.4731 30.3916C14.6236 30.7557 14.8444 31.0866 15.1227 31.3653L17.2455 29.2454L19.3682 27.1255Z" fill="#344048"/>
<path d="M21.1242 37.3668C21.4028 37.6454 21.7335 37.8664 22.0975 38.0171C22.4614 38.1679 22.8516 38.2455 23.2455 38.2455C23.6395 38.2455 24.0296 38.1679 24.3936 38.0171C24.7575 37.8664 25.0883 37.6454 25.3668 37.3668C25.6454 37.0882 25.8664 36.7575 26.0172 36.3935C26.1679 36.0296 26.2455 35.6394 26.2455 35.2455C26.2455 34.8515 26.1679 34.4614 26.0172 34.0974C25.8664 33.7335 25.6454 33.4027 25.3668 33.1242L23.2455 35.2455L21.1242 37.3668Z" fill="#C4C4C4"/>
<path d="M25.3682 33.1255C25.0899 32.8468 24.7593 32.6256 24.3954 32.4746C24.0315 32.3236 23.6415 32.2457 23.2475 32.2454C22.8536 32.2452 22.4634 32.3225 22.0993 32.473C21.7352 32.6235 21.4044 32.8443 21.1256 33.1227C20.8468 33.4011 20.6256 33.7316 20.4746 34.0955C20.3236 34.4594 20.2458 34.8494 20.2455 35.2434C20.2452 35.6374 20.3226 36.0275 20.4731 36.3916C20.6236 36.7557 20.8444 37.0866 21.1227 37.3653L23.2455 35.2454L25.3682 33.1255Z" fill="#344048"/>
<path d="M45.1242 37.3668C45.4028 37.6454 45.7335 37.8664 46.0975 38.0171C46.4614 38.1679 46.8516 38.2455 47.2455 38.2455C47.6395 38.2455 48.0296 38.1679 48.3936 38.0171C48.7575 37.8664 49.0883 37.6454 49.3668 37.3668C49.6454 37.0882 49.8664 36.7575 50.0172 36.3935C50.1679 36.0296 50.2455 35.6394 50.2455 35.2455C50.2455 34.8515 50.1679 34.4614 50.0172 34.0974C49.8664 33.7335 49.6454 33.4027 49.3668 33.1242L47.2455 35.2455L45.1242 37.3668Z" fill="#C4C4C4"/>
<path d="M49.3682 33.1255C49.0899 32.8468 48.7593 32.6256 48.3954 32.4746C48.0315 32.3236 47.6415 32.2457 47.2475 32.2454C46.8536 32.2452 46.4634 32.3225 46.0993 32.473C45.7352 32.6235 45.4044 32.8443 45.1256 33.1227C44.8468 33.4011 44.6256 33.7316 44.4746 34.0955C44.3236 34.4594 44.2458 34.8494 44.2455 35.2434C44.2452 35.6374 44.3226 36.0275 44.4731 36.3916C44.6236 36.7557 44.8444 37.0866 45.1227 37.3653L47.2455 35.2454L49.3682 33.1255Z" fill="#344048"/>
<path d="M33.1242 37.3668C33.4028 37.6454 33.7335 37.8664 34.0975 38.0171C34.4614 38.1679 34.8516 38.2455 35.2455 38.2455C35.6395 38.2455 36.0296 38.1679 36.3936 38.0171C36.7575 37.8664 37.0883 37.6454 37.3668 37.3668C37.6454 37.0882 37.8664 36.7575 38.0172 36.3935C38.1679 36.0296 38.2455 35.6394 38.2455 35.2455C38.2455 34.8515 38.1679 34.4614 38.0172 34.0974C37.8664 33.7335 37.6454 33.4027 37.3668 33.1242L35.2455 35.2455L33.1242 37.3668Z" fill="#C4C4C4"/>
<path d="M37.3682 33.1255C37.0899 32.8468 36.7593 32.6256 36.3954 32.4746C36.0315 32.3236 35.6415 32.2457 35.2475 32.2454C34.8536 32.2452 34.4634 32.3225 34.0993 32.473C33.7352 32.6235 33.4044 32.8443 33.1256 33.1227C32.8468 33.4011 32.6256 33.7316 32.4746 34.0955C32.3236 34.4594 32.2458 34.8494 32.2455 35.2434C32.2452 35.6374 32.3226 36.0275 32.4731 36.3916C32.6236 36.7557 32.8444 37.0866 33.1227 37.3653L35.2455 35.2454L37.3682 33.1255Z" fill="#344048"/>
<path d="M9.1242 37.3668C9.40277 37.6454 9.73349 37.8664 10.0975 38.0171C10.4614 38.1679 10.8516 38.2455 11.2455 38.2455C11.6395 38.2455 12.0296 38.1679 12.3936 38.0171C12.7575 37.8664 13.0883 37.6454 13.3668 37.3668C13.6454 37.0882 13.8664 36.7575 14.0172 36.3935C14.1679 36.0296 14.2455 35.6394 14.2455 35.2455C14.2455 34.8515 14.1679 34.4614 14.0172 34.0974C13.8664 33.7335 13.6454 33.4027 13.3668 33.1242L11.2455 35.2455L9.1242 37.3668Z" fill="#C4C4C4"/>
<path d="M13.3682 33.1255C13.0899 32.8468 12.7593 32.6256 12.3954 32.4746C12.0315 32.3236 11.6415 32.2457 11.2475 32.2454C10.8536 32.2452 10.4634 32.3225 10.0993 32.473C9.73524 32.6235 9.40437 32.8443 9.12561 33.1227C8.84684 33.4011 8.62564 33.7316 8.47463 34.0955C8.32362 34.4594 8.24576 34.8494 8.2455 35.2434C8.24523 35.6374 8.32257 36.0275 8.47309 36.3916C8.6236 36.7557 8.84436 37.0866 9.12275 37.3653L11.2455 35.2454L13.3682 33.1255Z" fill="#344048"/>
<path d="M27.1242 43.3668C27.4028 43.6454 27.7335 43.8664 28.0975 44.0171C28.4614 44.1679 28.8516 44.2455 29.2455 44.2455C29.6395 44.2455 30.0296 44.1679 30.3936 44.0171C30.7575 43.8664 31.0883 43.6454 31.3668 43.3668C31.6454 43.0882 31.8664 42.7575 32.0172 42.3935C32.1679 42.0296 32.2455 41.6394 32.2455 41.2455C32.2455 40.8515 32.1679 40.4614 32.0172 40.0974C31.8664 39.7335 31.6454 39.4027 31.3668 39.1242L29.2455 41.2455L27.1242 43.3668Z" fill="#C4C4C4"/>
<path d="M31.3682 39.1255C31.0899 38.8468 30.7593 38.6256 30.3954 38.4746C30.0315 38.3236 29.6415 38.2457 29.2475 38.2454C28.8536 38.2452 28.4634 38.3225 28.0993 38.473C27.7352 38.6235 27.4044 38.8443 27.1256 39.1227C26.8468 39.4011 26.6256 39.7316 26.4746 40.0955C26.3236 40.4594 26.2458 40.8494 26.2455 41.2434C26.2452 41.6374 26.3226 42.0275 26.4731 42.3916C26.6236 42.7557 26.8444 43.0866 27.1227 43.3653L29.2455 41.2454L31.3682 39.1255Z" fill="#344048"/>
<path d="M51.1242 43.3668C51.4028 43.6454 51.7335 43.8664 52.0975 44.0171C52.4614 44.1679 52.8516 44.2455 53.2455 44.2455C53.6395 44.2455 54.0296 44.1679 54.3936 44.0171C54.7575 43.8664 55.0883 43.6454 55.3668 43.3668C55.6454 43.0882 55.8664 42.7575 56.0172 42.3935C56.1679 42.0296 56.2455 41.6394 56.2455 41.2455C56.2455 40.8515 56.1679 40.4614 56.0172 40.0974C55.8664 39.7335 55.6454 39.4027 55.3668 39.1242L53.2455 41.2455L51.1242 43.3668Z" fill="#C4C4C4"/>
<path d="M55.3682 39.1255C55.0899 38.8468 54.7593 38.6256 54.3954 38.4746C54.0315 38.3236 53.6415 38.2457 53.2475 38.2454C52.8536 38.2452 52.4634 38.3225 52.0993 38.473C51.7352 38.6235 51.4044 38.8443 51.1256 39.1227C50.8468 39.4011 50.6256 39.7316 50.4746 40.0955C50.3236 40.4594 50.2458 40.8494 50.2455 41.2434C50.2452 41.6374 50.3226 42.0275 50.4731 42.3916C50.6236 42.7557 50.8444 43.0866 51.1227 43.3653L53.2455 41.2454L55.3682 39.1255Z" fill="#344048"/>
<path d="M3.1242 43.3668C3.40277 43.6454 3.73349 43.8664 4.09747 44.0171C4.46144 44.1679 4.85155 44.2455 5.24552 44.2455C5.63948 44.2455 6.02959 44.1679 6.39357 44.0171C6.75754 43.8664 7.08826 43.6454 7.36684 43.3668C7.64541 43.0882 7.86639 42.7575 8.01716 42.3935C8.16792 42.0296 8.24552 41.6394 8.24552 41.2455C8.24552 40.8515 8.16792 40.4614 8.01716 40.0974C7.86639 39.7335 7.64541 39.4027 7.36684 39.1242L5.24552 41.2455L3.1242 43.3668Z" fill="#C4C4C4"/>
<path d="M7.36825 39.1255C7.08986 38.8468 6.75929 38.6256 6.39541 38.4746C6.03154 38.3236 5.64148 38.2457 5.24752 38.2454C4.85355 38.2452 4.46339 38.3225 4.09931 38.473C3.73524 38.6235 3.40437 38.8443 3.12561 39.1227C2.84684 39.4011 2.62564 39.7316 2.47463 40.0955C2.32362 40.4594 2.24576 40.8494 2.2455 41.2434C2.24523 41.6374 2.32257 42.0275 2.47309 42.3916C2.6236 42.7557 2.84436 43.0866 3.12275 43.3653L5.2455 41.2454L7.36825 39.1255Z" fill="#344048"/>
<path d="M39.1242 43.3668C39.4028 43.6454 39.7335 43.8664 40.0975 44.0171C40.4614 44.1679 40.8516 44.2455 41.2455 44.2455C41.6395 44.2455 42.0296 44.1679 42.3936 44.0171C42.7575 43.8664 43.0883 43.6454 43.3668 43.3668C43.6454 43.0882 43.8664 42.7575 44.0172 42.3935C44.1679 42.0296 44.2455 41.6394 44.2455 41.2455C44.2455 40.8515 44.1679 40.4614 44.0172 40.0974C43.8664 39.7335 43.6454 39.4027 43.3668 39.1242L41.2455 41.2455L39.1242 43.3668Z" fill="#C4C4C4"/>
<path d="M43.3682 39.1255C43.0899 38.8468 42.7593 38.6256 42.3954 38.4746C42.0315 38.3236 41.6415 38.2457 41.2475 38.2454C40.8536 38.2452 40.4634 38.3225 40.0993 38.473C39.7352 38.6235 39.4044 38.8443 39.1256 39.1227C38.8468 39.4011 38.6256 39.7316 38.4746 40.0955C38.3236 40.4594 38.2458 40.8494 38.2455 41.2434C38.2452 41.6374 38.3226 42.0275 38.4731 42.3916C38.6236 42.7557 38.8444 43.0866 39.1227 43.3653L41.2455 41.2454L43.3682 39.1255Z" fill="#344048"/>
<path d="M15.1242 43.3668C15.4028 43.6454 15.7335 43.8664 16.0975 44.0171C16.4614 44.1679 16.8516 44.2455 17.2455 44.2455C17.6395 44.2455 18.0296 44.1679 18.3936 44.0171C18.7575 43.8664 19.0883 43.6454 19.3668 43.3668C19.6454 43.0882 19.8664 42.7575 20.0172 42.3935C20.1679 42.0296 20.2455 41.6394 20.2455 41.2455C20.2455 40.8515 20.1679 40.4614 20.0172 40.0974C19.8664 39.7335 19.6454 39.4027 19.3668 39.1242L17.2455 41.2455L15.1242 43.3668Z" fill="#C4C4C4"/>
<path d="M19.3682 39.1255C19.0899 38.8468 18.7593 38.6256 18.3954 38.4746C18.0315 38.3236 17.6415 38.2457 17.2475 38.2454C16.8536 38.2452 16.4634 38.3225 16.0993 38.473C15.7352 38.6235 15.4044 38.8443 15.1256 39.1227C14.8468 39.4011 14.6256 39.7316 14.4746 40.0955C14.3236 40.4594 14.2458 40.8494 14.2455 41.2434C14.2452 41.6374 14.3226 42.0275 14.4731 42.3916C14.6236 42.7557 14.8444 43.0866 15.1227 43.3653L17.2455 41.2454L19.3682 39.1255Z" fill="#344048"/>
<path d="M27.1242 55.3668C27.4028 55.6454 27.7335 55.8664 28.0975 56.0171C28.4614 56.1679 28.8516 56.2455 29.2455 56.2455C29.6395 56.2455 30.0296 56.1679 30.3936 56.0171C30.7575 55.8664 31.0883 55.6454 31.3668 55.3668C31.6454 55.0882 31.8664 54.7575 32.0172 54.3935C32.1679 54.0296 32.2455 53.6394 32.2455 53.2455C32.2455 52.8515 32.1679 52.4614 32.0172 52.0974C31.8664 51.7335 31.6454 51.4027 31.3668 51.1242L29.2455 53.2455L27.1242 55.3668Z" fill="#C4C4C4"/>
<path d="M31.3682 51.1255C31.0899 50.8468 30.7593 50.6256 30.3954 50.4746C30.0315 50.3236 29.6415 50.2457 29.2475 50.2454C28.8536 50.2452 28.4634 50.3225 28.0993 50.473C27.7352 50.6235 27.4044 50.8443 27.1256 51.1227C26.8468 51.4011 26.6256 51.7316 26.4746 52.0955C26.3236 52.4594 26.2458 52.8494 26.2455 53.2434C26.2452 53.6374 26.3226 54.0275 26.4731 54.3916C26.6236 54.7557 26.8444 55.0866 27.1227 55.3653L29.2455 53.2454L31.3682 51.1255Z" fill="#344048"/>
<path d="M51.1242 55.3668C51.4028 55.6454 51.7335 55.8664 52.0975 56.0171C52.4614 56.1679 52.8516 56.2455 53.2455 56.2455C53.6395 56.2455 54.0296 56.1679 54.3936 56.0171C54.7575 55.8664 55.0883 55.6454 55.3668 55.3668C55.6454 55.0882 55.8664 54.7575 56.0172 54.3935C56.1679 54.0296 56.2455 53.6394 56.2455 53.2455C56.2455 52.8515 56.1679 52.4614 56.0172 52.0974C55.8664 51.7335 55.6454 51.4027 55.3668 51.1242L53.2455 53.2455L51.1242 55.3668Z" fill="#C4C4C4"/>
<path d="M55.3682 51.1255C55.0899 50.8468 54.7593 50.6256 54.3954 50.4746C54.0315 50.3236 53.6415 50.2457 53.2475 50.2454C52.8536 50.2452 52.4634 50.3225 52.0993 50.473C51.7352 50.6235 51.4044 50.8443 51.1256 51.1227C50.8468 51.4011 50.6256 51.7316 50.4746 52.0955C50.3236 52.4594 50.2458 52.8494 50.2455 53.2434C50.2452 53.6374 50.3226 54.0275 50.4731 54.3916C50.6236 54.7557 50.8444 55.0866 51.1227 55.3653L53.2455 53.2454L55.3682 51.1255Z" fill="#344048"/>
<path d="M3.1242 55.3668C3.40277 55.6454 3.73349 55.8664 4.09747 56.0171C4.46144 56.1679 4.85155 56.2455 5.24552 56.2455C5.63948 56.2455 6.02959 56.1679 6.39357 56.0171C6.75754 55.8664 7.08826 55.6454 7.36684 55.3668C7.64541 55.0882 7.86639 54.7575 8.01716 54.3935C8.16792 54.0296 8.24552 53.6394 8.24552 53.2455C8.24552 52.8515 8.16792 52.4614 8.01716 52.0974C7.86639 51.7335 7.64541 51.4027 7.36684 51.1242L5.24552 53.2455L3.1242 55.3668Z" fill="#C4C4C4"/>
<path d="M7.36825 51.1255C7.08986 50.8468 6.75929 50.6256 6.39541 50.4746C6.03154 50.3236 5.64148 50.2457 5.24752 50.2454C4.85355 50.2452 4.46339 50.3225 4.09931 50.473C3.73524 50.6235 3.40437 50.8443 3.12561 51.1227C2.84684 51.4011 2.62564 51.7316 2.47463 52.0955C2.32362 52.4594 2.24576 52.8494 2.2455 53.2434C2.24523 53.6374 2.32257 54.0275 2.47309 54.3916C2.6236 54.7557 2.84436 55.0866 3.12275 55.3653L5.2455 53.2454L7.36825 51.1255Z" fill="#344048"/>
<path d="M39.1242 55.3668C39.4028 55.6454 39.7335 55.8664 40.0975 56.0171C40.4614 56.1679 40.8516 56.2455 41.2455 56.2455C41.6395 56.2455 42.0296 56.1679 42.3936 56.0171C42.7575 55.8664 43.0883 55.6454 43.3668 55.3668C43.6454 55.0882 43.8664 54.7575 44.0172 54.3935C44.1679 54.0296 44.2455 53.6394 44.2455 53.2455C44.2455 52.8515 44.1679 52.4614 44.0172 52.0974C43.8664 51.7335 43.6454 51.4027 43.3668 51.1242L41.2455 53.2455L39.1242 55.3668Z" fill="#C4C4C4"/>
<path d="M43.3682 51.1255C43.0899 50.8468 42.7593 50.6256 42.3954 50.4746C42.0315 50.3236 41.6415 50.2457 41.2475 50.2454C40.8536 50.2452 40.4634 50.3225 40.0993 50.473C39.7352 50.6235 39.4044 50.8443 39.1256 51.1227C38.8468 51.4011 38.6256 51.7316 38.4746 52.0955C38.3236 52.4594 38.2458 52.8494 38.2455 53.2434C38.2452 53.6374 38.3226 54.0275 38.4731 54.3916C38.6236 54.7557 38.8444 55.0866 39.1227 55.3653L41.2455 53.2454L43.3682 51.1255Z" fill="#344048"/>
<path d="M15.1242 55.3668C15.4028 55.6454 15.7335 55.8664 16.0975 56.0171C16.4614 56.1679 16.8516 56.2455 17.2455 56.2455C17.6395 56.2455 18.0296 56.1679 18.3936 56.0171C18.7575 55.8664 19.0883 55.6454 19.3668 55.3668C19.6454 55.0882 19.8664 54.7575 20.0172 54.3935C20.1679 54.0296 20.2455 53.6394 20.2455 53.2455C20.2455 52.8515 20.1679 52.4614 20.0172 52.0974C19.8664 51.7335 19.6454 51.4027 19.3668 51.1242L17.2455 53.2455L15.1242 55.3668Z" fill="#C4C4C4"/>
<path d="M19.3682 51.1255C19.0899 50.8468 18.7593 50.6256 18.3954 50.4746C18.0315 50.3236 17.6415 50.2457 17.2475 50.2454C16.8536 50.2452 16.4634 50.3225 16.0993 50.473C15.7352 50.6235 15.4044 50.8443 15.1256 51.1227C14.8468 51.4011 14.6256 51.7316 14.4746 52.0955C14.3236 52.4594 14.2458 52.8494 14.2455 53.2434C14.2452 53.6374 14.3226 54.0275 14.4731 54.3916C14.6236 54.7557 14.8444 55.0866 15.1227 55.3653L17.2455 53.2454L19.3682 51.1255Z" fill="#344048"/>
<path d="M21.1242 49.3668C21.4028 49.6454 21.7335 49.8664 22.0975 50.0171C22.4614 50.1679 22.8516 50.2455 23.2455 50.2455C23.6395 50.2455 24.0296 50.1679 24.3936 50.0171C24.7575 49.8664 25.0883 49.6454 25.3668 49.3668C25.6454 49.0882 25.8664 48.7575 26.0172 48.3935C26.1679 48.0296 26.2455 47.6394 26.2455 47.2455C26.2455 46.8515 26.1679 46.4614 26.0172 46.0974C25.8664 45.7335 25.6454 45.4027 25.3668 45.1242L23.2455 47.2455L21.1242 49.3668Z" fill="#C4C4C4"/>
<path d="M25.3682 45.1255C25.0899 44.8468 24.7593 44.6256 24.3954 44.4746C24.0315 44.3236 23.6415 44.2457 23.2475 44.2454C22.8536 44.2452 22.4634 44.3225 22.0993 44.473C21.7352 44.6235 21.4044 44.8443 21.1256 45.1227C20.8468 45.4011 20.6256 45.7316 20.4746 46.0955C20.3236 46.4594 20.2458 46.8494 20.2455 47.2434C20.2452 47.6374 20.3226 48.0275 20.4731 48.3916C20.6236 48.7557 20.8444 49.0866 21.1227 49.3653L23.2455 47.2454L25.3682 45.1255Z" fill="#344048"/>
<path d="M45.1242 49.3668C45.4028 49.6454 45.7335 49.8664 46.0975 50.0171C46.4614 50.1679 46.8516 50.2455 47.2455 50.2455C47.6395 50.2455 48.0296 50.1679 48.3936 50.0171C48.7575 49.8664 49.0883 49.6454 49.3668 49.3668C49.6454 49.0882 49.8664 48.7575 50.0172 48.3935C50.1679 48.0296 50.2455 47.6394 50.2455 47.2455C50.2455 46.8515 50.1679 46.4614 50.0172 46.0974C49.8664 45.7335 49.6454 45.4027 49.3668 45.1242L47.2455 47.2455L45.1242 49.3668Z" fill="#C4C4C4"/>
<path d="M49.3682 45.1255C49.0899 44.8468 48.7593 44.6256 48.3954 44.4746C48.0315 44.3236 47.6415 44.2457 47.2475 44.2454C46.8536 44.2452 46.4634 44.3225 46.0993 44.473C45.7352 44.6235 45.4044 44.8443 45.1256 45.1227C44.8468 45.4011 44.6256 45.7316 44.4746 46.0955C44.3236 46.4594 44.2458 46.8494 44.2455 47.2434C44.2452 47.6374 44.3226 48.0275 44.4731 48.3916C44.6236 48.7557 44.8444 49.0866 45.1227 49.3653L47.2455 47.2454L49.3682 45.1255Z" fill="#344048"/>
<path d="M33.1242 49.3668C33.4028 49.6454 33.7335 49.8664 34.0975 50.0171C34.4614 50.1679 34.8516 50.2455 35.2455 50.2455C35.6395 50.2455 36.0296 50.1679 36.3936 50.0171C36.7575 49.8664 37.0883 49.6454 37.3668 49.3668C37.6454 49.0882 37.8664 48.7575 38.0172 48.3935C38.1679 48.0296 38.2455 47.6394 38.2455 47.2455C38.2455 46.8515 38.1679 46.4614 38.0172 46.0974C37.8664 45.7335 37.6454 45.4027 37.3668 45.1242L35.2455 47.2455L33.1242 49.3668Z" fill="#C4C4C4"/>
<path d="M37.3682 45.1255C37.0899 44.8468 36.7593 44.6256 36.3954 44.4746C36.0315 44.3236 35.6415 44.2457 35.2475 44.2454C34.8536 44.2452 34.4634 44.3225 34.0993 44.473C33.7352 44.6235 33.4044 44.8443 33.1256 45.1227C32.8468 45.4011 32.6256 45.7316 32.4746 46.0955C32.3236 46.4594 32.2458 46.8494 32.2455 47.2434C32.2452 47.6374 32.3226 48.0275 32.4731 48.3916C32.6236 48.7557 32.8444 49.0866 33.1227 49.3653L35.2455 47.2454L37.3682 45.1255Z" fill="#344048"/>
<path d="M9.1242 49.3668C9.40277 49.6454 9.73349 49.8664 10.0975 50.0171C10.4614 50.1679 10.8516 50.2455 11.2455 50.2455C11.6395 50.2455 12.0296 50.1679 12.3936 50.0171C12.7575 49.8664 13.0883 49.6454 13.3668 49.3668C13.6454 49.0882 13.8664 48.7575 14.0172 48.3935C14.1679 48.0296 14.2455 47.6394 14.2455 47.2455C14.2455 46.8515 14.1679 46.4614 14.0172 46.0974C13.8664 45.7335 13.6454 45.4027 13.3668 45.1242L11.2455 47.2455L9.1242 49.3668Z" fill="#C4C4C4"/>
<path d="M13.3682 45.1255C13.0899 44.8468 12.7593 44.6256 12.3954 44.4746C12.0315 44.3236 11.6415 44.2457 11.2475 44.2454C10.8536 44.2452 10.4634 44.3225 10.0993 44.473C9.73524 44.6235 9.40437 44.8443 9.12561 45.1227C8.84684 45.4011 8.62564 45.7316 8.47463 46.0955C8.32362 46.4594 8.24576 46.8494 8.2455 47.2434C8.24523 47.6374 8.32257 48.0275 8.47309 48.3916C8.6236 48.7557 8.84436 49.0866 9.12275 49.3653L11.2455 47.2454L13.3682 45.1255Z" fill="#344048"/>
<path d="M20.8807 25.1234C21.1593 25.402 21.49 25.6229 21.854 25.7737C22.218 25.9245 22.6081 26.0021 23.002 26.0021C23.396 26.0021 23.7861 25.9245 24.1501 25.7737C24.5141 25.6229 24.8448 25.402 25.1234 25.1234C25.4019 24.8448 25.6229 24.5141 25.7737 24.1501C25.9244 23.7861 26.002 23.396 26.002 23.0021C26.002 22.6081 25.9244 22.218 25.7737 21.854C25.6229 21.49 25.4019 21.1593 25.1234 20.8808L23.002 23.0021L20.8807 25.1234Z" fill="#C4C4C4"/>
<path d="M25.1248 20.8821C24.8464 20.6034 24.5158 20.3822 24.1519 20.2312C23.7881 20.0802 23.398 20.0023 23.004 20.002C22.6101 20.0018 22.2199 20.0791 21.8558 20.2296C21.4918 20.3801 21.1609 20.6009 20.8821 20.8793C20.6034 21.1577 20.3822 21.4882 20.2312 21.8521C20.0801 22.216 20.0023 22.606 20.002 23C20.0018 23.394 20.0791 23.7841 20.2296 24.1482C20.3801 24.5123 20.6009 24.8432 20.8793 25.1219L23.002 23.002L25.1248 20.8821Z" fill="#344048"/>
<path d="M44.8807 25.1234C45.1593 25.402 45.49 25.6229 45.854 25.7737C46.218 25.9245 46.6081 26.0021 47.002 26.0021C47.396 26.0021 47.7861 25.9245 48.1501 25.7737C48.5141 25.6229 48.8448 25.402 49.1234 25.1234C49.4019 24.8448 49.6229 24.5141 49.7737 24.1501C49.9244 23.7861 50.002 23.396 50.002 23.0021C50.002 22.6081 49.9244 22.218 49.7737 21.854C49.6229 21.49 49.4019 21.1593 49.1234 20.8808L47.002 23.0021L44.8807 25.1234Z" fill="#C4C4C4"/>
<path d="M49.1248 20.8821C48.8464 20.6034 48.5158 20.3822 48.1519 20.2312C47.7881 20.0802 47.398 20.0023 47.004 20.002C46.6101 20.0018 46.2199 20.0791 45.8558 20.2296C45.4918 20.3801 45.1609 20.6009 44.8821 20.8793C44.6034 21.1577 44.3822 21.4882 44.2312 21.8521C44.0801 22.216 44.0023 22.606 44.002 23C44.0018 23.394 44.0791 23.7841 44.2296 24.1482C44.3801 24.5123 44.6009 24.8432 44.8793 25.1219L47.002 23.002L49.1248 20.8821Z" fill="#344048"/>
<path d="M32.8807 25.1234C33.1593 25.402 33.49 25.6229 33.854 25.7737C34.218 25.9245 34.6081 26.0021 35.002 26.0021C35.396 26.0021 35.7861 25.9245 36.1501 25.7737C36.5141 25.6229 36.8448 25.402 37.1234 25.1234C37.4019 24.8448 37.6229 24.5141 37.7737 24.1501C37.9244 23.7861 38.002 23.396 38.002 23.0021C38.002 22.6081 37.9244 22.218 37.7737 21.854C37.6229 21.49 37.4019 21.1593 37.1234 20.8808L35.002 23.0021L32.8807 25.1234Z" fill="#C4C4C4"/>
<path d="M37.1248 20.8821C36.8464 20.6034 36.5158 20.3822 36.1519 20.2312C35.7881 20.0802 35.398 20.0023 35.004 20.002C34.6101 20.0018 34.2199 20.0791 33.8558 20.2296C33.4918 20.3801 33.1609 20.6009 32.8821 20.8793C32.6034 21.1577 32.3822 21.4882 32.2312 21.8521C32.0801 22.216 32.0023 22.606 32.002 23C32.0018 23.394 32.0791 23.7841 32.2296 24.1482C32.3801 24.5123 32.6009 24.8432 32.8793 25.1219L35.002 23.002L37.1248 20.8821Z" fill="#344048"/>
<path d="M8.88072 25.1234C9.1593 25.402 9.49001 25.6229 9.85399 25.7737C10.218 25.9245 10.6081 26.0021 11.002 26.0021C11.396 26.0021 11.7861 25.9245 12.1501 25.7737C12.5141 25.6229 12.8448 25.402 13.1234 25.1234C13.4019 24.8448 13.6229 24.5141 13.7737 24.1501C13.9244 23.7861 14.002 23.396 14.002 23.0021C14.002 22.6081 13.9244 22.218 13.7737 21.854C13.6229 21.49 13.4019 21.1593 13.1234 20.8808L11.002 23.0021L8.88072 25.1234Z" fill="#C4C4C4"/>
<path d="M13.1248 20.8821C12.8464 20.6034 12.5158 20.3822 12.1519 20.2312C11.7881 20.0802 11.398 20.0023 11.004 20.002C10.6101 20.0018 10.2199 20.0791 9.85584 20.2296C9.49176 20.3801 9.16089 20.6009 8.88213 20.8793C8.60337 21.1577 8.38216 21.4882 8.23116 21.8521C8.08015 22.216 8.00229 22.606 8.00202 23C8.00176 23.394 8.07909 23.7841 8.22961 24.1482C8.38013 24.5123 8.60088 24.8432 8.87927 25.1219L11.002 23.002L13.1248 20.8821Z" fill="#344048"/>
</svg>
