<svg width="82" height="68" viewBox="0 0 82 68" fill="none" xmlns="http://www.w3.org/2000/svg">
<path d="M8.82349 16.0391L1.0267 20.5406" stroke="#344048"/>
<path d="M10.8235 19.5032L3.0267 24.0047" stroke="#344048"/>
<line x1="1.91104" y1="17" x2="6.41104" y2="24.7942" stroke="#344048"/>
<path d="M5.37515 15L9.87515 22.7942" stroke="#344048"/>
<path d="M36.8264 16.0391L29.0297 20.5406" stroke="#344048"/>
<path d="M38.8265 19.5032L31.0297 24.0047" stroke="#344048"/>
<line x1="29.914" y1="17" x2="34.414" y2="24.7942" stroke="#344048"/>
<path d="M33.3781 15L37.8781 22.7942" stroke="#344048"/>
<path d="M36.8264 30.0391L29.0297 34.5406" stroke="#344048"/>
<path d="M38.8265 33.5032L31.0297 38.0047" stroke="#344048"/>
<line x1="29.914" y1="31" x2="34.414" y2="38.7942" stroke="#344048"/>
<path d="M33.3781 29L37.8781 36.7942" stroke="#344048"/>
<path d="M36.8264 44.0391L29.0297 48.5406" stroke="#344048"/>
<path d="M38.8265 47.5032L31.0297 52.0047" stroke="#344048"/>
<line x1="29.914" y1="45" x2="34.414" y2="52.7942" stroke="#344048"/>
<path d="M33.3781 43L37.8781 50.7942" stroke="#344048"/>
<path d="M8.82645 30.0391L1.02966 34.5406" stroke="#344048"/>
<path d="M10.8265 33.5032L3.02966 38.0047" stroke="#344048"/>
<line x1="1.914" y1="31" x2="6.414" y2="38.7942" stroke="#344048"/>
<path d="M5.37811 29L9.87811 36.7942" stroke="#344048"/>
<path d="M8.82645 44.0391L1.02966 48.5406" stroke="#344048"/>
<path d="M10.8265 47.5032L3.02966 52.0047" stroke="#344048"/>
<line x1="1.914" y1="45" x2="6.414" y2="52.7942" stroke="#344048"/>
<path d="M5.37811 43L9.87811 50.7942" stroke="#344048"/>
<path d="M22.8264 44.0391L15.0297 48.5406" stroke="#344048"/>
<path d="M24.8265 47.5032L17.0297 52.0047" stroke="#344048"/>
<line x1="15.914" y1="45" x2="20.414" y2="52.7942" stroke="#344048"/>
<path d="M19.3781 43L23.8781 50.7942" stroke="#344048"/>
<path d="M22.8264 30.0391L15.0297 34.5406" stroke="#344048"/>
<path d="M24.8265 33.5032L17.0297 38.0047" stroke="#344048"/>
<line x1="15.914" y1="31" x2="20.414" y2="38.7942" stroke="#344048"/>
<path d="M19.3781 29L23.8781 36.7942" stroke="#344048"/>
<path d="M22.8264 16.0391L15.0297 20.5406" stroke="#344048"/>
<path d="M24.8265 19.5032L17.0297 24.0047" stroke="#344048"/>
<line x1="15.914" y1="17" x2="20.414" y2="24.7942" stroke="#344048"/>
<path d="M19.3781 15L23.8781 22.7942" stroke="#344048"/>
<path d="M50.8235 16.0391L43.0267 20.5406" stroke="#344048"/>
<path d="M52.8235 19.5032L45.0267 24.0047" stroke="#344048"/>
<line x1="43.911" y1="17" x2="48.411" y2="24.7942" stroke="#344048"/>
<path d="M47.3752 15L51.8752 22.7942" stroke="#344048"/>
<path d="M78.8264 16.0391L71.0296 20.5406" stroke="#344048"/>
<path d="M80.8264 19.5032L73.0296 24.0047" stroke="#344048"/>
<line x1="71.914" y1="17" x2="76.414" y2="24.7942" stroke="#344048"/>
<path d="M75.3781 15L79.8781 22.7942" stroke="#344048"/>
<path d="M78.8264 30.0391L71.0296 34.5406" stroke="#344048"/>
<path d="M80.8264 33.5032L73.0296 38.0047" stroke="#344048"/>
<line x1="71.914" y1="31" x2="76.414" y2="38.7942" stroke="#344048"/>
<path d="M75.3781 29L79.8781 36.7942" stroke="#344048"/>
<path d="M78.8264 44.0391L71.0296 48.5406" stroke="#344048"/>
<path d="M80.8264 47.5032L73.0296 52.0047" stroke="#344048"/>
<line x1="71.914" y1="45" x2="76.414" y2="52.7942" stroke="#344048"/>
<path d="M75.3781 43L79.8781 50.7942" stroke="#344048"/>
<path d="M50.8264 30.0391L43.0297 34.5406" stroke="#344048"/>
<path d="M52.8265 33.5032L45.0297 38.0047" stroke="#344048"/>
<line x1="43.914" y1="31" x2="48.414" y2="38.7942" stroke="#344048"/>
<path d="M47.3781 29L51.8781 36.7942" stroke="#344048"/>
<path d="M50.8264 44.0391L43.0297 48.5406" stroke="#344048"/>
<path d="M52.8265 47.5032L45.0297 52.0047" stroke="#344048"/>
<line x1="43.914" y1="45" x2="48.414" y2="52.7942" stroke="#344048"/>
<path d="M47.3781 43L51.8781 50.7942" stroke="#344048"/>
<path d="M64.8264 44.0391L57.0297 48.5406" stroke="#344048"/>
<path d="M66.8265 47.5032L59.0297 52.0047" stroke="#344048"/>
<line x1="57.914" y1="45" x2="62.414" y2="52.7942" stroke="#344048"/>
<path d="M61.3781 43L65.8781 50.7942" stroke="#344048"/>
<path d="M36.8235 58.0391L29.0267 62.5406" stroke="#344048"/>
<path d="M38.8235 61.5032L31.0267 66.0047" stroke="#344048"/>
<line x1="29.911" y1="59" x2="34.411" y2="66.7942" stroke="#344048"/>
<path d="M33.3752 57L37.8752 64.7942" stroke="#344048"/>
<path d="M8.82349 58.0391L1.0267 62.5406" stroke="#344048"/>
<path d="M10.8235 61.5032L3.0267 66.0047" stroke="#344048"/>
<line x1="1.91104" y1="59" x2="6.41104" y2="66.7942" stroke="#344048"/>
<path d="M5.37515 57L9.87515 64.7942" stroke="#344048"/>
<path d="M22.8235 58.0391L15.0267 62.5406" stroke="#344048"/>
<path d="M24.8235 61.5032L17.0267 66.0047" stroke="#344048"/>
<line x1="15.911" y1="59" x2="20.411" y2="66.7942" stroke="#344048"/>
<path d="M19.3752 57L23.8752 64.7942" stroke="#344048"/>
<path d="M78.8235 58.0391L71.0267 62.5406" stroke="#344048"/>
<path d="M80.8235 61.5032L73.0267 66.0047" stroke="#344048"/>
<line x1="71.911" y1="59" x2="76.411" y2="66.7942" stroke="#344048"/>
<path d="M75.3752 57L79.8752 64.7942" stroke="#344048"/>
<path d="M50.8235 58.0391L43.0267 62.5406" stroke="#344048"/>
<path d="M52.8235 61.5032L45.0267 66.0047" stroke="#344048"/>
<line x1="43.911" y1="59" x2="48.411" y2="66.7942" stroke="#344048"/>
<path d="M47.3752 57L51.8752 64.7942" stroke="#344048"/>
<path d="M64.8235 58.0391L57.0267 62.5406" stroke="#344048"/>
<path d="M66.8235 61.5032L59.0267 66.0047" stroke="#344048"/>
<line x1="57.911" y1="59" x2="62.411" y2="66.7942" stroke="#344048"/>
<path d="M61.3752 57L65.8752 64.7942" stroke="#344048"/>
<path d="M64.8264 30.0391L57.0297 34.5406" stroke="#344048"/>
<path d="M66.8265 33.5032L59.0297 38.0047" stroke="#344048"/>
<line x1="57.914" y1="31" x2="62.414" y2="38.7942" stroke="#344048"/>
<path d="M61.3781 29L65.8781 36.7942" stroke="#344048"/>
<path d="M64.8264 16.0391L57.0297 20.5406" stroke="#344048"/>
<path d="M66.8265 19.5032L59.0297 24.0047" stroke="#344048"/>
<line x1="57.914" y1="17" x2="62.414" y2="24.7942" stroke="#344048"/>
<path d="M61.3781 15L65.8781 22.7942" stroke="#344048"/>
<path d="M8.82349 2.0391L1.0267 6.54061" stroke="#344048"/>
<path d="M10.8235 5.50325L3.0267 10.0047" stroke="#344048"/>
<line x1="1.91104" y1="3" x2="6.41104" y2="10.7942" stroke="#344048"/>
<path d="M5.37515 1L9.87515 8.79423" stroke="#344048"/>
<path d="M36.8235 2.0391L29.0267 6.54061" stroke="#344048"/>
<path d="M38.8235 5.50325L31.0267 10.0047" stroke="#344048"/>
<line x1="29.911" y1="3" x2="34.411" y2="10.7942" stroke="#344048"/>
<path d="M33.3752 1L37.8752 8.79423" stroke="#344048"/>
<path d="M22.8235 2.0391L15.0267 6.54061" stroke="#344048"/>
<path d="M24.8235 5.50325L17.0267 10.0047" stroke="#344048"/>
<line x1="15.911" y1="3" x2="20.411" y2="10.7942" stroke="#344048"/>
<path d="M19.3752 1L23.8752 8.79423" stroke="#344048"/>
<path d="M50.8235 2.0391L43.0267 6.54061" stroke="#344048"/>
<path d="M52.8235 5.50325L45.0267 10.0047" stroke="#344048"/>
<line x1="43.911" y1="3" x2="48.411" y2="10.7942" stroke="#344048"/>
<path d="M47.3752 1L51.8752 8.79423" stroke="#344048"/>
<path d="M78.8235 2.0391L71.0267 6.54061" stroke="#344048"/>
<path d="M80.8235 5.50325L73.0267 10.0047" stroke="#344048"/>
<line x1="71.9111" y1="3" x2="76.4111" y2="10.7942" stroke="#344048"/>
<path d="M75.3752 1L79.8752 8.79423" stroke="#344048"/>
<path d="M64.8235 2.0391L57.0267 6.54061" stroke="#344048"/>
<path d="M66.8235 5.50325L59.0267 10.0047" stroke="#344048"/>
<line x1="57.911" y1="3" x2="62.411" y2="10.7942" stroke="#344048"/>
<path d="M61.3752 1L65.8752 8.79423" stroke="#344048"/>
</svg>
