<svg width="80" height="66" viewBox="0 0 80 66" fill="none" xmlns="http://www.w3.org/2000/svg">
<path d="M34.7933 29.2996L28.4272 35.6657" stroke="#70591C"/>
<path d="M37.6217 32.1281L31.2556 38.4941" stroke="#70591C"/>
<line x1="28.3565" y1="31.9526" x2="34.7205" y2="38.3165" stroke="#70591C"/>
<path d="M31.1849 29.1241L37.5489 35.4881" stroke="#70591C"/>
<path d="M34.7933 43.2996L28.4272 49.6657" stroke="#70591C"/>
<path d="M37.6217 46.1281L31.2556 52.4941" stroke="#70591C"/>
<line x1="28.3565" y1="45.9526" x2="34.7205" y2="52.3165" stroke="#70591C"/>
<path d="M31.1849 43.1241L37.5489 49.4881" stroke="#70591C"/>
<path d="M6.79327 29.2996L0.427221 35.6657" stroke="#70591C"/>
<path d="M9.62172 32.1281L3.25565 38.4941" stroke="#70591C"/>
<line x1="0.356525" y1="31.9526" x2="6.72049" y2="38.3165" stroke="#70591C"/>
<path d="M3.18495 29.1241L9.54891 35.4881" stroke="#70591C"/>
<path d="M6.79327 43.2996L0.427221 49.6657" stroke="#70591C"/>
<path d="M9.62172 46.1281L3.25565 52.4941" stroke="#70591C"/>
<line x1="0.356525" y1="45.9526" x2="6.72049" y2="52.3165" stroke="#70591C"/>
<path d="M3.18495 43.1241L9.54891 49.4881" stroke="#70591C"/>
<path d="M20.7933 43.2996L14.4272 49.6657" stroke="#344048"/>
<path d="M23.6217 46.1281L17.2556 52.4941" stroke="#344048"/>
<line x1="14.3565" y1="45.9526" x2="20.7205" y2="52.3165" stroke="#344048"/>
<path d="M17.185 43.1241L23.5489 49.4881" stroke="#344048"/>
<path d="M20.7933 29.2996L14.4272 35.6657" stroke="#344048"/>
<path d="M23.6217 32.1281L17.2556 38.4941" stroke="#344048"/>
<line x1="14.3565" y1="31.9526" x2="20.7205" y2="38.3165" stroke="#344048"/>
<path d="M17.185 29.1241L23.5489 35.4881" stroke="#344048"/>
<path d="M76.7932 29.2996L70.4272 35.6657" stroke="#344048"/>
<path d="M79.6217 32.1281L73.2556 38.4941" stroke="#344048"/>
<line x1="70.3565" y1="31.9526" x2="76.7205" y2="38.3165" stroke="#344048"/>
<path d="M73.185 29.1241L79.5489 35.4881" stroke="#344048"/>
<path d="M76.7932 43.2996L70.4272 49.6657" stroke="#344048"/>
<path d="M79.6217 46.1281L73.2556 52.4941" stroke="#344048"/>
<line x1="70.3565" y1="45.9526" x2="76.7205" y2="52.3165" stroke="#344048"/>
<path d="M73.185 43.1241L79.5489 49.4881" stroke="#344048"/>
<path d="M48.7933 29.2996L42.4272 35.6657" stroke="#344048"/>
<path d="M51.6217 32.1281L45.2557 38.4941" stroke="#344048"/>
<line x1="42.3565" y1="31.9526" x2="48.7205" y2="38.3165" stroke="#344048"/>
<path d="M45.1849 29.1241L51.5489 35.4881" stroke="#344048"/>
<path d="M48.7933 43.2996L42.4272 49.6657" stroke="#344048"/>
<path d="M51.6217 46.1281L45.2557 52.4941" stroke="#344048"/>
<line x1="42.3565" y1="45.9526" x2="48.7205" y2="52.3165" stroke="#344048"/>
<path d="M45.1849 43.1241L51.5489 49.4881" stroke="#344048"/>
<path d="M62.7933 43.2996L56.4272 49.6657" stroke="#70591C"/>
<path d="M65.6217 46.1281L59.2557 52.4941" stroke="#70591C"/>
<line x1="56.3565" y1="45.9526" x2="62.7205" y2="52.3165" stroke="#70591C"/>
<path d="M59.1849 43.1241L65.5489 49.4881" stroke="#70591C"/>
<path d="M20.7903 56.2996L14.4242 62.6657" stroke="#344048"/>
<path d="M23.6187 59.1281L17.2527 65.4941" stroke="#344048"/>
<line x1="14.3536" y1="58.9526" x2="20.7175" y2="65.3165" stroke="#344048"/>
<path d="M17.182 56.1241L23.5459 62.4881" stroke="#344048"/>
<path d="M76.7903 56.2996L70.4242 62.6657" stroke="#344048"/>
<path d="M79.6188 59.1281L73.2527 65.4941" stroke="#344048"/>
<line x1="70.3536" y1="58.9526" x2="76.7175" y2="65.3165" stroke="#344048"/>
<path d="M73.182 56.1241L79.5459 62.4881" stroke="#344048"/>
<path d="M6.7903 56.2996L0.424253 62.6657" stroke="#70591C"/>
<path d="M9.61876 59.1281L3.25268 65.4941" stroke="#70591C"/>
<line x1="0.353554" y1="58.9526" x2="6.71752" y2="65.3165" stroke="#70591C"/>
<path d="M3.18198 56.1241L9.54594 62.4881" stroke="#70591C"/>
<path d="M62.7903 56.2996L56.4242 62.6657" stroke="#70591C"/>
<path d="M65.6187 59.1281L59.2527 65.4941" stroke="#70591C"/>
<line x1="56.3536" y1="58.9526" x2="62.7175" y2="65.3165" stroke="#70591C"/>
<path d="M59.182 56.1241L65.546 62.4881" stroke="#70591C"/>
<path d="M34.7903 56.2996L28.4243 62.6657" stroke="#70591C"/>
<path d="M37.6188 59.1281L31.2527 65.4941" stroke="#70591C"/>
<line x1="28.3536" y1="58.9526" x2="34.7175" y2="65.3165" stroke="#70591C"/>
<path d="M31.182 56.1241L37.5459 62.4881" stroke="#70591C"/>
<path d="M48.7903 56.2996L42.4243 62.6657" stroke="#344048"/>
<path d="M51.6188 59.1281L45.2527 65.4941" stroke="#344048"/>
<line x1="42.3535" y1="58.9526" x2="48.7175" y2="65.3165" stroke="#344048"/>
<path d="M45.182 56.1241L51.5459 62.4881" stroke="#344048"/>
<path d="M34.7903 15.2996L28.4242 21.6657" stroke="#70591C"/>
<path d="M37.6187 18.1281L31.2527 24.4941" stroke="#70591C"/>
<line x1="28.3536" y1="17.9526" x2="34.7175" y2="24.3165" stroke="#70591C"/>
<path d="M31.182 15.1241L37.5459 21.4881" stroke="#70591C"/>
<path d="M6.7903 15.2996L0.424253 21.6657" stroke="#70591C"/>
<path d="M9.61876 18.1281L3.25268 24.4941" stroke="#70591C"/>
<line x1="0.353557" y1="17.9526" x2="6.71752" y2="24.3165" stroke="#70591C"/>
<path d="M3.18198 15.1241L9.54595 21.4881" stroke="#70591C"/>
<path d="M20.7903 15.2996L14.4243 21.6657" stroke="#344048"/>
<path d="M23.6188 18.1281L17.2527 24.4941" stroke="#344048"/>
<line x1="14.3536" y1="17.9526" x2="20.7175" y2="24.3165" stroke="#344048"/>
<path d="M17.182 15.1241L23.5459 21.4881" stroke="#344048"/>
<path d="M76.7903 15.2996L70.4242 21.6657" stroke="#344048"/>
<path d="M79.6187 18.1281L73.2527 24.4941" stroke="#344048"/>
<line x1="70.3536" y1="17.9526" x2="76.7175" y2="24.3165" stroke="#344048"/>
<path d="M73.182 15.1241L79.546 21.4881" stroke="#344048"/>
<path d="M48.7903 15.2996L42.4243 21.6657" stroke="#344048"/>
<path d="M51.6188 18.1281L45.2527 24.4941" stroke="#344048"/>
<line x1="42.3536" y1="17.9526" x2="48.7175" y2="24.3165" stroke="#344048"/>
<path d="M45.182 15.1241L51.5459 21.4881" stroke="#344048"/>
<path d="M62.7903 15.2996L56.4243 21.6657" stroke="#70591C"/>
<path d="M65.6188 18.1281L59.2527 24.4941" stroke="#70591C"/>
<line x1="56.3535" y1="17.9526" x2="62.7175" y2="24.3165" stroke="#70591C"/>
<path d="M59.182 15.1241L65.5459 21.4881" stroke="#70591C"/>
<path d="M62.7933 29.2996L56.4272 35.6657" stroke="#70591C"/>
<path d="M65.6217 32.1281L59.2557 38.4941" stroke="#70591C"/>
<line x1="56.3565" y1="31.9526" x2="62.7205" y2="38.3165" stroke="#70591C"/>
<path d="M59.1849 29.1241L65.5489 35.4881" stroke="#70591C"/>
<path d="M6.7903 1.29963L0.424253 7.66571" stroke="#70591C"/>
<path d="M9.61876 4.1281L3.25268 10.4941" stroke="#70591C"/>
<line x1="0.353557" y1="3.95257" x2="6.71752" y2="10.3165" stroke="#70591C"/>
<path d="M3.18198 1.12414L9.54595 7.48811" stroke="#70591C"/>
<path d="M34.7903 1.29963L28.4243 7.66571" stroke="#70591C"/>
<path d="M37.6188 4.1281L31.2527 10.4941" stroke="#70591C"/>
<line x1="28.3536" y1="3.95257" x2="34.7175" y2="10.3165" stroke="#70591C"/>
<path d="M31.182 1.12414L37.546 7.48811" stroke="#70591C"/>
<path d="M20.7903 1.29963L14.4243 7.66571" stroke="#344048"/>
<path d="M23.6188 4.1281L17.2527 10.4941" stroke="#344048"/>
<line x1="14.3536" y1="3.95257" x2="20.7175" y2="10.3165" stroke="#344048"/>
<path d="M17.182 1.12414L23.5459 7.48811" stroke="#344048"/>
<path d="M48.7903 1.29963L42.4243 7.66571" stroke="#344048"/>
<path d="M51.6188 4.1281L45.2527 10.4941" stroke="#344048"/>
<line x1="42.3536" y1="3.95257" x2="48.7175" y2="10.3165" stroke="#344048"/>
<path d="M45.182 1.12414L51.5459 7.48811" stroke="#344048"/>
<path d="M76.7903 1.29963L70.4242 7.66571" stroke="#344048"/>
<path d="M79.6188 4.1281L73.2527 10.4941" stroke="#344048"/>
<line x1="70.3536" y1="3.95257" x2="76.7176" y2="10.3165" stroke="#344048"/>
<path d="M73.182 1.12414L79.546 7.48811" stroke="#344048"/>
<path d="M62.7903 1.29963L56.4243 7.66571" stroke="#70591C"/>
<path d="M65.6188 4.1281L59.2527 10.4941" stroke="#70591C"/>
<line x1="56.3535" y1="3.95257" x2="62.7175" y2="10.3165" stroke="#70591C"/>
<path d="M59.182 1.12414L65.5459 7.48811" stroke="#70591C"/>
</svg>
