<svg width="54" height="48" viewBox="0 0 54 48" fill="none" xmlns="http://www.w3.org/2000/svg">
<path d="M3.14184 1C3.16085 2.24577 3.23576 3.51131 3.16266 4.75714C3.1548 4.89121 3.13168 5.00373 3.08829 5.12304" stroke="#C4C4C4" stroke-linecap="round" stroke-linejoin="round"/>
<path d="M1 2.84741C2.27615 2.8528 3.55867 2.83327 4.83449 2.88013C4.93915 2.88398 5.3256 2.86256 5.41754 2.9545" stroke="#C4C4C4" stroke-linecap="round" stroke-linejoin="round"/>
<path d="M11.1418 1C11.1609 2.24577 11.2358 3.51131 11.1627 4.75714C11.1548 4.89121 11.1317 5.00373 11.0883 5.12304" stroke="#C4C4C4" stroke-linecap="round" stroke-linejoin="round"/>
<path d="M9 2.84741C10.2761 2.8528 11.5587 2.83327 12.8345 2.88013C12.9392 2.88398 13.3256 2.86256 13.4175 2.9545" stroke="#C4C4C4" stroke-linecap="round" stroke-linejoin="round"/>
<path d="M11.1418 8C11.1609 9.24577 11.2358 10.5113 11.1627 11.7571C11.1548 11.8912 11.1317 12.0037 11.0883 12.123" stroke="#C4C4C4" stroke-linecap="round" stroke-linejoin="round"/>
<path d="M9 9.84741C10.2761 9.8528 11.5587 9.83327 12.8345 9.88013C12.9392 9.88398 13.3256 9.86256 13.4175 9.9545" stroke="#C4C4C4" stroke-linecap="round" stroke-linejoin="round"/>
<path d="M3.14184 8C3.16085 9.24577 3.23576 10.5113 3.16266 11.7571C3.1548 11.8912 3.13168 12.0037 3.08829 12.123" stroke="#C4C4C4" stroke-linecap="round" stroke-linejoin="round"/>
<path d="M1 9.84741C2.27615 9.8528 3.55867 9.83327 4.83449 9.88013C4.93915 9.88398 5.3256 9.86256 5.41754 9.9545" stroke="#C4C4C4" stroke-linecap="round" stroke-linejoin="round"/>
<path d="M3.14184 15C3.16085 16.2458 3.23576 17.5113 3.16266 18.7571C3.1548 18.8912 3.13168 19.0037 3.08829 19.123" stroke="#C4C4C4" stroke-linecap="round" stroke-linejoin="round"/>
<path d="M1 16.8474C2.27615 16.8528 3.55867 16.8333 4.83449 16.8801C4.93915 16.884 5.3256 16.8626 5.41754 16.9545" stroke="#C4C4C4" stroke-linecap="round" stroke-linejoin="round"/>
<path d="M11.1418 15C11.1609 16.2458 11.2358 17.5113 11.1627 18.7571C11.1548 18.8912 11.1317 19.0037 11.0883 19.123" stroke="#C4C4C4" stroke-linecap="round" stroke-linejoin="round"/>
<path d="M9 16.8474C10.2761 16.8528 11.5587 16.8333 12.8345 16.8801C12.9392 16.884 13.3256 16.8626 13.4175 16.9545" stroke="#C4C4C4" stroke-linecap="round" stroke-linejoin="round"/>
<path d="M11.1418 22C11.1609 23.2458 11.2358 24.5113 11.1627 25.7571C11.1548 25.8912 11.1317 26.0037 11.0883 26.123" stroke="#C4C4C4" stroke-linecap="round" stroke-linejoin="round"/>
<path d="M9 23.8474C10.2761 23.8528 11.5587 23.8333 12.8345 23.8801C12.9392 23.884 13.3256 23.8626 13.4175 23.9545" stroke="#C4C4C4" stroke-linecap="round" stroke-linejoin="round"/>
<path d="M3.14184 22C3.16085 23.2458 3.23576 24.5113 3.16266 25.7571C3.1548 25.8912 3.13168 26.0037 3.08829 26.123" stroke="#C4C4C4" stroke-linecap="round" stroke-linejoin="round"/>
<path d="M1 23.8474C2.27615 23.8528 3.55867 23.8333 4.83449 23.8801C4.93915 23.884 5.3256 23.8626 5.41754 23.9545" stroke="#C4C4C4" stroke-linecap="round" stroke-linejoin="round"/>
<path d="M3.14184 29C3.16085 30.2458 3.23576 31.5113 3.16266 32.7571C3.1548 32.8912 3.13168 33.0037 3.08829 33.123" stroke="#C4C4C4" stroke-linecap="round" stroke-linejoin="round"/>
<path d="M1 30.8474C2.27615 30.8528 3.55867 30.8333 4.83449 30.8801C4.93915 30.884 5.3256 30.8626 5.41754 30.9545" stroke="#C4C4C4" stroke-linecap="round" stroke-linejoin="round"/>
<path d="M11.1418 29C11.1609 30.2458 11.2358 31.5113 11.1627 32.7571C11.1548 32.8912 11.1317 33.0037 11.0883 33.123" stroke="#C4C4C4" stroke-linecap="round" stroke-linejoin="round"/>
<path d="M9 30.8474C10.2761 30.8528 11.5587 30.8333 12.8345 30.8801C12.9392 30.884 13.3256 30.8626 13.4175 30.9545" stroke="#C4C4C4" stroke-linecap="round" stroke-linejoin="round"/>
<path d="M11.1418 36C11.1609 37.2458 11.2358 38.5113 11.1627 39.7571C11.1548 39.8912 11.1317 40.0037 11.0883 40.123" stroke="#C4C4C4" stroke-linecap="round" stroke-linejoin="round"/>
<path d="M9 37.8474C10.2761 37.8528 11.5587 37.8333 12.8345 37.8801C12.9392 37.884 13.3256 37.8626 13.4175 37.9545" stroke="#C4C4C4" stroke-linecap="round" stroke-linejoin="round"/>
<path d="M3.14184 36C3.16085 37.2458 3.23576 38.5113 3.16266 39.7571C3.1548 39.8912 3.13168 40.0037 3.08829 40.123" stroke="#C4C4C4" stroke-linecap="round" stroke-linejoin="round"/>
<path d="M1 37.8474C2.27615 37.8528 3.55867 37.8333 4.83449 37.8801C4.93915 37.884 5.3256 37.8626 5.41754 37.9545" stroke="#C4C4C4" stroke-linecap="round" stroke-linejoin="round"/>
<path d="M11.1418 43C11.1609 44.2458 11.2358 45.5113 11.1627 46.7571C11.1548 46.8912 11.1317 47.0037 11.0883 47.123" stroke="#C4C4C4" stroke-linecap="round" stroke-linejoin="round"/>
<path d="M9 44.8474C10.2761 44.8528 11.5587 44.8333 12.8345 44.8801C12.9392 44.884 13.3256 44.8626 13.4175 44.9545" stroke="#C4C4C4" stroke-linecap="round" stroke-linejoin="round"/>
<path d="M3.14184 43C3.16085 44.2458 3.23576 45.5113 3.16266 46.7571C3.1548 46.8912 3.13168 47.0037 3.08829 47.123" stroke="#C4C4C4" stroke-linecap="round" stroke-linejoin="round"/>
<path d="M1 44.8474C2.27615 44.8528 3.55867 44.8333 4.83449 44.8801C4.93915 44.884 5.3256 44.8626 5.41754 44.9545" stroke="#C4C4C4" stroke-linecap="round" stroke-linejoin="round"/>
<path d="M19.1418 1C19.1609 2.24577 19.2358 3.51131 19.1627 4.75714C19.1548 4.89121 19.1317 5.00373 19.0883 5.12304" stroke="#C4C4C4" stroke-linecap="round" stroke-linejoin="round"/>
<path d="M17 2.84741C18.2761 2.8528 19.5587 2.83327 20.8345 2.88013C20.9392 2.88398 21.3256 2.86256 21.4175 2.9545" stroke="#C4C4C4" stroke-linecap="round" stroke-linejoin="round"/>
<path d="M27.1418 1C27.1609 2.24577 27.2358 3.51131 27.1627 4.75714C27.1548 4.89121 27.1317 5.00373 27.0883 5.12304" stroke="#C4C4C4" stroke-linecap="round" stroke-linejoin="round"/>
<path d="M25 2.84741C26.2761 2.8528 27.5587 2.83327 28.8345 2.88013C28.9392 2.88398 29.3256 2.86256 29.4175 2.9545" stroke="#C4C4C4" stroke-linecap="round" stroke-linejoin="round"/>
<path d="M27.1418 8C27.1609 9.24577 27.2358 10.5113 27.1627 11.7571C27.1548 11.8912 27.1317 12.0037 27.0883 12.123" stroke="#C4C4C4" stroke-linecap="round" stroke-linejoin="round"/>
<path d="M25 9.84741C26.2761 9.8528 27.5587 9.83327 28.8345 9.88013C28.9392 9.88398 29.3256 9.86256 29.4175 9.9545" stroke="#C4C4C4" stroke-linecap="round" stroke-linejoin="round"/>
<path d="M19.1418 8C19.1609 9.24577 19.2358 10.5113 19.1627 11.7571C19.1548 11.8912 19.1317 12.0037 19.0883 12.123" stroke="#C4C4C4" stroke-linecap="round" stroke-linejoin="round"/>
<path d="M17 9.84741C18.2761 9.8528 19.5587 9.83327 20.8345 9.88013C20.9392 9.88398 21.3256 9.86256 21.4175 9.9545" stroke="#C4C4C4" stroke-linecap="round" stroke-linejoin="round"/>
<path d="M19.1418 15C19.1609 16.2458 19.2358 17.5113 19.1627 18.7571C19.1548 18.8912 19.1317 19.0037 19.0883 19.123" stroke="#C4C4C4" stroke-linecap="round" stroke-linejoin="round"/>
<path d="M17 16.8474C18.2761 16.8528 19.5587 16.8333 20.8345 16.8801C20.9392 16.884 21.3256 16.8626 21.4175 16.9545" stroke="#C4C4C4" stroke-linecap="round" stroke-linejoin="round"/>
<path d="M27.1418 15C27.1609 16.2458 27.2358 17.5113 27.1627 18.7571C27.1548 18.8912 27.1317 19.0037 27.0883 19.123" stroke="#C4C4C4" stroke-linecap="round" stroke-linejoin="round"/>
<path d="M25 16.8474C26.2761 16.8528 27.5587 16.8333 28.8345 16.8801C28.9392 16.884 29.3256 16.8626 29.4175 16.9545" stroke="#C4C4C4" stroke-linecap="round" stroke-linejoin="round"/>
<path d="M27.1418 22C27.1609 23.2458 27.2358 24.5113 27.1627 25.7571C27.1548 25.8912 27.1317 26.0037 27.0883 26.123" stroke="#C4C4C4" stroke-linecap="round" stroke-linejoin="round"/>
<path d="M25 23.8474C26.2761 23.8528 27.5587 23.8333 28.8345 23.8801C28.9392 23.884 29.3256 23.8626 29.4175 23.9545" stroke="#C4C4C4" stroke-linecap="round" stroke-linejoin="round"/>
<path d="M19.1418 22C19.1609 23.2458 19.2358 24.5113 19.1627 25.7571C19.1548 25.8912 19.1317 26.0037 19.0883 26.123" stroke="#C4C4C4" stroke-linecap="round" stroke-linejoin="round"/>
<path d="M17 23.8474C18.2761 23.8528 19.5587 23.8333 20.8345 23.8801C20.9392 23.884 21.3256 23.8626 21.4175 23.9545" stroke="#C4C4C4" stroke-linecap="round" stroke-linejoin="round"/>
<path d="M19.1418 29C19.1609 30.2458 19.2358 31.5113 19.1627 32.7571C19.1548 32.8912 19.1317 33.0037 19.0883 33.123" stroke="#C4C4C4" stroke-linecap="round" stroke-linejoin="round"/>
<path d="M17 30.8474C18.2761 30.8528 19.5587 30.8333 20.8345 30.8801C20.9392 30.884 21.3256 30.8626 21.4175 30.9545" stroke="#C4C4C4" stroke-linecap="round" stroke-linejoin="round"/>
<path d="M27.1418 29C27.1609 30.2458 27.2358 31.5113 27.1627 32.7571C27.1548 32.8912 27.1317 33.0037 27.0883 33.123" stroke="#C4C4C4" stroke-linecap="round" stroke-linejoin="round"/>
<path d="M25 30.8474C26.2761 30.8528 27.5587 30.8333 28.8345 30.8801C28.9392 30.884 29.3256 30.8626 29.4175 30.9545" stroke="#C4C4C4" stroke-linecap="round" stroke-linejoin="round"/>
<path d="M27.1418 36C27.1609 37.2458 27.2358 38.5113 27.1627 39.7571C27.1548 39.8912 27.1317 40.0037 27.0883 40.123" stroke="#C4C4C4" stroke-linecap="round" stroke-linejoin="round"/>
<path d="M25 37.8474C26.2761 37.8528 27.5587 37.8333 28.8345 37.8801C28.9392 37.884 29.3256 37.8626 29.4175 37.9545" stroke="#C4C4C4" stroke-linecap="round" stroke-linejoin="round"/>
<path d="M19.1418 36C19.1609 37.2458 19.2358 38.5113 19.1627 39.7571C19.1548 39.8912 19.1317 40.0037 19.0883 40.123" stroke="#C4C4C4" stroke-linecap="round" stroke-linejoin="round"/>
<path d="M17 37.8474C18.2761 37.8528 19.5587 37.8333 20.8345 37.8801C20.9392 37.884 21.3256 37.8626 21.4175 37.9545" stroke="#C4C4C4" stroke-linecap="round" stroke-linejoin="round"/>
<path d="M27.1418 43C27.1609 44.2458 27.2358 45.5113 27.1627 46.7571C27.1548 46.8912 27.1317 47.0037 27.0883 47.123" stroke="#C4C4C4" stroke-linecap="round" stroke-linejoin="round"/>
<path d="M25 44.8474C26.2761 44.8528 27.5587 44.8333 28.8345 44.8801C28.9392 44.884 29.3256 44.8626 29.4175 44.9545" stroke="#C4C4C4" stroke-linecap="round" stroke-linejoin="round"/>
<path d="M19.1418 43C19.1609 44.2458 19.2358 45.5113 19.1627 46.7571C19.1548 46.8912 19.1317 47.0037 19.0883 47.123" stroke="#C4C4C4" stroke-linecap="round" stroke-linejoin="round"/>
<path d="M17 44.8474C18.2761 44.8528 19.5587 44.8333 20.8345 44.8801C20.9392 44.884 21.3256 44.8626 21.4175 44.9545" stroke="#C4C4C4" stroke-linecap="round" stroke-linejoin="round"/>
<path d="M35.1418 1C35.1609 2.24577 35.2358 3.51131 35.1627 4.75714C35.1548 4.89121 35.1317 5.00373 35.0883 5.12304" stroke="#C4C4C4" stroke-linecap="round" stroke-linejoin="round"/>
<path d="M33 2.84741C34.2761 2.8528 35.5587 2.83327 36.8345 2.88013C36.9392 2.88398 37.3256 2.86256 37.4175 2.9545" stroke="#C4C4C4" stroke-linecap="round" stroke-linejoin="round"/>
<path d="M43.1418 1C43.1609 2.24577 43.2358 3.51131 43.1627 4.75714C43.1548 4.89121 43.1317 5.00373 43.0883 5.12304" stroke="#C4C4C4" stroke-linecap="round" stroke-linejoin="round"/>
<path d="M41 2.84741C42.2761 2.8528 43.5587 2.83327 44.8345 2.88013C44.9392 2.88398 45.3256 2.86256 45.4175 2.9545" stroke="#C4C4C4" stroke-linecap="round" stroke-linejoin="round"/>
<path d="M43.1418 8C43.1609 9.24577 43.2358 10.5113 43.1627 11.7571C43.1548 11.8912 43.1317 12.0037 43.0883 12.123" stroke="#C4C4C4" stroke-linecap="round" stroke-linejoin="round"/>
<path d="M41 9.84741C42.2761 9.8528 43.5587 9.83327 44.8345 9.88013C44.9392 9.88398 45.3256 9.86256 45.4175 9.9545" stroke="#C4C4C4" stroke-linecap="round" stroke-linejoin="round"/>
<path d="M35.1418 8C35.1609 9.24577 35.2358 10.5113 35.1627 11.7571C35.1548 11.8912 35.1317 12.0037 35.0883 12.123" stroke="#C4C4C4" stroke-linecap="round" stroke-linejoin="round"/>
<path d="M33 9.84741C34.2761 9.8528 35.5587 9.83327 36.8345 9.88013C36.9392 9.88398 37.3256 9.86256 37.4175 9.9545" stroke="#C4C4C4" stroke-linecap="round" stroke-linejoin="round"/>
<path d="M35.1418 15C35.1609 16.2458 35.2358 17.5113 35.1627 18.7571C35.1548 18.8912 35.1317 19.0037 35.0883 19.123" stroke="#C4C4C4" stroke-linecap="round" stroke-linejoin="round"/>
<path d="M33 16.8474C34.2761 16.8528 35.5587 16.8333 36.8345 16.8801C36.9392 16.884 37.3256 16.8626 37.4175 16.9545" stroke="#C4C4C4" stroke-linecap="round" stroke-linejoin="round"/>
<path d="M43.1418 15C43.1609 16.2458 43.2358 17.5113 43.1627 18.7571C43.1548 18.8912 43.1317 19.0037 43.0883 19.123" stroke="#C4C4C4" stroke-linecap="round" stroke-linejoin="round"/>
<path d="M41 16.8474C42.2761 16.8528 43.5587 16.8333 44.8345 16.8801C44.9392 16.884 45.3256 16.8626 45.4175 16.9545" stroke="#C4C4C4" stroke-linecap="round" stroke-linejoin="round"/>
<path d="M43.1418 22C43.1609 23.2458 43.2358 24.5113 43.1627 25.7571C43.1548 25.8912 43.1317 26.0037 43.0883 26.123" stroke="#C4C4C4" stroke-linecap="round" stroke-linejoin="round"/>
<path d="M41 23.8474C42.2761 23.8528 43.5587 23.8333 44.8345 23.8801C44.9392 23.884 45.3256 23.8626 45.4175 23.9545" stroke="#C4C4C4" stroke-linecap="round" stroke-linejoin="round"/>
<path d="M35.1418 22C35.1609 23.2458 35.2358 24.5113 35.1627 25.7571C35.1548 25.8912 35.1317 26.0037 35.0883 26.123" stroke="#C4C4C4" stroke-linecap="round" stroke-linejoin="round"/>
<path d="M33 23.8474C34.2761 23.8528 35.5587 23.8333 36.8345 23.8801C36.9392 23.884 37.3256 23.8626 37.4175 23.9545" stroke="#C4C4C4" stroke-linecap="round" stroke-linejoin="round"/>
<path d="M35.1418 29C35.1609 30.2458 35.2358 31.5113 35.1627 32.7571C35.1548 32.8912 35.1317 33.0037 35.0883 33.123" stroke="#C4C4C4" stroke-linecap="round" stroke-linejoin="round"/>
<path d="M33 30.8474C34.2761 30.8528 35.5587 30.8333 36.8345 30.8801C36.9392 30.884 37.3256 30.8626 37.4175 30.9545" stroke="#C4C4C4" stroke-linecap="round" stroke-linejoin="round"/>
<path d="M43.1418 29C43.1609 30.2458 43.2358 31.5113 43.1627 32.7571C43.1548 32.8912 43.1317 33.0037 43.0883 33.123" stroke="#C4C4C4" stroke-linecap="round" stroke-linejoin="round"/>
<path d="M41 30.8474C42.2761 30.8528 43.5587 30.8333 44.8345 30.8801C44.9392 30.884 45.3256 30.8626 45.4175 30.9545" stroke="#C4C4C4" stroke-linecap="round" stroke-linejoin="round"/>
<path d="M43.1418 36C43.1609 37.2458 43.2358 38.5113 43.1627 39.7571C43.1548 39.8912 43.1317 40.0037 43.0883 40.123" stroke="#C4C4C4" stroke-linecap="round" stroke-linejoin="round"/>
<path d="M41 37.8474C42.2761 37.8528 43.5587 37.8333 44.8345 37.8801C44.9392 37.884 45.3256 37.8626 45.4175 37.9545" stroke="#C4C4C4" stroke-linecap="round" stroke-linejoin="round"/>
<path d="M35.1418 36C35.1609 37.2458 35.2358 38.5113 35.1627 39.7571C35.1548 39.8912 35.1317 40.0037 35.0883 40.123" stroke="#C4C4C4" stroke-linecap="round" stroke-linejoin="round"/>
<path d="M33 37.8474C34.2761 37.8528 35.5587 37.8333 36.8345 37.8801C36.9392 37.884 37.3256 37.8626 37.4175 37.9545" stroke="#C4C4C4" stroke-linecap="round" stroke-linejoin="round"/>
<path d="M43.1418 43C43.1609 44.2458 43.2358 45.5113 43.1627 46.7571C43.1548 46.8912 43.1317 47.0037 43.0883 47.123" stroke="#C4C4C4" stroke-linecap="round" stroke-linejoin="round"/>
<path d="M41 44.8474C42.2761 44.8528 43.5587 44.8333 44.8345 44.8801C44.9392 44.884 45.3256 44.8626 45.4175 44.9545" stroke="#C4C4C4" stroke-linecap="round" stroke-linejoin="round"/>
<path d="M51.1418 1C51.1609 2.24577 51.2358 3.51131 51.1627 4.75714C51.1548 4.89121 51.1317 5.00373 51.0883 5.12304" stroke="#C4C4C4" stroke-linecap="round" stroke-linejoin="round"/>
<path d="M49 2.84741C50.2761 2.8528 51.5587 2.83327 52.8345 2.88013C52.9392 2.88398 53.3256 2.86256 53.4175 2.9545" stroke="#C4C4C4" stroke-linecap="round" stroke-linejoin="round"/>
<path d="M51.1418 8C51.1609 9.24577 51.2358 10.5113 51.1627 11.7571C51.1548 11.8912 51.1317 12.0037 51.0883 12.123" stroke="#C4C4C4" stroke-linecap="round" stroke-linejoin="round"/>
<path d="M49 9.84741C50.2761 9.8528 51.5587 9.83327 52.8345 9.88013C52.9392 9.88398 53.3256 9.86256 53.4175 9.9545" stroke="#C4C4C4" stroke-linecap="round" stroke-linejoin="round"/>
<path d="M51.1418 15C51.1609 16.2458 51.2358 17.5113 51.1627 18.7571C51.1548 18.8912 51.1317 19.0037 51.0883 19.123" stroke="#C4C4C4" stroke-linecap="round" stroke-linejoin="round"/>
<path d="M49 16.8474C50.2761 16.8528 51.5587 16.8333 52.8345 16.8801C52.9392 16.884 53.3256 16.8626 53.4175 16.9545" stroke="#C4C4C4" stroke-linecap="round" stroke-linejoin="round"/>
<path d="M51.1418 22C51.1609 23.2458 51.2358 24.5113 51.1627 25.7571C51.1548 25.8912 51.1317 26.0037 51.0883 26.123" stroke="#C4C4C4" stroke-linecap="round" stroke-linejoin="round"/>
<path d="M49 23.8474C50.2761 23.8528 51.5587 23.8333 52.8345 23.8801C52.9392 23.884 53.3256 23.8626 53.4175 23.9545" stroke="#C4C4C4" stroke-linecap="round" stroke-linejoin="round"/>
<path d="M51.1418 29C51.1609 30.2458 51.2358 31.5113 51.1627 32.7571C51.1548 32.8912 51.1317 33.0037 51.0883 33.123" stroke="#C4C4C4" stroke-linecap="round" stroke-linejoin="round"/>
<path d="M49 30.8474C50.2761 30.8528 51.5587 30.8333 52.8345 30.8801C52.9392 30.884 53.3256 30.8626 53.4175 30.9545" stroke="#C4C4C4" stroke-linecap="round" stroke-linejoin="round"/>
<path d="M51.1418 36C51.1609 37.2458 51.2358 38.5113 51.1627 39.7571C51.1548 39.8912 51.1317 40.0037 51.0883 40.123" stroke="#C4C4C4" stroke-linecap="round" stroke-linejoin="round"/>
<path d="M49 37.8474C50.2761 37.8528 51.5587 37.8333 52.8345 37.8801C52.9392 37.884 53.3256 37.8626 53.4175 37.9545" stroke="#C4C4C4" stroke-linecap="round" stroke-linejoin="round"/>
<path d="M51.1418 43C51.1609 44.2458 51.2358 45.5113 51.1627 46.7571C51.1548 46.8912 51.1317 47.0037 51.0883 47.123" stroke="#C4C4C4" stroke-linecap="round" stroke-linejoin="round"/>
<path d="M49 44.8474C50.2761 44.8528 51.5587 44.8333 52.8345 44.8801C52.9392 44.884 53.3256 44.8626 53.4175 44.9545" stroke="#C4C4C4" stroke-linecap="round" stroke-linejoin="round"/>
<path d="M35.1418 43C35.1609 44.2458 35.2358 45.5113 35.1627 46.7571C35.1548 46.8912 35.1317 47.0037 35.0883 47.123" stroke="#C4C4C4" stroke-linecap="round" stroke-linejoin="round"/>
<path d="M33 44.8474C34.2761 44.8528 35.5587 44.8333 36.8345 44.8801C36.9392 44.884 37.3256 44.8626 37.4175 44.9545" stroke="#C4C4C4" stroke-linecap="round" stroke-linejoin="round"/>
</svg>
