<svg width="61" height="60" viewBox="0 0 61 60" fill="none" xmlns="http://www.w3.org/2000/svg">
<g clip-path="url(#clip0)">
<path d="M7.33356 9.17245C7.3224 9.69703 7.19736 10.2179 7.19736 10.7388" stroke="#C4C4C4" stroke-linecap="round" stroke-linejoin="round"/>
<path d="M8.83184 8.21899C8.83184 9.44814 8.76373 10.6695 8.76373 11.8966" stroke="#C4C4C4" stroke-linecap="round" stroke-linejoin="round"/>
<path d="M11.0112 6.4483C10.9017 7.05636 10.6585 7.62582 10.5042 8.22279C10.2892 9.05396 10.2112 9.94285 10.1939 10.7994C10.1848 11.252 9.98891 11.6235 10.3301 11.9647" stroke="#C4C4C4" stroke-linecap="round" stroke-linejoin="round"/>
<path d="M12.9181 3.17932C13.4003 4.75401 13.759 6.20107 13.8791 7.83686C13.9501 8.80517 14.1528 9.76279 14.3066 10.7199C14.3693 11.1099 14.369 11.5177 14.4012 11.9117C14.4152 12.0835 14.3224 12.6328 14.4844 12.7139" stroke="#C4C4C4" stroke-linecap="round" stroke-linejoin="round"/>
<path d="M3 13.3107C7.20938 13.2572 11.3957 13.7967 15.5942 13.971C18.85 14.1061 22.1259 14.3407 25.3896 14.3029C25.6086 14.3004 25.8179 14.3187 26 14.2323" stroke="#C4C4C4" stroke-linecap="round" stroke-linejoin="round"/>
<path d="M17.3198 0.817261C16.9977 3.04835 16.3807 5.23083 16.1772 7.4763C16.0721 8.63557 15.9649 9.78459 15.7572 10.9269C15.7271 11.0923 15.7534 11.2891 15.7534 11.4566C15.7534 11.6956 15.7348 11.9241 15.7004 12.1603C15.6864 12.2571 15.6853 12.5192 15.6853 12.2587" stroke="#C4C4C4" stroke-linecap="round" stroke-linejoin="round"/>
<path d="M18.6819 4.01813C18.1721 5.52217 17.9297 6.98534 17.8344 8.57351C17.7823 9.442 17.6658 10.2618 17.4561 11.1009" stroke="#C4C4C4" stroke-linecap="round" stroke-linejoin="round"/>
<path d="M15.9827 1C16.0899 2.34021 16.1414 3.74333 15.9071 5.07109C15.7192 6.13581 15.506 7.16414 15.506 8.24927C15.506 9.18515 15.249 10.0279 15.5211 10.9432C15.6928 11.5205 16.0508 12.0959 16.0508 12.7139" stroke="#C4C4C4" stroke-linecap="round" stroke-linejoin="round"/>
<path d="M20.3164 5.03967C20.1055 6.76397 19.9872 8.50036 19.9759 10.2383C19.9726 10.7379 20.0055 11.2252 19.9078 11.7138" stroke="#C4C4C4" stroke-linecap="round" stroke-linejoin="round"/>
<path d="M22.4957 6.26556C22.6705 6.78977 22.6557 7.35357 22.7 7.90005C22.7656 8.7074 22.7681 9.51205 22.7681 10.3215C22.7681 10.9017 22.7681 11.4818 22.7681 12.062C22.7681 12.204 22.7458 12.3044 22.8362 12.3949" stroke="#C4C4C4" stroke-linecap="round" stroke-linejoin="round"/>
<path d="M8.33356 30.4794C8.3224 31.004 8.19736 31.5249 8.19736 32.0458" stroke="#C4C4C4" stroke-linecap="round" stroke-linejoin="round"/>
<path d="M9.83184 29.526C9.83184 30.7551 9.76373 31.9765 9.76373 33.2036" stroke="#C4C4C4" stroke-linecap="round" stroke-linejoin="round"/>
<path d="M12.0112 27.7553C11.9017 28.3633 11.6585 28.9328 11.5042 29.5298C11.2892 30.3609 11.2112 31.2498 11.1939 32.1064C11.1848 32.559 10.9889 32.9305 11.3301 33.2717" stroke="#C4C4C4" stroke-linecap="round" stroke-linejoin="round"/>
<path d="M13.9181 24.4863C14.4003 26.061 14.759 27.5081 14.8791 29.1438C14.9501 30.1121 15.1528 31.0698 15.3066 32.0269C15.3693 32.4169 15.369 32.8247 15.4012 33.2187C15.4152 33.3904 15.3224 33.9398 15.4844 34.0208" stroke="#C4C4C4" stroke-linecap="round" stroke-linejoin="round"/>
<path d="M4 34.6177C8.20938 34.5642 12.3957 35.1037 16.5942 35.278C19.85 35.4131 23.1259 35.6477 26.3896 35.6099C26.6086 35.6074 26.8179 35.6257 27 35.5393" stroke="#C4C4C4" stroke-linecap="round" stroke-linejoin="round"/>
<path d="M18.3198 22.1242C17.9977 24.3553 17.3807 26.5378 17.1772 28.7832C17.0721 29.9425 16.9649 31.0915 16.7572 32.2338C16.7271 32.3992 16.7534 32.5961 16.7534 32.7635C16.7534 33.0025 16.7348 33.2311 16.7004 33.4673C16.6864 33.5641 16.6853 33.8261 16.6853 33.5656" stroke="#C4C4C4" stroke-linecap="round" stroke-linejoin="round"/>
<path d="M19.6819 25.3251C19.1721 26.8291 18.9297 28.2923 18.8344 29.8805C18.7823 30.749 18.6658 31.5688 18.4561 32.4079" stroke="#C4C4C4" stroke-linecap="round" stroke-linejoin="round"/>
<path d="M14.9827 21.307C15.0899 22.6472 15.1414 24.0503 14.9071 25.3781C14.7192 26.4428 14.506 27.4711 14.506 28.5562C14.506 29.4921 14.249 30.3349 14.5211 31.2501C14.6928 31.8274 15.0508 32.4029 15.0508 33.0208" stroke="#C4C4C4" stroke-linecap="round" stroke-linejoin="round"/>
<path d="M21.3164 26.3466C21.1055 28.0709 20.9872 29.8073 20.9759 31.5452C20.9726 32.0449 21.0055 32.5322 20.9078 33.0208" stroke="#C4C4C4" stroke-linecap="round" stroke-linejoin="round"/>
<path d="M23.4957 27.5725C23.6705 28.0967 23.6557 28.6605 23.7 29.207C23.7656 30.0143 23.7681 30.819 23.7681 31.6285C23.7681 32.2086 23.7681 32.7888 23.7681 33.3689C23.7681 33.511 23.7458 33.6114 23.8362 33.7019" stroke="#C4C4C4" stroke-linecap="round" stroke-linejoin="round"/>
<path d="M7.33356 52.4794C7.3224 53.004 7.19736 53.5249 7.19736 54.0458" stroke="#C4C4C4" stroke-linecap="round" stroke-linejoin="round"/>
<path d="M8.83184 51.526C8.83184 52.7551 8.76373 53.9765 8.76373 55.2036" stroke="#C4C4C4" stroke-linecap="round" stroke-linejoin="round"/>
<path d="M11.0112 49.7552C10.9017 50.3633 10.6585 50.9328 10.5042 51.5297C10.2892 52.3609 10.2112 53.2498 10.1939 54.1063C10.1848 54.5589 9.98891 54.9305 10.3301 55.2717" stroke="#C4C4C4" stroke-linecap="round" stroke-linejoin="round"/>
<path d="M12.9181 46.4863C13.4003 48.061 13.759 49.5081 13.8791 51.1439C13.9501 52.1122 14.1528 53.0698 14.3066 54.0269C14.3693 54.4169 14.369 54.8247 14.4012 55.2187C14.4152 55.3905 14.3224 55.9398 14.4844 56.0209" stroke="#C4C4C4" stroke-linecap="round" stroke-linejoin="round"/>
<path d="M3 56.6177C7.20938 56.5642 11.3957 57.1037 15.5942 57.278C18.85 57.4131 22.1259 57.6477 25.3896 57.6099C25.6086 57.6074 25.8179 57.6257 26 57.5393" stroke="#C4C4C4" stroke-linecap="round" stroke-linejoin="round"/>
<path d="M17.3198 44.1242C16.9977 46.3553 16.3807 48.5378 16.1772 50.7832C16.0721 51.9425 15.9649 53.0915 15.7572 54.2338C15.7271 54.3992 15.7534 54.5961 15.7534 54.7635C15.7534 55.0025 15.7348 55.2311 15.7004 55.4673C15.6864 55.5641 15.6853 55.8261 15.6853 55.5656" stroke="#C4C4C4" stroke-linecap="round" stroke-linejoin="round"/>
<path d="M18.6819 47.3251C18.1721 48.8291 17.9297 50.2923 17.8344 51.8805C17.7823 52.7489 17.6658 53.5688 17.4561 54.4079" stroke="#C4C4C4" stroke-linecap="round" stroke-linejoin="round"/>
<path d="M15.9827 44.307C16.0899 45.6472 16.1414 47.0503 15.9071 48.3781C15.7192 49.4428 15.506 50.4711 15.506 51.5563C15.506 52.4922 15.249 53.3349 15.5211 54.2502C15.6928 54.8275 16.0508 55.4029 16.0508 56.0209" stroke="#C4C4C4" stroke-linecap="round" stroke-linejoin="round"/>
<path d="M20.3164 48.3467C20.1055 50.071 19.9872 51.8074 19.9759 53.5453C19.9726 54.0449 20.0055 54.5322 19.9078 55.0209" stroke="#C4C4C4" stroke-linecap="round" stroke-linejoin="round"/>
<path d="M22.4957 49.5725C22.6705 50.0967 22.6557 50.6605 22.7 51.207C22.7656 52.0143 22.7681 52.819 22.7681 53.6285C22.7681 54.2086 22.7681 54.7888 22.7681 55.3689C22.7681 55.511 22.7458 55.6114 22.8362 55.7019" stroke="#C4C4C4" stroke-linecap="round" stroke-linejoin="round"/>
<path d="M36.3336 8.17245C36.3224 8.69703 36.1974 9.21795 36.1974 9.73884" stroke="#C4C4C4" stroke-linecap="round" stroke-linejoin="round"/>
<path d="M37.8318 7.21899C37.8318 8.44814 37.7637 9.66947 37.7637 10.8966" stroke="#C4C4C4" stroke-linecap="round" stroke-linejoin="round"/>
<path d="M40.0112 5.4483C39.9017 6.05636 39.6586 6.62582 39.5042 7.22279C39.2892 8.05396 39.2112 8.94285 39.1939 9.79938C39.1848 10.252 38.9889 10.6235 39.3301 10.9647" stroke="#C4C4C4" stroke-linecap="round" stroke-linejoin="round"/>
<path d="M41.9181 2.17932C42.4004 3.75401 42.7591 5.20107 42.8791 6.83686C42.9502 7.80517 43.1528 8.76279 43.3067 9.71992C43.3693 10.1099 43.3691 10.5177 43.4012 10.9117C43.4153 11.0835 43.3224 11.6328 43.4845 11.7139" stroke="#C4C4C4" stroke-linecap="round" stroke-linejoin="round"/>
<path d="M34 13.3107C38.2094 13.2572 42.3957 13.7967 46.5942 13.971C49.85 14.1061 53.1259 14.3407 56.3896 14.3029C56.6086 14.3004 56.8179 14.3187 57 14.2323" stroke="#C4C4C4" stroke-linecap="round" stroke-linejoin="round"/>
<path d="M48.3198 0.817261C47.9977 3.04835 47.3807 5.23083 47.1772 7.4763C47.0721 8.63557 46.9649 9.78459 46.7572 10.9269C46.7271 11.0923 46.7534 11.2891 46.7534 11.4566C46.7534 11.6956 46.7348 11.9241 46.7004 12.1603C46.6864 12.2571 46.6853 12.5192 46.6853 12.2587" stroke="#C4C4C4" stroke-linecap="round" stroke-linejoin="round"/>
<path d="M49.6819 4.01813C49.1721 5.52217 48.9297 6.98534 48.8344 8.57351C48.7823 9.442 48.6658 10.2618 48.4561 11.1009" stroke="#C4C4C4" stroke-linecap="round" stroke-linejoin="round"/>
<path d="M44.9827 0C45.0899 1.34021 45.1413 2.74333 44.907 4.07109C44.7191 5.13581 44.506 6.16414 44.506 7.24927C44.506 8.18515 44.249 9.02789 44.5211 9.94315C44.6927 10.5205 45.0508 11.0959 45.0508 11.7139" stroke="#C4C4C4" stroke-linecap="round" stroke-linejoin="round"/>
<path d="M51.3164 5.03967C51.1055 6.76397 50.9872 8.50036 50.9759 10.2383C50.9726 10.7379 51.0055 11.2252 50.9078 11.7138" stroke="#C4C4C4" stroke-linecap="round" stroke-linejoin="round"/>
<path d="M53.4957 6.26556C53.6705 6.78977 53.6557 7.35357 53.7 7.90005C53.7656 8.7074 53.7681 9.51205 53.7681 10.3215C53.7681 10.9017 53.7681 11.4818 53.7681 12.062C53.7681 12.204 53.7458 12.3044 53.8362 12.3949" stroke="#C4C4C4" stroke-linecap="round" stroke-linejoin="round"/>
<path d="M37.3336 29.4794C37.3224 30.004 37.1974 30.5249 37.1974 31.0458" stroke="#C4C4C4" stroke-linecap="round" stroke-linejoin="round"/>
<path d="M38.8318 28.526C38.8318 29.7551 38.7637 30.9765 38.7637 32.2036" stroke="#C4C4C4" stroke-linecap="round" stroke-linejoin="round"/>
<path d="M41.0112 26.7553C40.9017 27.3633 40.6586 27.9328 40.5042 28.5298C40.2892 29.3609 40.2112 30.2498 40.1939 31.1064C40.1848 31.559 39.9889 31.9305 40.3301 32.2717" stroke="#C4C4C4" stroke-linecap="round" stroke-linejoin="round"/>
<path d="M42.9181 23.4863C43.4004 25.061 43.7591 26.5081 43.8791 28.1438C43.9502 29.1121 44.1528 30.0698 44.3067 31.0269C44.3693 31.4169 44.3691 31.8247 44.4012 32.2187C44.4153 32.3904 44.3224 32.9398 44.4845 33.0208" stroke="#C4C4C4" stroke-linecap="round" stroke-linejoin="round"/>
<path d="M35 34.6177C39.2094 34.5642 43.3957 35.1037 47.5942 35.278C50.85 35.4131 54.1259 35.6477 57.3896 35.6099C57.6086 35.6074 57.8179 35.6257 58 35.5393" stroke="#C4C4C4" stroke-linecap="round" stroke-linejoin="round"/>
<path d="M49.3198 22.1242C48.9977 24.3553 48.3807 26.5378 48.1772 28.7832C48.0721 29.9425 47.9649 31.0915 47.7572 32.2338C47.7271 32.3992 47.7534 32.5961 47.7534 32.7635C47.7534 33.0025 47.7348 33.2311 47.7004 33.4673C47.6864 33.5641 47.6853 33.8261 47.6853 33.5656" stroke="#C4C4C4" stroke-linecap="round" stroke-linejoin="round"/>
<path d="M50.6819 25.3251C50.1721 26.8291 49.9297 28.2923 49.8344 29.8805C49.7823 30.749 49.6658 31.5688 49.4561 32.4079" stroke="#C4C4C4" stroke-linecap="round" stroke-linejoin="round"/>
<path d="M45.9827 21.307C46.0899 22.6472 46.1413 24.0503 45.907 25.3781C45.7191 26.4428 45.506 27.4711 45.506 28.5562C45.506 29.4921 45.249 30.3349 45.5211 31.2501C45.6927 31.8274 46.0508 32.4029 46.0508 33.0208" stroke="#C4C4C4" stroke-linecap="round" stroke-linejoin="round"/>
<path d="M52.3164 26.3466C52.1055 28.0709 51.9872 29.8073 51.9759 31.5452C51.9726 32.0449 52.0055 32.5322 51.9078 33.0208" stroke="#C4C4C4" stroke-linecap="round" stroke-linejoin="round"/>
<path d="M54.4957 27.5725C54.6705 28.0967 54.6557 28.6605 54.7 29.207C54.7656 30.0143 54.7681 30.819 54.7681 31.6285C54.7681 32.2086 54.7681 32.7888 54.7681 33.3689C54.7681 33.511 54.7458 33.6114 54.8362 33.7019" stroke="#C4C4C4" stroke-linecap="round" stroke-linejoin="round"/>
<path d="M36.3336 51.4794C36.3224 52.004 36.1974 52.5249 36.1974 53.0458" stroke="#C4C4C4" stroke-linecap="round" stroke-linejoin="round"/>
<path d="M37.8318 50.526C37.8318 51.7551 37.7637 52.9765 37.7637 54.2036" stroke="#C4C4C4" stroke-linecap="round" stroke-linejoin="round"/>
<path d="M40.0112 48.7552C39.9017 49.3633 39.6586 49.9328 39.5042 50.5297C39.2892 51.3609 39.2112 52.2498 39.1939 53.1063C39.1848 53.5589 38.9889 53.9305 39.3301 54.2717" stroke="#C4C4C4" stroke-linecap="round" stroke-linejoin="round"/>
<path d="M41.9181 45.4863C42.4004 47.061 42.7591 48.5081 42.8791 50.1439C42.9502 51.1122 43.1528 52.0698 43.3067 53.0269C43.3693 53.4169 43.3691 53.8247 43.4012 54.2187C43.4153 54.3905 43.3224 54.9398 43.4845 55.0209" stroke="#C4C4C4" stroke-linecap="round" stroke-linejoin="round"/>
<path d="M34 56.6177C38.2094 56.5642 42.3957 57.1037 46.5942 57.278C49.85 57.4131 53.1259 57.6477 56.3896 57.6099C56.6086 57.6074 56.8179 57.6257 57 57.5393" stroke="#C4C4C4" stroke-linecap="round" stroke-linejoin="round"/>
<path d="M48.3198 44.1242C47.9977 46.3553 47.3807 48.5378 47.1772 50.7832C47.0721 51.9425 46.9649 53.0915 46.7572 54.2338C46.7271 54.3992 46.7534 54.5961 46.7534 54.7635C46.7534 55.0025 46.7348 55.2311 46.7004 55.4673C46.6864 55.5641 46.6853 55.8261 46.6853 55.5656" stroke="#C4C4C4" stroke-linecap="round" stroke-linejoin="round"/>
<path d="M49.6819 47.3251C49.1721 48.8291 48.9297 50.2923 48.8344 51.8805C48.7823 52.7489 48.6658 53.5688 48.4561 54.4079" stroke="#C4C4C4" stroke-linecap="round" stroke-linejoin="round"/>
<path d="M44.9827 43.307C45.0899 44.6472 45.1413 46.0503 44.907 47.3781C44.7191 48.4428 44.506 49.4711 44.506 50.5563C44.506 51.4922 44.249 52.3349 44.5211 53.2502C44.6927 53.8275 45.0508 54.4029 45.0508 55.0209" stroke="#C4C4C4" stroke-linecap="round" stroke-linejoin="round"/>
<path d="M51.3164 48.3467C51.1055 50.071 50.9872 51.8074 50.9759 53.5453C50.9726 54.0449 51.0055 54.5322 50.9078 55.0209" stroke="#C4C4C4" stroke-linecap="round" stroke-linejoin="round"/>
<path d="M53.4957 49.5725C53.6705 50.0967 53.6557 50.6605 53.7 51.207C53.7656 52.0143 53.7681 52.819 53.7681 53.6285C53.7681 54.2086 53.7681 54.7888 53.7681 55.3689C53.7681 55.511 53.7458 55.6114 53.8362 55.7019" stroke="#C4C4C4" stroke-linecap="round" stroke-linejoin="round"/>
</g>
<defs>
<clipPath id="clip0">
<rect width="61" height="60" fill="white"/>
</clipPath>
</defs>
</svg>
