<svg width="89" height="69" viewBox="0 0 89 69" fill="none" xmlns="http://www.w3.org/2000/svg">
<path d="M4.75 2.5L13.5801 7.79423L4.91988 12.7942L7.75 7.69615L4.75 2.5Z" fill="#344048"/>
<path d="M19.75 2.5L28.5801 7.79423L19.9199 12.7942L22.75 7.69615L19.75 2.5Z" fill="#344048"/>
<path d="M34.75 2.5L43.5801 7.79423L34.9199 12.7942L37.75 7.69615L34.75 2.5Z" fill="#344048"/>
<path d="M64.75 2.5L73.5801 7.79423L64.9199 12.7942L67.75 7.69615L64.75 2.5Z" fill="#344048"/>
<path d="M79.75 2.5L88.5801 7.79423L79.9199 12.7942L82.75 7.69615L79.75 2.5Z" fill="#344048"/>
<path d="M49.75 2.5L58.5801 7.79423L49.9199 12.7942L52.75 7.69615L49.75 2.5Z" fill="#344048"/>
<path d="M4.75 16.5L13.5801 21.7942L4.91988 26.7942L7.75 21.6962L4.75 16.5Z" fill="#344048"/>
<path d="M19.75 16.5L28.5801 21.7942L19.9199 26.7942L22.75 21.6962L19.75 16.5Z" fill="#344048"/>
<path d="M34.75 16.5L43.5801 21.7942L34.9199 26.7942L37.75 21.6962L34.75 16.5Z" fill="#344048"/>
<path d="M64.75 16.5L73.5801 21.7942L64.9199 26.7942L67.75 21.6962L64.75 16.5Z" fill="#344048"/>
<path d="M79.75 16.5L88.5801 21.7942L79.9199 26.7942L82.75 21.6962L79.75 16.5Z" fill="#344048"/>
<path d="M49.75 16.5L58.5801 21.7942L49.9199 26.7942L52.75 21.6962L49.75 16.5Z" fill="#344048"/>
<path d="M4.75 30.5L13.5801 35.7942L4.91988 40.7942L7.75 35.6962L4.75 30.5Z" fill="#344048"/>
<path d="M19.75 30.5L28.5801 35.7942L19.9199 40.7942L22.75 35.6962L19.75 30.5Z" fill="#344048"/>
<path d="M34.75 30.5L43.5801 35.7942L34.9199 40.7942L37.75 35.6962L34.75 30.5Z" fill="#344048"/>
<path d="M64.75 30.5L73.5801 35.7942L64.9199 40.7942L67.75 35.6962L64.75 30.5Z" fill="#344048"/>
<path d="M79.75 30.5L88.5801 35.7942L79.9199 40.7942L82.75 35.6962L79.75 30.5Z" fill="#344048"/>
<path d="M49.75 30.5L58.5801 35.7942L49.9199 40.7942L52.75 35.6962L49.75 30.5Z" fill="#344048"/>
<path d="M4.75 44.5L13.5801 49.7942L4.91988 54.7942L7.75 49.6962L4.75 44.5Z" fill="#344048"/>
<path d="M19.75 44.5L28.5801 49.7942L19.9199 54.7942L22.75 49.6962L19.75 44.5Z" fill="#344048"/>
<path d="M34.75 44.5L43.5801 49.7942L34.9199 54.7942L37.75 49.6962L34.75 44.5Z" fill="#344048"/>
<path d="M64.75 44.5L73.5801 49.7942L64.9199 54.7942L67.75 49.6962L64.75 44.5Z" fill="#344048"/>
<path d="M79.75 44.5L88.5801 49.7942L79.9199 54.7942L82.75 49.6962L79.75 44.5Z" fill="#344048"/>
<path d="M49.75 44.5L58.5801 49.7942L49.9199 54.7942L52.75 49.6962L49.75 44.5Z" fill="#344048"/>
<path d="M4.75 58.5L13.5801 63.7942L4.91988 68.7942L7.75 63.6962L4.75 58.5Z" fill="#344048"/>
<path d="M19.75 58.5L28.5801 63.7942L19.9199 68.7942L22.75 63.6962L19.75 58.5Z" fill="#344048"/>
<path d="M34.75 58.5L43.5801 63.7942L34.9199 68.7942L37.75 63.6962L34.75 58.5Z" fill="#344048"/>
<path d="M64.75 58.5L73.5801 63.7942L64.9199 68.7942L67.75 63.6962L64.75 58.5Z" fill="#344048"/>
<path d="M79.75 58.5L88.5801 63.7942L79.9199 68.7942L82.75 63.6962L79.75 58.5Z" fill="#344048"/>
<path d="M49.75 58.5L58.5801 63.7942L49.9199 68.7942L52.75 63.6962L49.75 58.5Z" fill="#344048"/>
</svg>
